<?xml version="1.0" encoding="utf-8"?>
<!-- Generator: Adobe Illustrator 21.0.2, SVG Export Plug-In . SVG Version: 6.00 Build 0)  -->
<svg version="1.1" id="Layer_1" xmlns="http://www.w3.org/2000/svg" xmlns:xlink="http://www.w3.org/1999/xlink" x="0px" y="0px"
	 viewBox="0 0 106.4 210" style="enable-background:new 0 0 106.4 210;" xml:space="preserve">
<style type="text/css">
	.st0{fill:#D7FFFF;}
	.st1{fill:#7B277B;}
	.st2{fill:#480148;}
	.st3{fill:#FFFFFF;}
	.st4{fill:#602900;}
	.st5{fill:#FFE2AA;}
	.st6{fill:#FFBC73;}
	.st7{fill:#00FEF0;}
	.st8{fill:#282828;}
	.st9{fill:#33FEF3;}
	.st10{fill:#FFC569;}
	.st11{fill:#FFC931;}
	.st12{fill:#845D4A;}
	.st13{fill:#FFFA4D;}
	.st14{fill:#C6F5F7;}
</style>
<g>
	<g>
		<path class="st0" d="M99.8,62.6l-7,24.4c-0.4,1.4,0.4,2.8,1.7,3.2c1.4,0.4,2.8-0.4,3.2-1.8l7-24.4L99.8,62.6z"/>
	</g>
	<g>
		<path class="st1" d="M97.8,69.4c0.6,1.8,1.3,3.2,2.9,1.8c1-0.9,1.7-1.5,2.4-1.5l-5.3,18.6c-0.4,1.4-1.8,2.2-3.2,1.8
			c-1.4-0.4-2.1-1.8-1.7-3.2L97.8,69.4z"/>
	</g>
	<g>
		<path class="st2" d="M94.3,90.9c-1.7-0.5-2.7-2.3-2.2-4.1l7-24.4c0-0.2,0.2-0.3,0.3-0.4c0.2-0.1,0.3-0.1,0.5-0.1l4.9,1.5
			c0.4,0.1,0.6,0.5,0.5,0.9l-7,24.4C98,90,96.7,91,95.2,91C94.9,91,94.6,90.9,94.3,90.9z M100.2,63.4l-6.8,23.7
			c-0.3,1,0.3,2.1,1.3,2.4c1,0.3,2-0.3,2.3-1.3l6.8-23.7L100.2,63.4z"/>
	</g>
	<g>
		<path class="st0" d="M99.9,62.3c-0.1,0.5,0.9,1.1,2.2,1.5c1.4,0.4,2.6,0.4,2.7-0.1c0.1-0.5-0.9-1.1-2.2-1.5
			C101.2,61.8,100,61.8,99.9,62.3"/>
	</g>
	<g>
		<path class="st2" d="M101.9,64.5c-1.4-0.4-3-1.3-2.7-2.4c0.1-0.4,0.5-0.9,1.7-0.9c0.5,0,1.2,0.1,1.9,0.3c0.5,0.1,2.1,0.7,2.6,1.6
			c0.2,0.3,0.2,0.6,0.1,0.8c-0.1,0.4-0.5,0.9-1.7,0.9C103.2,64.8,102.5,64.7,101.9,64.5z M102.3,63.1c0.5,0.1,1,0.2,1.4,0.2
			c-0.3-0.2-0.7-0.4-1.3-0.5c-0.5-0.1-1-0.2-1.4-0.2C101.3,62.8,101.7,63,102.3,63.1z"/>
	</g>
	<g>
		<path class="st3" d="M62.1,102.5c0,0,20.4-11.4,27.5-17.2c4-2.9,8.1-1.2,9.6,1.1c1.5,2.3,0.1,5.2-2.2,7.2
			c-4.2,3.8-25.9,19-32.5,20.9C57.9,116.2,55.4,106,62.1,102.5z"/>
	</g>
	<g>
		<path class="st4" d="M91.1,97.7c0.5,0,1.1-0.1,1.7-0.3c0.3-0.1,0.4-0.4,0.3-0.7c-0.1-0.3-0.4-0.4-0.7-0.3c-1.1,0.4-2,0.3-2.7-0.1
			c-1.4-0.8-1.8-2.6-1.8-2.6c-0.1-0.3-0.3-0.5-0.6-0.4c-0.3,0.1-0.4,0.3-0.4,0.6c0,0.1,0.5,2.3,2.3,3.3
			C89.8,97.5,90.4,97.7,91.1,97.7z"/>
	</g>
	<g>
		<path class="st2" d="M57.4,110.8c-0.7-3.1,0.3-7.1,4.2-9.2c0.2-0.1,21-11.8,27.9-17.6c1.1-0.8,2.4-1.2,4-1.2
			c2.7,0,5.4,1.2,6.5,2.9c2,2.9,0.2,6.4-2.4,8.5c-4,3.6-26.1,19.2-32.9,21.1c-0.6,0.2-1.2,0.3-1.8,0.3
			C60.3,115.7,58.1,113.7,57.4,110.8z M90.7,85.7c-7,5.8-27.3,17.3-28.2,17.8c-3,1.6-3.7,4.6-3.2,6.9c0.4,1.6,1.5,3.2,3.6,3.2
			c0.4,0,0.8-0.1,1.3-0.2c6.1-1.7,27.6-16.7,32.1-20.7c1.8-1.5,3.2-4,2-5.8c-0.8-1.1-2.9-2-4.8-2C92.3,84.9,91.4,85.2,90.7,85.7z"/>
	</g>
	<g>
		<path class="st5" d="M99.8,92.5c4.5-2.6,6-4.3,5.5-8.2c-0.5-3.8-3.6-8.4-6.4-8.1c-2.8,0.2-0.5,2.8-0.2,3.2c-0.4-0.8-3.3-1.1-4-1.1
			c-2.1,0-0.4,3.2,0.3,4.1c-2.2-1-3.6-0.6-2.5,1.5c1.1,2.1-0.9,3.2-0.9,5.5C91.5,91.7,94.2,95.7,99.8,92.5"/>
	</g>
	<g>
		<path class="st2" d="M90.5,89.4c0-1.2,0.4-2.1,0.8-2.9c0.4-1,0.6-1.4,0.3-2.1c-0.6-1.1-0.6-2-0.2-2.7c0.2-0.3,0.6-0.8,1.6-0.9
			c-0.3-0.9-0.5-1.8-0.1-2.6c0.2-0.4,0.7-1,1.8-1c0,0,0.9,0,1.9,0.2c0-0.3,0-0.7,0.1-1c0.3-0.7,1-1.1,2.1-1.2
			c3.5-0.3,6.9,4.7,7.5,9.1c0.6,4.6-1.5,6.6-6,9.2c-1.5,0.9-3,1.3-4.3,1.3C92.4,94.7,90.5,91.6,90.5,89.4z M99,77.3
			c-0.2,0-0.3,0-0.4,0.1c0.1,0.2,0.3,0.6,0.7,1.2c0.1,0.1,0.2,0.3,0.2,0.3c0,0,0,0,0,0l0,0c0,0,0,0,0,0c0,0,0,0,0,0c0,0,0,0,0,0
			c0,0,0,0,0,0.1l0,0c0,0,0,0,0,0c0,0,0,0,0,0l0,0l0,0c0.2,0.5,0,1.1-0.4,1.3c-0.5,0.3-1.1,0.1-1.4-0.3c-0.4-0.3-2.3-0.7-3.2-0.7
			c0,0.5,0.5,1.6,1.2,2.5c0.3,0.4,0.3,0.9,0,1.3c-0.3,0.4-0.8,0.5-1.2,0.3c-0.7-0.3-1.1-0.4-1.4-0.4c0,0.1,0.1,0.3,0.2,0.5
			c0.9,1.7,0.3,3-0.2,4c-0.3,0.6-0.6,1.3-0.6,2c0,1.1,1,3.3,3.4,3.3c1,0,2.1-0.3,3.3-1c4.4-2.5,5.4-3.9,5-7.1
			c-0.4-3.5-3.1-7.2-5.1-7.2C99.1,77.3,99,77.3,99,77.3z"/>
	</g>
	<g>
		<path class="st6" d="M53.2,159.3c0.7,11.5,8.6,43.5,10.4,46.1c0,0,14.2-0.8,14.4-2.7c0.2-1.9-2.8-2.8-4.5-4.4
			c-1.7-1.6-4.9-30.5-5.6-39.7c-0.3-3.2-1-7.5-7.9-6.9C52.9,152.4,52.9,156.4,53.2,159.3"/>
	</g>
	<g>
		<path class="st4" d="M62.6,206.2c-2-3-9.9-35.1-10.6-46.8c-0.2-1.9-0.2-4.2,1.2-6c1.3-1.7,3.5-2.6,6.8-2.9c0.5,0,1-0.1,1.4-0.1
			c7.2,0,7.7,5.9,7.9,8.1c0.7,10.7,3.8,36.3,5.2,38.8c0.5,0.4,1.1,0.8,1.7,1.2c1.6,1,3.4,2.2,3.2,4.3c-0.1,1-0.3,3-15.6,3.9
			c0,0-0.1,0-0.1,0C63.2,206.7,62.8,206.5,62.6,206.2z M74.8,200.8c-0.7-0.5-1.5-0.9-2.1-1.6c-2.8-2.5-6-40.2-6-40.5
			c-0.2-3-0.8-5.7-5.3-5.7c-0.4,0-0.8,0-1.2,0.1c-2.5,0.2-4.1,0.9-5,2c-0.9,1.1-0.8,2.6-0.7,4.1c0,0,0,0,0,0.1
			c0.7,10.9,7.8,39.9,9.9,44.9c5.1-0.3,10.7-1.1,12.3-1.8C76.4,201.8,75.5,201.3,74.8,200.8z"/>
	</g>
	<g>
		<path class="st2" d="M73.1,197.6c0.1,0.3,0.3,0.6,0.4,0.7c1.7,1.6,4.7,2.5,4.5,4.4c-0.2,1.9-14.4,2.7-14.4,2.7
			c-0.3-0.4-0.7-1.5-1.2-3.1C64.8,199.9,69.9,198,73.1,197.6"/>
	</g>
	<g>
		<path class="st2" d="M62.8,206c-0.2-0.3-0.6-1-1.3-3.3c-0.1-0.4,0-0.8,0.2-1.1c2.5-2.6,7.7-4.7,11.3-5.1c0.5-0.1,0.9,0.2,1.1,0.7
			c0.1,0.2,0.1,0.3,0.1,0.3c0.5,0.4,1.2,0.9,1.8,1.3c1.5,1,3.3,2.1,3,4c-0.1,0.8-0.3,2.8-15.4,3.7c0,0,0,0-0.1,0
			C63.3,206.5,63,206.3,62.8,206z M74.9,200.6c-0.7-0.5-1.5-0.9-2.1-1.5c-0.1-0.1-0.2-0.2-0.3-0.3c-2.9,0.5-6.8,2.1-8.9,3.9
			c0.3,0.8,0.5,1.4,0.6,1.7c5.5-0.4,11.5-1.2,12.8-2C76.9,201.8,75.9,201.2,74.9,200.6z"/>
	</g>
	<g>
		<path class="st3" d="M71.9,201c0.1,0,0.2,0,0.3-0.1l2-1.3c0.3-0.2,0.3-0.6,0.2-0.8c-0.2-0.3-0.5-0.4-0.8-0.2l-2,1.3
			c-0.3,0.2-0.3,0.6-0.2,0.8C71.5,200.9,71.7,201,71.9,201z"/>
	</g>
	<g>
		<path class="st3" d="M73.6,202.1c0.1,0,0.2,0,0.3-0.1l2-1.2c0.3-0.2,0.4-0.5,0.2-0.8c-0.2-0.3-0.5-0.4-0.8-0.2l-2,1.2
			c-0.3,0.2-0.4,0.5-0.2,0.8C73.2,202,73.4,202.1,73.6,202.1z"/>
	</g>
	<g>
		<path class="st7" d="M48.9,139.5c1-2.3,17.9-3.5,17.9-3.5c2.9,6.7,6,28.9,6.3,39.3c-1,3.1,0.1,4.3,1.4,6.8
			c1.3,2.5-0.2,3.4-0.3,5.8c-0.1,2.4,1,6.2,1.7,8.3c0.7,2.1-14.8,9.9-16.3,6.5c-1.5-3.4,0.6-5-0.3-6.1c-0.9-1.1-2.7-10.5-3.1-12.8
			C55.8,181.6,48.2,149.7,48.9,139.5"/>
	</g>
	<g>
		<path class="st2" d="M58.6,203.3c-1-2.3-0.6-4-0.3-5.1c0.1-0.3,0.2-0.7,0.2-0.8c-1.3-1.6-3.3-13.2-3.3-13.3
			c-0.1-0.4-0.4-1.9-0.8-3.9c-2.1-9.7-7-32.2-6.5-40.7c0-0.1,0-0.2,0.1-0.4c1.1-2.5,12.2-3.6,18.7-4.1c0.4,0,0.8,0.2,1,0.6
			c3.1,7,6.1,29.4,6.4,39.7c0,0.1,0,0.2,0,0.4c-0.7,2.2-0.2,3.1,0.8,5c0.2,0.3,0.4,0.7,0.6,1c1,2,0.6,3.3,0.2,4.5
			c-0.2,0.6-0.4,1.2-0.4,1.9c-0.1,1.6,0.5,4.3,1.7,7.9c0.2,0.5,0,1.1-0.4,1.7c-1.8,2.5-10.8,7-15,7l0,0
			C59.7,204.7,58.9,203.9,58.6,203.3z M73.1,188c0-1,0.3-1.8,0.5-2.5c0.3-1,0.5-1.6-0.1-2.8c-0.2-0.3-0.4-0.7-0.5-1
			c-1.1-2-1.9-3.5-1-6.4c-0.3-9.7-3.1-30.7-5.9-38.1c-7.1,0.5-15,1.7-16.2,2.7c-0.4,8.4,4.6,31.2,6.4,39.8c0.5,2.3,0.8,3.6,0.9,4.1
			c0.5,3.3,2.2,11.4,2.9,12.3c0.7,0.9,0.5,1.9,0.3,2.7c-0.2,1-0.5,2.1,0.2,3.7c0,0.1,0.3,0.2,1,0.2l0,0c4,0,12.5-4.7,13.4-6.2
			C73.6,192.6,73.1,189.8,73.1,188z"/>
	</g>
	<g>
		<path class="st5" d="M34.7,160.8c-1.2,11.5,1.3,44.4,2.6,47.3c0,0,14.1,1.6,14.7-0.2c0.5-1.8-2.3-3.3-3.7-5.1
			c-1.5-1.9,0.2-30.9,1.1-40c0.3-3.2,0.2-7.6-6.6-8.1C35.5,153.9,34.9,157.9,34.7,160.8"/>
	</g>
	<g>
		<path class="st4" d="M37.2,209.3c-0.4-0.1-0.8-0.3-1-0.7c-1.5-3.3-3.9-36.3-2.7-47.9c0.1-2.1,0.4-7.5,7.9-7.5c0.5,0,0.9,0,1.4,0.1
			c2.9,0.2,5,1.1,6.3,2.7c1.7,2,1.7,4.6,1.5,6.8c-1,10.7-2.3,36.4-1.3,39.2c0.4,0.5,1,1,1.5,1.5c1.4,1.3,3,2.7,2.4,4.8
			c-0.4,1.3-2,1.8-5.9,1.8C43,210,37.4,209.4,37.2,209.3z M49.1,205.4c-0.6-0.6-1.3-1.2-1.9-1.9c-2.3-3,0.8-40.6,0.8-41
			c0.2-1.8,0.1-3.7-0.9-4.9c-0.8-1-2.4-1.6-4.6-1.8c-0.4,0-0.8-0.1-1.2-0.1c-4.7,0-5.2,2.4-5.3,5.1c0,0,0,0.1,0,0.1
			c-1.2,10.8,1.1,40.6,2.3,45.9c1.7,0.2,5.8,0.5,9,0.5c2,0,2.9-0.1,3.4-0.3C50.5,206.6,49.7,205.9,49.1,205.4z"/>
	</g>
	<g>
		<path class="st2" d="M48,201.9c0.1,0.3,0.2,0.6,0.3,0.7c1.5,1.9,4.3,3.3,3.7,5.1c-0.5,1.8-14.7,0.2-14.7,0.2
			c-0.2-0.4-0.4-1.6-0.7-3.2C39.4,202.7,44.8,201.8,48,201.9"/>
	</g>
	<g>
		<path class="st2" d="M37.2,209.1c-0.4,0-0.7-0.3-0.8-0.6c-0.2-0.3-0.4-1.1-0.8-3.5c-0.1-0.4,0.1-0.8,0.4-1c3-2.2,8.5-3.2,12-3.1
			c0.5,0,0.9,0.4,1,0.8c0,0.2,0.1,0.3,0.1,0.3c0.4,0.5,1,1,1.5,1.6c1.3,1.2,2.9,2.6,2.3,4.5c-0.3,1.2-1.9,1.6-5.6,1.6
			C43,209.7,37.4,209.1,37.2,209.1z M49.3,205.2c-0.6-0.6-1.3-1.2-1.8-1.9c-0.1-0.1-0.1-0.2-0.2-0.3c0,0,0,0,0,0
			c-2.9,0-7,0.8-9.5,2.3c0.1,0.9,0.2,1.4,0.3,1.8c1.6,0.2,5.9,0.6,9.2,0.6c2.5,0,3.4-0.2,3.7-0.3C51,206.7,50.1,205.9,49.3,205.2z"
			/>
	</g>
	<g>
		<path class="st3" d="M46.3,205.1c0.1,0,0.2,0,0.2,0l2.2-1c0.3-0.1,0.4-0.5,0.3-0.8c-0.1-0.3-0.5-0.4-0.8-0.3l-2.2,1
			c-0.3,0.1-0.4,0.5-0.3,0.8C45.8,205,46,205.1,46.3,205.1z"/>
	</g>
	<g>
		<path class="st3" d="M47.8,206.5c0.1,0,0.1,0,0.2,0l2.1-0.8c0.3-0.1,0.5-0.5,0.3-0.8c-0.1-0.3-0.5-0.5-0.8-0.3l-2.1,0.8
			c-0.3,0.1-0.5,0.5-0.3,0.8C47.3,206.4,47.5,206.5,47.8,206.5z"/>
	</g>
	<g>
		<path class="st7" d="M66.5,137.8c0,0-25.5-0.9-29-1c-5.4,4.4-5.7,19.4-5.8,26.6c-0.1,7.2,1,29.1,0.9,31.3
			c-0.1,2.2,1.5,4.5,1.3,5.9c-0.2,1.4-2.6,3.9,0.5,5.7c3.1,1.7,12.7-3,14.5-3.4c1.8-0.4,2.8-1.4,1.1-4.6c-1.5-3.2,1.2-9.2,0.3-15
			c-0.1-3.6,1.1-23.5,2.9-32.4c0.5,0.4,5.1,0,6.6-0.5C62.5,149.3,66.3,145.2,66.5,137.8"/>
	</g>
	<g>
		<path class="st2" d="M36.1,207.7c2.8,0,6.7-1.4,10.6-3c1-0.4,2-0.8,2.4-0.9c0.8-0.2,2-0.6,2.5-1.7c0.5-1.1,0.3-2.5-0.7-4.4
			c-0.6-1.3-0.3-3.5,0.1-6c0.4-2.6,0.8-5.6,0.3-8.6c-0.1-3.6,1-21.9,2.7-31.1c2,0.1,5.3-0.4,6.1-0.7c0.5-0.2,0.9-0.7,0.7-1.3
			c-0.2-0.6-0.7-0.9-1.3-0.7c-1.4,0.4-5.1,0.7-5.9,0.6c-0.3-0.1-0.6-0.1-0.8,0c-0.3,0.1-0.6,0.4-0.6,0.8c-1.9,9-3,29.1-3,32.6
			c0,0,0,0.1,0,0.1c0.4,2.7,0,5.5-0.3,8c-0.4,2.9-0.8,5.3,0.1,7.2c0.9,1.8,0.8,2.4,0.7,2.6c-0.1,0.2-0.5,0.4-1.1,0.6
			c-0.5,0.1-1.4,0.5-2.7,1c-3,1.2-9.2,3.7-11.1,2.6c-1.4-0.8-1.2-1.5-0.5-3.1c0.2-0.5,0.4-1,0.5-1.5c0.1-0.9-0.2-1.9-0.6-2.9
			c-0.4-1-0.7-2.1-0.7-3.1c0.1-1-0.1-5.5-0.3-11.2c-0.3-7.2-0.6-16.1-0.5-20.2c0.1-5.8,0.3-21.1,5.1-25.6c4.6,0.1,28.4,1,28.6,1
			c0.6,0,1-0.4,1.1-1c0-0.6-0.4-1.1-1-1.1c-0.3,0-25.5-0.9-29-1c-0.2,0-0.5,0.1-0.7,0.2c-5.2,4.2-6,16.2-6.2,27.4
			c-0.1,4.1,0.3,13.1,0.5,20.3c0.2,5.2,0.4,10,0.3,11c-0.1,1.4,0.4,2.7,0.8,3.9c0.3,0.7,0.5,1.5,0.5,1.9c0,0.2-0.2,0.6-0.3,0.9
			c-0.6,1.3-1.7,4,1.4,5.8C34.5,207.5,35.2,207.7,36.1,207.7z"/>
	</g>
	<g>
		<path class="st8" d="M37.5,136.8c1.2,0,5.1,0.2,9.6,0.3c-2.5,7.9-7,12.9-14.2,10.5C33.6,143,35,138.8,37.5,136.8"/>
	</g>
	<g>
		<path class="st4" d="M36.2,149c1.5,0,2.9-0.3,4.2-1c3.2-1.7,5.7-5.3,7.4-10.8c0.1-0.4-0.1-0.9-0.5-1c-0.4-0.1-0.9,0.1-1,0.5
			c-1.6,5.1-3.8,8.4-6.6,9.9c-1.9,1-4.2,1.1-6.7,0.3c-0.4-0.1-0.9,0.1-1,0.5c-0.1,0.4,0.1,0.9,0.5,1C33.9,148.8,35.1,149,36.2,149z"
			/>
	</g>
	<g>
		<path class="st9" d="M63,107.2c4.5,11.6,4.9,28.1,3.9,30.1c-1.1,2-23.2,6.8-30.1,0c0-13.8,5.1-31.5,5.1-31.5
			c0.7-1.5,2.7-3.1,10.1-3.4C59.4,102.2,62.3,104.3,63,107.2"/>
	</g>
	<g>
		<path class="st2" d="M59.9,111.3l-4.8-6.5l-2.4,6c-0.1,0.2-0.3,0.4-0.5,0.5c-0.2,0.1-0.5,0-0.7-0.2l-8.1-6.6
			c-0.2-0.2-0.3-0.4-0.3-0.7c0-0.3,0.2-0.5,0.4-0.6c1.8-0.9,4.6-1.4,8.5-1.5c0.4,0,0.7,0,1.1,0c5.6,0,9.1,1.5,10.4,4.4
			c0.1,0.2,0.1,0.5,0,0.7c-0.9,2.2-2.1,4.4-2.1,4.5c-0.1,0.2-0.4,0.4-0.6,0.4c0,0,0,0-0.1,0C60.3,111.6,60.1,111.5,59.9,111.3z
			 M56.1,103.4l4.4,5.9c0.4-0.8,0.9-1.8,1.4-2.9C60.9,104.8,59,103.8,56.1,103.4z M52,103.2c-2.8,0.1-5,0.4-6.6,0.9l6.2,5l2.4-5.9
			C53.4,103.2,52.7,103.2,52,103.2z"/>
	</g>
	<g>
		<path class="st4" d="M35.7,138.4c-0.3-0.3-0.5-0.7-0.5-1.1c0-13.9,4.9-31.2,5.1-32c0-0.1,0-0.1,0.1-0.2c1.2-2.7,4.8-4,11.4-4.3
			c0.4,0,0.8,0,1.1,0c6.5,0,10.4,2,11.4,5.8c4.4,11.6,5.3,28.5,3.8,31.3c-1.3,2.5-12.1,4.3-18.7,4.3h0C43,142.3,38.4,141,35.7,138.4
			z M61.6,107.7c0-0.1,0-0.1-0.1-0.2c-0.6-2.4-3.5-3.6-8.5-3.6c-0.3,0-0.7,0-1,0c-3.5,0.1-7.8,0.6-8.7,2.4c-0.4,1.6-4.8,17.5-5,30.3
			c2.2,1.7,6,2.7,11.2,2.7h0c7.5,0,14.8-1.9,16.1-2.8C66.3,134,65.9,118.9,61.6,107.7z"/>
	</g>
	<g>
		<path class="st3" d="M70.7,137.3c-1.1-4.2-3.3-18.5-7.7-30.2c-0.3-1.2-1-2.2-2.2-3c0,5.5-0.3,17.4-2.4,21.2
			c-2.9-2-9.5-17.2-11.5-22.5c-3.4,0.6-4.6,1.8-5.1,2.9c0,0-6.7,19.1-8.3,31c-1.9,5.8-8.4,21-7.1,23.3c7.8,5.9,25.5,3.7,28.7,2.6
			c1.1-3.5,4.8-14.9,4.8-14.9c2.3,7.8,2.1,14.3,1.9,14.9c7.5,0.3,10.7-2,11.6-3.1C73.4,153.5,70.7,137.3,70.7,137.3"/>
	</g>
	<g>
		<path class="st2" d="M57.8,127c-0.4-0.2-8.9-5.6-11.8-8.4c-3.1-3-3.9-13-4-14.1c0-0.3,0.1-0.5,0.3-0.7c1-0.8,2.5-1.4,4.5-1.8
			c0.4-0.1,0.8,0.1,0.9,0.5c2.3,6.1,7.7,18.1,10.5,21.4c1.5-4.2,1.9-14.2,1.9-19.8c0-0.3,0.2-0.6,0.4-0.7c0.3-0.1,0.6-0.1,0.8,0
			c1.3,0.9,2.1,2,2.5,3.4c0.7,1.8,1.4,3.9,2.1,6c0,0.1,0,0.2,0,0.3c-0.1,1.9-0.3,4.3-0.4,4.9c0,0,0,0.1,0,0.1c-0.5,2.5-3.9,8-7,8.9
			c-0.1,0-0.1,0-0.2,0C58.1,127.2,58,127.1,57.8,127z M64.2,113.3c-0.6-2.1-1.3-4.1-2-5.8c0,0,0-0.1,0-0.1c-0.1-0.5-0.3-0.9-0.6-1.3
			c0,4.5-0.3,14-2,18.5c1.9-1.7,3.9-5,4.2-6.7C64,117.4,64.1,115.8,64.2,113.3z M43.7,104.9c0.4,4.9,1.7,10.8,3.5,12.6
			c1.9,1.8,6.3,4.8,9.1,6.6c-3.5-4.9-8.4-16.6-9.8-20.3C45.3,104.1,44.3,104.4,43.7,104.9z"/>
	</g>
	<g>
		<path class="st2" d="M59.9,148.6c0.4,0,0.8-0.3,0.8-0.7c0.3-3-1.4-21.8-1.5-22.6c0-0.4-0.4-0.8-0.9-0.7c-0.4,0-0.8,0.4-0.7,0.9
			c0.6,6.7,1.7,20,1.5,22.3C59.1,148.1,59.4,148.5,59.9,148.6C59.9,148.6,59.9,148.6,59.9,148.6z"/>
	</g>
	<g>
		<path class="st2" d="M25.8,160.9c-0.1-0.1-0.2-0.2-0.3-0.3c-1-1.8,0.6-7,4.7-17.9c0.9-2.4,1.7-4.6,2.2-6.1
			c1.7-11.9,8.1-30.4,8.3-31.1c0,0,0-0.1,0-0.1c0.8-1.8,2.7-2.9,5.9-3.5c0.5-0.1,1,0.2,1.1,0.7c2.2,5.9,7.4,17.4,10.2,21
			c1.4-4.4,1.8-13.9,1.7-19.4c0-0.4,0.2-0.7,0.5-0.9c0.3-0.2,0.7-0.2,1.1,0.1c1.3,0.9,2.2,2.1,2.5,3.6c3.3,8.7,5.4,19.1,6.7,25.3
			c0.4,2.2,0.8,3.9,1.1,4.9c0,0,0,0.1,0,0.1c0.1,0.7,2.7,16.3,2.8,22.5c0,0.3-0.1,0.5-0.3,0.7c-0.8,0.8-4,3.7-12.4,3.4
			c-0.3,0-0.6-0.2-0.8-0.4c-0.2-0.2-0.3-0.5-0.2-0.8c0.1-0.5,0.3-5.1-1-11c-1.2,3.7-3,9.3-3.7,11.6c-0.1,0.3-0.3,0.6-0.6,0.7
			c-1.6,0.6-6.7,1.4-12.4,1.4C37.7,165.1,30.4,164.3,25.8,160.9z M59,147.4c0.1-0.4,0.5-0.7,1-0.7c0,0,0,0,0,0c0.4,0,0.8,0.3,1,0.7
			c1.9,6.3,2.1,11.8,2,14.2c0,0,0.1,0,0.1,0c5.9,0,8.5-1.7,9.4-2.5c-0.2-6.1-2.6-20.7-2.7-21.6c-0.3-1.1-0.6-2.8-1.1-5
			c-1.2-6.1-3.3-16.4-6.6-25c0,0,0-0.1,0-0.1c0-0.2-0.1-0.3-0.1-0.5c-0.1,5.2-0.5,15.2-2.5,18.9c-0.1,0.3-0.4,0.4-0.7,0.5
			c-0.3,0.1-0.6,0-0.8-0.1c-3.3-2.2-9.7-17.5-11.5-22.2c-2.8,0.7-3.4,1.7-3.6,2.1c-0.4,1-6.7,19.4-8.2,30.8c0,0.1,0,0.1,0,0.2
			c-0.5,1.6-1.3,3.8-2.3,6.3c-1.9,5-5.3,14.1-4.9,16c4.1,2.9,10.8,3.6,15.8,3.6c5.1,0,9.5-0.7,11.2-1.1
			C55.6,157.9,59,147.4,59,147.4z"/>
	</g>
	<g>
		<path class="st3" d="M53.9,140c-1.9-0.4-12.8-1.5-14.2-2c-1.5,6.9-2,12.9-1.9,13.3c5.6,1.6,13.1,2.1,13.8,1.5
			C52.8,147.5,53.9,140,53.9,140"/>
	</g>
	<g>
		<path class="st2" d="M37.5,152.3c-0.3-0.1-0.6-0.3-0.7-0.6c-0.3-0.9,0.6-8.1,1.9-13.8c0.1-0.3,0.2-0.5,0.5-0.7
			c0.2-0.1,0.5-0.2,0.8-0.1c0.7,0.2,5.1,0.8,8.3,1.2c2.7,0.3,5,0.6,5.8,0.8c0.5,0.1,0.9,0.6,0.8,1.2c0,0.1-1.1,7.6-2.3,12.8
			c0,0.2-0.1,0.4-0.3,0.5c-0.4,0.4-0.9,0.6-2.7,0.6C46.7,154.1,41.6,153.5,37.5,152.3z M52.7,140.9c-1.1-0.2-2.9-0.4-4.7-0.6
			c-3.5-0.4-6.1-0.8-7.5-1c-1.1,5.2-1.5,9.6-1.7,11.2c3.7,1,8.2,1.5,10.7,1.5c0.6,0,0.9,0,1.1-0.1C51.6,148,52.4,143,52.7,140.9z"/>
	</g>
	<g>
		<path class="st2" d="M52.2,144.3c0.3,0,0.5-0.2,0.5-0.5c0-0.3-0.2-0.5-0.5-0.6c-0.1,0-7.1-0.7-9.2-1c-0.3,0-0.5,0.1-0.6,0.4
			c0,0.3,0.1,0.6,0.4,0.6C45.1,143.6,51.9,144.2,52.2,144.3C52.2,144.3,52.2,144.3,52.2,144.3z"/>
	</g>
	<g>
		<path class="st3" d="M64.3,138c0,0,6.7-0.7,8-2.1c2.5,7.6,3.1,14,1.7,14.3c-3.5,0.7-6.8,1.4-6.8,1.4C65.8,149.4,64.3,138,64.3,138
			"/>
	</g>
	<g>
		<path class="st2" d="M66.2,152.2c-1.4-2.4-2.8-12.9-3-14.1c0-0.3,0-0.6,0.2-0.8c0.2-0.2,0.4-0.4,0.7-0.4c3-0.3,6.7-1.1,7.3-1.8
			c0.2-0.3,0.6-0.4,1-0.3c0.4,0.1,0.6,0.3,0.8,0.7c1.8,5.6,3.2,12.6,2,14.8c-0.3,0.6-0.8,0.8-1.1,0.9c-3.5,0.7-6.8,1.4-6.8,1.4
			c-0.1,0-0.1,0-0.2,0C66.8,152.7,66.4,152.5,66.2,152.2z M71.7,137.4c-1.8,0.8-4.5,1.2-6.3,1.4c0.5,3.9,1.5,9.4,2.3,11.5
			c1.2-0.2,3.4-0.7,5.8-1.2C73.9,148.2,73.6,143.8,71.7,137.4z"/>
	</g>
	<g>
		<path class="st2" d="M64.7,142.6C64.7,142.6,64.8,142.6,64.7,142.6c6.8-1.2,7.1-2,7.2-2.2c0.1-0.3,0-0.6-0.3-0.7
			c-0.2-0.1-0.5,0-0.6,0.2c-0.5,0.4-3.7,1.2-6.4,1.7c-0.3,0.1-0.5,0.3-0.4,0.6C64.2,142.5,64.5,142.6,64.7,142.6z"/>
	</g>
	<g>
		<path class="st5" d="M7.2,70.9c-0.5-2-0.9-3.9-1.2-5.8c-1.7-15.2,4.7-33.8,17.7-42.3c7.1-4.6,17.6-6.8,26-7.3
			c21.2-1.2,42.2,16,42.4,39c0.1,13.8-0.7,25.7-7.5,36.5c-4.1,6.5-10.6,10-18.8,12.1c-10.7,2.8-26.8,1.6-36.7-3.5
			c-5-2.5-9.6-6.8-13.4-11.8C11,91.6,1.4,86.5,1,79C0.8,74.6,3.9,71.6,7.2,70.9"/>
	</g>
	<g>
		<path class="st10" d="M24,87c0,2.6,2.1,4.8,4.7,4.8c2.6,0,4.7-2.1,4.7-4.8c0-2.6-2.1-4.8-4.7-4.8C26.2,82.2,24.1,84.3,24,87"/>
	</g>
	<g>
		<path class="st10" d="M82.3,82.4c2.4,0,4.4,1.9,4.7,4.3c-0.7,1.5-1.5,2.9-2.4,4.3c-0.1,0.2-0.3,0.4-0.4,0.6
			c-0.6,0.3-1.2,0.4-1.9,0.4c-2.6,0-4.7-2.2-4.7-4.8C77.6,84.5,79.7,82.4,82.3,82.4"/>
	</g>
	<g>
		<path class="st2" d="M28.6,100.5c-4.7-2.4-9.2-6.3-13.2-11.3c-1.1,0.6-2.3,0.9-3.7,0.9l0,0C6.4,90.1,0.3,85.4,0,79
			c-0.2-4.6,2.7-7.8,5.9-8.9c-0.4-1.7-0.7-3.4-0.9-5C3.4,50.6,9.1,31,23.2,21.9c6.4-4.1,16.2-6.9,26.5-7.5c0.7,0,1.4-0.1,2.2-0.1
			c19.8,0,41.1,16.1,41.3,40.1c0.1,12.4-0.4,25.6-7.7,37c-3.9,6.1-10,10.1-19.4,12.6c-3.7,1-8.2,1.5-12.9,1.5
			C44,105.6,34.8,103.7,28.6,100.5z M49.8,16.5c-7.6,0.4-18.3,2.5-25.5,7.2C10.9,32.3,5.5,51,7,65c0.2,1.8,0.6,3.7,1.1,5.6
			c0.1,0.3,0,0.6-0.1,0.8c-0.2,0.2-0.4,0.4-0.7,0.5c-2.8,0.6-5.5,3.2-5.3,7c0.2,5.1,5.4,9.1,9.7,9.1l0,0c1.3,0,2.4-0.4,3.3-1.1
			c0.2-0.2,0.5-0.3,0.8-0.2c0.3,0,0.5,0.2,0.7,0.4c3.9,5.2,8.4,9.1,13,11.5c6,3,14.8,4.9,23.6,4.9c4.6,0,8.9-0.5,12.4-1.4
			c8.8-2.3,14.6-6,18.2-11.7c6.3-10,7.5-20.7,7.4-35.9c-0.2-22.7-20.4-38-39.2-38C51.1,16.5,50.4,16.5,49.8,16.5z"/>
	</g>
	<g>
		<path class="st4" d="M29.7,80c0,3.5,1.3,6.3,3,6.3c1.6,0,3-2.8,3-6.3c0-3.5-1.3-6.3-3-6.3C31.1,73.7,29.7,76.5,29.7,80"/>
	</g>
	<g>
		<path class="st3" d="M33.1,76.3c0,0.5,0.4,0.9,0.9,0.9c0.5,0,0.9-0.4,0.9-0.9c0-0.5-0.4-0.9-0.9-0.9
			C33.5,75.4,33.1,75.8,33.1,76.3"/>
	</g>
	<g>
		<path class="st4" d="M76.6,79c0,3.5,1.3,6.3,3,6.3c1.7,0,3-2.8,3-6.3c0-3.5-1.3-6.3-3-6.3C77.9,72.7,76.6,75.5,76.6,79"/>
	</g>
	<g>
		<path class="st3" d="M79.9,75.3c0,0.5,0.4,0.9,0.9,0.9c0.5,0,0.9-0.4,0.9-0.9c0-0.5-0.4-0.9-0.9-0.9
			C80.3,74.4,79.9,74.8,79.9,75.3"/>
	</g>
	<g>
		<path class="st11" d="M39.3,73c-1.9-3.2-10.9-9.5-12.9-8.8c-2.3,1-2.3,3.3-2.3,3.3C26.8,67.5,38.3,72,39.3,73"/>
	</g>
	<g>
		<path class="st11" d="M72.1,73.9c1.8-3.3,10.5-9.9,12.5-9.4c2.3,0.9,2.4,3.1,2.4,3.1C84.4,67.9,73,72.9,72.1,73.9"/>
	</g>
	<g>
		<path class="st2" d="M57.6,95.6c0.9,0,1.8-0.1,2.6-0.2c2.9-0.4,4.6-1.5,4.9-3c0.1-0.4-0.2-0.8-0.6-0.9c-0.4-0.1-0.8,0.2-0.9,0.6
			c-0.2,0.9-1.6,1.6-3.7,1.9c-3.8,0.6-8.1-0.4-8.7-1.5c-0.2-0.4-0.7-0.5-1-0.3c-0.4,0.2-0.5,0.7-0.3,1
			C50.9,94.9,54.5,95.6,57.6,95.6z"/>
	</g>
	<g>
		<path class="st12" d="M16.3,24.4c1.2-1.2,2.6-2.2,4.1-3.2c2.6-5,5.8-9.2,8.9-11.7c0,0-0.7,1.7,0,4.2c4.2-6.8,8.6-9.6,15.9-12.7
			c0,0,0.2,3.6,4.9,5.1c0,0-0.2-3,0-5.1c4-0.6,16.6,6.7,19.2,10.5c0,0,0.6-1.5,0-3.9c5.4,3.4,9.4,8.9,11.7,14.6c3,2,5.6,4.5,7.5,7.3
			c13.7,19.5,7.7,41.6,5.1,47.4c-2.5,5.7-7.1-3.8-3.9-14.4c3.2-10.5-4-21.5-14.9-15.3c-7.6,4.3-17.1,6.8-25.6,3.6
			c-6.1-2.3-10.8-7.4-16.9-9.6c-6.6-2.3-14.7-0.5-17.2,6.8c-1.4,4.1-0.9,14.9,1.6,24c2.5,9.1-7.3,8.5-8.8,5.2
			C-0.4,56.7,0.1,39.8,16.3,24.4"/>
	</g>
	<g>
		<path class="st13" d="M16.3,24.4c1.2-1.2,2.6-2.2,4.1-3.2c2.6-5,5.8-9.2,8.9-11.7c0,0-0.7,1.7,0,4.2c4.2-6.8,8.6-9.6,15.9-12.7
			c0,0,0.2,3.6,4.9,5.1c0,0-0.2-3,0-5.1c4-0.6,16.6,6.7,19.2,10.5c0,0,0.6-1.5,0-3.9c5.4,3.4,9.4,8.9,11.7,14.6c3,2,5.6,4.5,7.5,7.3
			c13.7,19.5,7.7,41.6,5.1,47.4c-2.5,5.7-7.1-3.8-3.9-14.4c3.2-10.5-4-21.5-14.9-15.3c-7.6,4.3-17.1,6.8-25.6,3.6
			c-6.1-2.3-10.8-7.4-16.9-9.6c-6.6-2.3-14.7-0.5-17.2,6.8c-1.4,4.1-0.9,14.9,1.6,24c2.5,9.1-7.3,8.5-8.8,5.2
			C-0.4,56.7,0.1,39.8,16.3,24.4"/>
	</g>
	<g>
		<g>
			<path class="st3" d="M78.2,28.3c-0.6-1.6-1.4-3.2-2.5-4.5c-1.2-1.4-3.5-2.8-5.3-1.7c-3.3,2.2-2.8,6.4-1.1,9.4
				c1.3,2.4,3.9,5.4,6.7,5.8c3,0.4,3.4-2.5,3.1-5.3C78.9,30.7,78.5,29.2,78.2,28.3z"/>
		</g>
		<g>
			<path class="st3" d="M32.4,30.1c0.8-1.2,1.4-2.4,0.7-3.9c-0.2-0.3-0.5-0.4-0.8-0.3c-1.3,0.5-2.4,1.3-3.5,2
				c-0.9,0.6-2.3,1.6-3.5,1.6c0.5-1.2,1.3-2.3,2-3.4c0.4-0.7-0.5-1.4-1-0.7c-0.9,1.4-1.9,2.7-2.4,4.4c-0.1,0.3,0,0.7,0.3,0.8
				c2.9,0.9,5.4-2,7.9-3.2c0.2,1.3-1.1,2.5-1.7,3.5c-0.3,0.5,0,1,0.6,1c1.1-0.1,6.2-3.3,6.5-1.6c0.2,0.8,1.3,0.6,1.2-0.2
				C38.1,27,34.7,29,32.4,30.1z"/>
		</g>
		<g>
			<path class="st3" d="M46.2,29.1c-0.3-0.1-0.7,0-0.8,0.3l-0.3,1c-0.1,0.3,0,0.7,0.3,0.8c0.3,0.1,0.7,0,0.8-0.3l0.3-1
				C46.7,29.5,46.5,29.2,46.2,29.1z"/>
		</g>
		<g>
			<path class="st3" d="M49.5,29.4c-0.3,0-0.6,0.4-0.5,0.7l0.1,0.8c0,0.3,0.4,0.6,0.7,0.5c0.3,0,0.6-0.4,0.5-0.7l-0.1-0.8
				C50.1,29.6,49.8,29.4,49.5,29.4z"/>
		</g>
		<g>
			<path class="st3" d="M64.9,28.2c-0.2-0.1-0.5-0.1-0.7-0.1c-0.8,0.1-0.9,0.8-0.9,1.5c-0.3-0.2-0.6-0.4-0.8-0.6
				c-0.6-0.5-1.3,0.5-0.7,1c0.6,0.5,1.2,0.9,2,1.1c0.3,0.1,0.6-0.2,0.7-0.5c0.1-0.3,0.1-0.6,0-1c0-0.1,0-0.2,0-0.3c0,0,0,0.1,0,0.1
				c0.2,0.1,0.3,0.3,0.4,0.4c0.4,0.5,0.8,1,1.3,1.4c0.4,0.2,0.9-0.2,0.8-0.7c-0.1-0.9-0.6-1.7-1-2.5C65.7,27.4,64.9,27.7,64.9,28.2z
				"/>
		</g>
	</g>
	<g>
		<path class="st2" d="M65.5,52.1c0.2,0,0.4-0.1,0.6-0.3c0.1-0.1,12.6-13.8,5.2-32c-0.2-0.4-0.6-0.6-1-0.4c-0.4,0.2-0.6,0.6-0.4,1.1
			c7,17.2-4.8,30.1-4.9,30.2c-0.3,0.3-0.3,0.8,0,1.1C65.1,52,65.3,52.1,65.5,52.1z"/>
	</g>
	<g>
		<path class="st2" d="M59.2,53.2c0.2,0,0.5-0.1,0.6-0.3c0.4-0.6,10.2-14.1,5.9-26.4c-0.1-0.4-0.6-0.6-1-0.5c-0.4,0.2-0.6,0.6-0.5,1
			c4,11.5-5.6,24.8-5.7,24.9c-0.3,0.4-0.2,0.9,0.2,1.1C58.9,53.1,59,53.2,59.2,53.2z"/>
	</g>
	<g>
		<path class="st2" d="M39.3,45.9c0.1,0,0.3,0,0.4-0.1c0.4-0.2,0.5-0.7,0.2-1.1c-4.8-7.7-1-25.2-0.9-25.3c0.1-0.4-0.2-0.9-0.6-1
			c-0.4-0.1-0.9,0.2-1,0.6c-0.2,0.7-4,18.2,1.1,26.6C38.7,45.8,39,45.9,39.3,45.9z"/>
	</g>
	<g>
		<path class="st2" d="M32.4,36.1c0,0,0.1,0,0.1,0c0.4-0.1,0.7-0.5,0.7-0.9c-1.6-10.7,4.9-23.6,4.9-23.7c0.2-0.4,0-0.9-0.3-1.1
			c-0.4-0.2-0.9-0.1-1.1,0.3c-0.3,0.5-6.7,13.4-5.1,24.7C31.7,35.9,32,36.1,32.4,36.1z"/>
	</g>
	<g>
		<path class="st11" d="M8.1,77.4C4,67.5,2,58.4,2.8,49.9c3.3,3.4,7.3,6.5,11.8,9.1c0.3,4.2,1.1,8.9,2.2,13.2
			C19.3,81.3,9.5,80.7,8.1,77.4"/>
	</g>
	<g>
		<path class="st11" d="M93.6,77c-2.5,5.7-7-3.6-3.9-14.1c2.6-1.1,5.1-2.3,7.5-3.7C96.9,67.6,94.8,74.2,93.6,77"/>
	</g>
	<g>
		<path class="st2" d="M15.2,40.6c0.5,0,1-0.4,1-1c0.6-11.2,6.2-21.9,11.7-27.5c0,0.6,0.1,1.2,0.3,1.9c0.1,0.4,0.4,0.7,0.8,0.7
			c0.4,0.1,0.8-0.1,1-0.5C34,8.1,38,5.3,44.4,2.5c0.5,1.4,1.8,3.6,5.3,4.7c0.3,0.1,0.7,0,0.9-0.2c0.3-0.2,0.4-0.5,0.4-0.9
			c0,0-0.1-2.2,0-4c4.2,0.4,15,6.6,17.4,10.1c0.2,0.3,0.6,0.5,0.9,0.5c0.4,0,0.7-0.3,0.8-0.6c0.1-0.1,0.3-0.8,0.4-2
			c8.3,6.8,12,16.5,11.3,29.5c0,0.6,0.4,1.1,1,1.1c0.6,0,1-0.4,1.1-1c0.8-14.7-3.8-25.4-14-32.8c-0.4-0.3-0.8-0.3-1.2,0
			c-0.4,0.3-0.5,0.7-0.4,1.1c0.1,0.4,0.2,0.8,0.2,1.2C64,5,53.8-0.5,49.9,0C49.4,0.1,49,0.5,49,1c-0.1,1.2-0.1,2.6-0.1,3.6
			C46.3,3.2,46.2,1,46.2,1c0-0.3-0.2-0.6-0.5-0.8C45.4,0,45.1,0,44.8,0.1C38.2,2.8,33.9,5.4,30,10.7c0.1-0.5,0.2-0.8,0.2-0.8
			c0.2-0.4,0.1-0.9-0.3-1.2c-0.4-0.3-0.9-0.3-1.3,0c-6.5,5.1-13.7,17.7-14.5,30.8C14.1,40.1,14.6,40.6,15.2,40.6
			C15.2,40.6,15.2,40.6,15.2,40.6z"/>
	</g>
	<g>
		<path class="st2" d="M7.1,77.8c-9.4-23-6.8-39.7,8.5-54.2c1.2-1.1,2.5-2.2,4-3.1c2.6-5,5.8-9.2,9.1-11.8c0.4-0.3,0.9-0.3,1.3,0
			c0.4,0.3,0.5,0.8,0.3,1.2c0,0-0.1,0.3-0.2,0.8c3.9-5.4,8.2-7.9,14.7-10.6C45.1,0,45.4,0,45.7,0.2C46,0.4,46.1,0.7,46.2,1
			c0,0.1,0.2,2.2,2.8,3.6c0-1.1,0-2.5,0.1-3.6c0-0.5,0.4-0.9,0.9-0.9C53.8-0.5,64,5,68.4,9.2c0-0.4-0.1-0.8-0.2-1.2
			c-0.1-0.4,0-0.8,0.4-1.1c0.3-0.3,0.8-0.3,1.2-0.1c5,3.1,9.3,8.4,12,14.8c3.1,2.2,5.6,4.6,7.5,7.4c16.1,22.9,5.3,48.2,5.2,48.4
			c-0.9,1.9-1.9,2.3-2.7,2.3c-0.6,0-1.4-0.2-2.2-1.4c-2-2.7-2.9-9.3-0.8-16.1c1.4-4.5,0.8-9.2-1.5-12.4c-1.1-1.5-3.1-3.4-6.3-3.4
			c-1.8,0-3.6,0.6-5.6,1.7c-4.2,2.4-10.6,5.2-17.9,5.2c-3,0-5.9-0.5-8.5-1.5c-3.2-1.2-5.9-3.1-8.6-4.9c-2.7-1.9-5.3-3.6-8.3-4.7
			c-1.7-0.6-3.4-0.9-5.2-0.9c-5.2,0-9.2,2.6-10.7,7.1c-1.3,3.7-0.9,14.2,1.7,23.4c1,3.5,0.2,5.5-0.6,6.6c-1,1.4-2.7,2.1-4.6,2.1l0,0
			C10.1,80.7,7.9,79.5,7.1,77.8z M32.7,40.4c3.2,1.2,6,3.1,8.8,4.9c2.6,1.8,5.2,3.6,8.2,4.7c2.4,0.9,5,1.4,7.8,1.4
			c6.8,0,13-2.7,16.9-4.9c2.3-1.3,4.5-1.9,6.6-1.9c3.2,0,6,1.5,8,4.2c2.7,3.7,3.4,9.2,1.8,14.3c-2,6.4-0.8,12.3,0.5,14.2
			c0.3,0.4,0.5,0.5,0.6,0.5c0.1,0,0.4-0.2,0.8-1.1c0.1-0.2,10.4-24.4-5-46.3c-1.8-2.6-4.3-5-7.3-7c-0.2-0.1-0.3-0.3-0.4-0.5
			c-2.2-5.3-5.6-9.8-9.5-12.8c0,1.2-0.3,2-0.4,2.1c-0.1,0.4-0.5,0.6-0.8,0.6c-0.4,0-0.7-0.1-0.9-0.5C66.1,8.7,55.3,2.6,51,2.1
			c-0.1,1.9,0,4,0,4c0,0.3-0.1,0.7-0.4,0.9c-0.3,0.2-0.6,0.3-0.9,0.2c-3.4-1.1-4.8-3.3-5.3-4.7C38,5.3,34,8,30.1,14.3
			c-0.2,0.3-0.6,0.5-1,0.5c-0.4-0.1-0.7-0.4-0.8-0.7c-0.2-0.7-0.3-1.3-0.3-1.9c-2.4,2.4-4.7,5.8-6.7,9.6c-0.1,0.2-0.2,0.3-0.4,0.4
			c-1.5,0.9-2.8,2-3.9,3.1C2.2,39.2-0.2,54.7,9,77c0.4,0.9,2,1.6,3.6,1.6l0,0c0.8,0,2.2-0.2,3-1.3c0.8-1,0.9-2.7,0.3-4.8
			c-2.4-8.8-3.2-20.1-1.6-24.7c1.8-5.3,6.6-8.5,12.7-8.5C28.8,39.4,30.8,39.7,32.7,40.4z"/>
	</g>
	<polygon class="st14" points="57.4,134.1 85.4,128.6 89.6,92.3 61.6,97.8 	"/>
	<path class="st2" d="M57.4,135.1c-0.5,0-1-0.4-1-1c0-0.1,0-0.2,0-0.3l4.2-36.1c0-0.4,0.4-0.8,0.8-0.8l27.9-5.5
		c0.3-0.1,0.6,0,0.8,0.2c0.2,0.2,0.3,0.5,0.3,0.8l-4.2,36.3c0,0.4-0.4,0.8-0.8,0.8L57.6,135C57.6,135.1,57.5,135.1,57.4,135.1
		C57.4,135.1,57.4,135.1,57.4,135.1z M88.5,93.5l-26,5.1l-3.9,34.2l26-5.1L88.5,93.5z"/>
	<g>
		<path class="st3" d="M46.5,124.3c-1.5-7.2-1.8-14.1-1.8-14.1c-1.7-7.4-12.1-7.4-11.9-0.5c0.1,4.1,3.3,14.4,6.5,23.2
			c0.8,2.3,3.5,2.7,5.6,2.5c7-0.4,14.7-3.6,19.9-8c1-0.8,1.1-4,0.5-5.5c-0.6-1.8-3.3-3.4-5.1-2.7C57.6,120.2,47.8,123.5,46.5,124.3"
			/>
	</g>
	<g>
		<path class="st2" d="M55.6,133.3c0.1,0,0.2,0,0.2,0c0.3,0,0.5-0.3,0.5-0.5c0-0.3-0.3-0.5-0.5-0.5c-1.7,0-3-0.5-4-1.6
			c-1-1.3-1.3-3.1-1.1-4.2c0.1-0.3-0.1-0.6-0.4-0.6c-0.3-0.1-0.5,0.1-0.6,0.4c-0.3,1.3,0.1,3.5,1.3,5.1
			C51.8,132.2,53.2,133.3,55.6,133.3z"/>
	</g>
	<g>
		<path class="st2" d="M38.4,133.3c-1.5-4.2-6.4-18.3-6.5-23.6c0-1.8,0.5-3.3,1.6-4.4c1.1-1.2,2.7-1.8,4.5-1.8c3,0,6.8,2,7.8,6.4
			c0,0.1,0,0.1,0,0.2c0,0.1,0.3,6.1,1.5,12.6c1.8-0.7,5-1.9,8.9-3.2c1.6-0.6,3-1,3.8-1.3c0.4-0.1,0.8-0.2,1.3-0.2
			c2.1,0,4.5,1.6,5.1,3.6c0.6,1.6,0.7,5.3-0.8,6.6c-5.5,4.7-13.4,7.8-20.5,8.3c-0.3,0-0.5,0-0.8,0C40.3,136.5,38.9,134.8,38.4,133.3
			z M60.6,120.2c-0.8,0.3-2.2,0.8-3.8,1.4c-3.3,1.2-8.9,3.1-9.8,3.6c-0.3,0.2-0.6,0.2-0.9,0.1c-0.3-0.1-0.5-0.4-0.6-0.7
			c-1.4-6.7-1.7-13.3-1.8-14.1c-0.8-3.3-3.5-4.7-5.8-4.7c-1.3,0-2.3,0.4-3.1,1.2c-0.7,0.7-1,1.7-1,2.9c0.1,3.9,3.4,14.4,6.4,22.9
			c0.4,1.2,1.7,1.9,3.8,1.9c0.2,0,0.5,0,0.7,0c6.7-0.4,14.2-3.4,19.4-7.8c0.5-0.4,0.7-2.9,0.2-4.3c-0.4-1.1-2-2.2-3.2-2.2
			C61,120.1,60.8,120.1,60.6,120.2z"/>
	</g>
	<g>
		<path class="st5" d="M57,129.3c-4.1-3.2-5.4-5.1-4.4-8.8c1-3.7,4.6-7.8,7.4-7.2c2.7,0.6,0.1,2.8-0.2,3.2c0.5-0.7,3.4-0.7,4.2-0.6
			c2.1,0.3-0.1,3.2-0.9,4.1c2.3-0.7,3.6-0.1,2.3,1.8c-1.3,1.9,0.5,3.3,0.2,5.6C65.2,129.6,62,133.2,57,129.3"/>
	</g>
	<g>
		<path class="st2" d="M56.3,130.2c-4.1-3.2-5.9-5.5-4.7-9.9c1-3.8,4.6-8,7.8-8c0.3,0,0.5,0,0.8,0.1c1.1,0.2,1.7,0.8,2,1.5
			c0.1,0.4,0.1,0.7,0,1c0.6,0,1.5,0,1.9,0.1c1.1,0.2,1.5,0.9,1.7,1.3c0.3,0.8,0,1.7-0.5,2.5c0.9,0.2,1.3,0.7,1.4,1
			c0.4,0.7,0.2,1.7-0.5,2.7c-0.5,0.7-0.3,1.1,0,2.1c0.2,0.8,0.6,1.8,0.4,3c-0.3,2.2-2.4,4.6-5.4,4.6l0,0
			C59.7,132.1,58,131.4,56.3,130.2z M63.4,121c-0.4,0.1-0.9,0-1.2-0.5c-0.2-0.4-0.2-0.9,0.1-1.3c0.7-0.8,1.4-1.8,1.5-2.3
			c-0.2,0-0.6-0.1-1-0.1c-1.3,0-2.1,0.2-2.2,0.3c0,0,0,0,0.1-0.1l-0.8-0.6l-0.8-0.7l0,0c0,0,0.1-0.1,0.1-0.2
			c0.1-0.1,0.1-0.1,0.2-0.2c0.5-0.5,0.7-0.8,0.8-1.1c-0.1,0-0.2-0.1-0.4-0.1c-0.1,0-0.2,0-0.3,0c-2,0-5,3.3-5.8,6.5
			c-0.8,3.1,0,4.6,4,7.7c1.3,1,2.5,1.5,3.6,1.5l0,0c2.1,0,3.2-1.8,3.3-2.8c0.1-0.7-0.1-1.4-0.3-2c-0.3-1.1-0.8-2.5,0.3-4
			c0.1-0.2,0.2-0.3,0.3-0.4C64.6,120.7,64.1,120.7,63.4,121z"/>
	</g>
</g>
</svg>
