<?xml version="1.0" encoding="utf-8"?>
<!-- Generator: Adobe Illustrator 21.0.2, SVG Export Plug-In . SVG Version: 6.00 Build 0)  -->
<svg version="1.1" id="Layer_1" xmlns="http://www.w3.org/2000/svg" xmlns:xlink="http://www.w3.org/1999/xlink" x="0px" y="0px"
	 viewBox="0 0 103.3 201.8" style="enable-background:new 0 0 103.3 201.8;" xml:space="preserve">
<style type="text/css">
	.st0{fill:#FFFFFF;}
	.st1{fill:#480148;}
	.st2{fill:#FFE2AA;}
	.st3{fill:#3C8013;}
	.st4{fill:#282828;}
	.st5{fill:#602900;}
	.st6{fill:#FFFF66;}
	.st7{fill:#D7FFFF;}
	.st8{fill:#FFFF33;}
	.st9{fill:#AF6641;}
	.st10{fill:#FFC569;}
	.st11{fill:#3A3A3A;}
	.st12{fill:#C8804D;}
	.st13{fill:#FFFA4D;}
	.st14{fill:#FFC931;}
	.st15{opacity:0.5;}
	.st16{fill:#BCEDED;}
	.st17{fill:#BFBF26;}
</style>
<g>
	<g>
		<path class="st0" d="M74.3,103.2c-7-2.5-13.2-5.8-13.2-5.8c-7.3-2.4-12.8,6.8-6.7,10.3c3.6,2,14.2,4.6,23.6,6.4
			c2.5,0.5,4.2-1.7,5.2-3.6c3.4-6.4,4.7-14.9,3.6-21.8c-0.2-1.3-2.9-3-4.5-3.3c-1.9-0.4-4.7,1.1-5.1,3.1
			C76.7,91.4,74.3,101.7,74.3,103.2"/>
	</g>
	<g>
		<path class="st1" d="M81.9,97.7c2.7,0,4.3-1,4.4-1.1c0.2-0.1,0.3-0.4,0.2-0.7c-0.1-0.2-0.4-0.3-0.7-0.2l0,0c0,0-2.7,1.7-6.8,0.5
			c-0.3-0.1-0.5,0.1-0.6,0.3c-0.1,0.3,0.1,0.5,0.3,0.6C79.9,97.6,81,97.7,81.9,97.7z"/>
	</g>
	<g>
		<path class="st1" d="M77.8,115.1c-4.4-0.9-19.3-3.9-23.9-6.5c-2.5-1.4-3.6-3.9-2.9-6.7c0.8-2.9,3.7-5.8,7.8-5.8
			c0.9,0,1.8,0.1,2.7,0.4c0.1,0,0.1,0,0.2,0.1c0.1,0,5.5,2.9,11.9,5.3c0.3-1.9,1-5.4,1.9-9.6c0.4-1.7,0.7-3.2,0.8-4
			c0.5-2.6,4-4.3,6.2-3.8c1.7,0.3,4.9,2.2,5.2,4.1c1.1,7.3-0.3,15.9-3.7,22.4c-1.4,2.7-3.3,4.2-5.3,4.2
			C78.4,115.2,78.1,115.1,77.8,115.1z M78.2,88.6c-0.2,0.9-0.5,2.4-0.9,4.1c-0.8,3.6-2,9.5-2,10.5c0,0.3-0.2,0.6-0.4,0.8
			c-0.3,0.2-0.6,0.2-0.9,0.1c-6.6-2.3-12.5-5.4-13.2-5.8c-0.7-0.2-1.3-0.3-2-0.3c-3.1,0-5.3,2.2-5.9,4.4c-0.5,1.8,0.2,3.5,2,4.4
			c3.5,2,14.3,4.5,23.3,6.3c1.9,0.4,3.3-1.5,4.1-3.1c3.2-6.2,4.6-14.3,3.5-21.2c-0.1-0.7-2.2-2.2-3.7-2.5c-0.1,0-0.3,0-0.4,0
			C80.3,86.3,78.4,87.4,78.2,88.6z"/>
	</g>
	<g>
		<path class="st1" d="M43.8,149.1c-0.4,11.7,4.8,44.8,6.3,47.6c0,0,14.6,0.5,15-1.4c0.4-1.9-2.6-3.1-4.2-4.9
			c-1.6-1.8-2.2-31.2-2-40.5c0-3.3-0.4-7.7-7.4-7.7C44.1,142.2,43.7,146.2,43.8,149.1"/>
	</g>
	<g>
		<path class="st1" d="M50.1,197.9c-0.4,0-0.8-0.3-1-0.6c-1.8-3.2-6.9-36.4-6.5-48.1c-0.1-2,0.1-4.2,1.8-5.9
			c1.5-1.5,3.8-2.3,7.2-2.3c3,0,5.2,0.8,6.6,2.2c1.8,1.8,2.1,4.4,2,6.7c-0.2,11,0.5,37.2,1.7,39.7c0.5,0.5,1.1,1,1.7,1.4
			c1.5,1.2,3.2,2.5,2.8,4.5c-0.3,1.3-1.4,2.4-12.1,2.4C51.9,198,50.1,197.9,50.1,197.9z M62.1,193c-0.7-0.5-1.4-1.1-2-1.8
			c-2.5-2.7-2.3-41-2.3-41.4c0-1.9-0.1-3.7-1.3-4.9c-1-1-2.6-1.5-4.9-1.5c-2.5,0-4.3,0.5-5.3,1.5c-1,1.1-1.1,2.6-1.1,4.2
			c-0.3,11.1,4.3,41.2,5.9,46.3c0.7,0,1.9,0,3.3,0c6.8,0,9-0.5,9.7-0.7C63.7,194.3,62.8,193.6,62.1,193z"/>
	</g>
	<g>
		<path class="st2" d="M60.6,189.7c0.1,0.4,0.2,0.6,0.3,0.7c1.6,1.8,4.6,3,4.2,4.9c-0.4,1.9-15,1.4-15,1.4c-0.2-0.4-0.6-1.6-0.9-3.2
			C51.9,191.2,57.3,189.8,60.6,189.7"/>
	</g>
	<g>
		<path class="st1" d="M53.9,197.1c-0.2,0-0.4-0.2-0.4-0.4c0-0.2,0.2-0.3,0.4-0.4h0.3c0.3,0,0.6,0,0.9,0c-0.1,0-0.2-0.1-0.3-0.3
			c-0.1-0.5-0.3-0.9-0.5-1.3c-0.1-0.2-0.1-0.4,0.1-0.5c0.2-0.1,0.4-0.1,0.5,0.1c0.3,0.4,0.5,0.9,0.6,1.5c0,0.2-0.1,0.4-0.2,0.5
			c0,0,0,0,0,0c0.2,0,0.4,0.2,0.4,0.4c0,0.2-0.2,0.4-0.4,0.4c-0.4,0-0.8,0-1.2,0H53.9z M52.4,197.1c-0.6,0-1.1,0-1.5,0
			c-0.2,0-0.4-0.2-0.4-0.4c0-0.2,0.2-0.4,0.4-0.4c0.4,0,0.9,0,1.5,0c0.2,0,0.4,0.2,0.4,0.4C52.8,196.9,52.6,197.1,52.4,197.1
			C52.4,197.1,52.4,197.1,52.4,197.1z M49.5,196.2c-0.1-0.4-0.3-0.9-0.4-1.5c-0.1-0.2,0.1-0.4,0.3-0.5c0.2-0.1,0.4,0.1,0.5,0.3
			c0.1,0.6,0.3,1.1,0.4,1.4c0.1,0.2,0,0.4-0.2,0.5c0,0-0.1,0-0.1,0C49.7,196.4,49.5,196.3,49.5,196.2z M53.5,193.9
			c-0.4-0.2-0.8-0.4-1.2-0.5c-0.2,0-0.3-0.3-0.3-0.5c0.1-0.2,0.2-0.3,0.5-0.3c0.6,0.1,1.1,0.4,1.5,0.7c0.2,0.1,0.2,0.4,0.1,0.5
			c-0.1,0.1-0.2,0.2-0.3,0.2C53.6,193.9,53.5,193.9,53.5,193.9z M49.1,193.5c-0.1-0.2-0.1-0.4,0.1-0.5c0.2-0.1,0.3-0.2,0.5-0.4
			c0,0,0.1,0,0.2-0.1c0.3-0.1,0.6-0.1,0.9-0.1c0.2,0,0.4,0.2,0.4,0.4c0,0.2-0.2,0.4-0.4,0.4c-0.2,0-0.5,0-0.8,0.1
			c-0.1,0.1-0.3,0.2-0.4,0.3c-0.1,0.1-0.2,0.1-0.2,0.1C49.3,193.6,49.2,193.6,49.1,193.5z"/>
	</g>
	<path class="st1" d="M50.1,197.7c-0.3,0-0.7-0.2-0.8-0.5c-0.2-0.3-0.5-1-1-3.5c-0.1-0.4,0-0.7,0.3-1c2.8-2.4,8.3-3.9,12.1-4
		c0.5,0,0.8,0.3,1,0.7c0.1,0.2,0.1,0.3,0.1,0.3l0,0c0.5,0.5,1.1,1,1.7,1.5c1.5,1.1,3.1,2.4,2.7,4.3c-0.2,0.9-0.5,2.2-11.9,2.2l0,0
		C51.9,197.7,50.1,197.7,50.1,197.7z M62.2,192.8c-0.7-0.5-1.4-1.1-2-1.7c-0.1-0.1-0.2-0.2-0.2-0.4c-3.1,0.2-7.3,1.4-9.7,3.2
		c0.2,0.9,0.4,1.5,0.5,1.9c0.7,0,2,0,3.5,0c7.6,0,9.5-0.6,10-0.9C64.2,194.3,63.4,193.7,62.2,192.8z"/>
	<g>
		<path class="st1" d="M59,193c0.1,0,0.2,0,0.3-0.1l2.2-1.1c0.3-0.1,0.4-0.5,0.2-0.8c-0.1-0.3-0.5-0.4-0.8-0.2l-2.2,1.1
			c-0.3,0.1-0.4,0.5-0.2,0.8C58.6,192.9,58.8,193,59,193z"/>
	</g>
	<g>
		<path class="st1" d="M60.7,194.3c0.1,0,0.2,0,0.2-0.1l2.1-1c0.3-0.1,0.4-0.5,0.3-0.7c-0.1-0.3-0.5-0.4-0.8-0.3l-2.1,1
			c-0.3,0.1-0.4,0.5-0.3,0.7C60.3,194.2,60.5,194.3,60.7,194.3z"/>
	</g>
	<g>
		<path class="st3" d="M41.2,128.8c1.3-2.2,18.7-1.8,18.7-1.8c2.4,7.1,3.5,29.7,2.8,40.3c-1.3,3-0.3,4.3,0.8,7
			c1.1,2.7-0.5,3.4-0.9,5.8c-0.3,2.4,0.5,6.3,1,8.6c0.5,2.2-16.1,8.6-17.3,5c-1.2-3.6,1.1-5,0.2-6.2c-0.8-1.2-1.8-10.9-2-13.2
			C44.3,171.9,39.5,139,41.2,128.8"/>
	</g>
	<g>
		<path class="st1" d="M45.3,194c-0.8-2.4-0.2-4,0.2-5.1c0.1-0.3,0.3-0.7,0.2-0.8c-1.2-1.7-2.1-13.6-2.1-13.7c0-0.4-0.2-1.9-0.5-4.1
			c-1.2-9.9-4.2-33.2-2.8-41.6c0-0.1,0.1-0.2,0.1-0.3c0.4-0.7,1.3-2.3,16.2-2.3c2,0,3.3,0,3.3,0c0.4,0,0.8,0.3,0.9,0.7
			c2.5,7.4,3.5,30.2,2.8,40.6c0,0.1,0,0.2-0.1,0.3c-0.9,2.2-0.5,3.2,0.4,5.1c0.2,0.3,0.3,0.7,0.5,1.1c0.9,2.1,0.3,3.3-0.2,4.5
			c-0.3,0.6-0.5,1.1-0.6,1.9c-0.2,1.7,0.1,4.4,1,8.2c0.1,0.3,0.1,0.9-0.4,1.5c-1.9,2.4-10.9,5.8-15.4,5.8l0,0
			C46.3,195.7,45.5,194.8,45.3,194z M61.6,180c0.1-1,0.5-1.8,0.8-2.4c0.4-1,0.7-1.6,0.2-2.9c-0.2-0.4-0.3-0.7-0.5-1.1
			c-0.9-2.1-1.6-3.7-0.4-6.5c0.6-9.8-0.3-31.4-2.5-39.1c-0.6,0-1.5,0-2.6,0c-10,0-13.7,0.8-14.4,1.3c-1.2,8.4,1.6,31.1,2.8,40.8
			c0.3,2.3,0.5,3.7,0.5,4.2c0.2,3.4,1.2,11.7,1.8,12.7c0.6,0.9,0.3,1.8,0,2.6c-0.3,1-0.7,2-0.1,3.8c0.1,0.2,0.5,0.4,1.6,0.4l0,0
			c4.6,0,13-3.7,13.8-5.1C61.7,184.7,61.3,181.9,61.6,180z"/>
	</g>
	<g>
		<path class="st2" d="M22.6,150.9c-2.3,11.5-2.9,44.9-1.8,47.9c0,0,14.3,3,15.1,1.2c0.7-1.8-2-3.5-3.3-5.5
			c-1.3-2,3.1-31.2,4.9-40.3c0.6-3.2,0.9-7.6-6-8.8C24.1,144.1,23,148,22.6,150.9"/>
	</g>
	<g>
		<path class="st1" d="M19.6,200c-0.4-0.1-0.8-0.4-0.9-0.8c-1.2-3.4-0.6-37.1,1.7-48.5c0.3-1.9,1-6.8,7.4-6.8c0.8,0,1.8,0.1,2.8,0.3
			c2.9,0.5,5,1.6,6.2,3.3c1.5,2.1,1.3,4.7,0.9,7c-2.1,10.8-5.8,36.7-5,39.4c0.4,0.6,0.9,1.1,1.4,1.7c1.3,1.4,2.8,3,2,4.9
			c-0.5,1.2-2,1.4-3.5,1.4C28.2,201.8,19.9,200.1,19.6,200z M32.3,197.2c-0.6-0.6-1.2-1.3-1.7-2.1c-2-3.1,4.6-40.8,4.7-41.2
			c0.3-1.8,0.5-3.7-0.5-5.1c-0.8-1.1-2.3-1.9-4.6-2.3c-0.9-0.2-1.7-0.2-2.4-0.2c-4,0-4.6,2.3-5,4.8c-2.2,10.9-2.7,41.3-2,46.6
			c2.2,0.4,8.3,1.6,11.7,1.6c0.6,0,1,0,1.2-0.1C33.7,198.7,32.9,197.9,32.3,197.2z"/>
	</g>
	<g>
		<path class="st3" d="M59.4,128.8c0,0-26.1-3.4-29.7-3.8c-6,3.9-7.7,19-8.5,26.3c-0.8,7.2-1.7,29.4-2.1,31.7
			c-0.3,2.2,1.1,4.7,0.8,6c-0.3,1.4-3,3.7,0,5.8c3,2,13.3-1.8,15.2-2.1c1.9-0.2,3-1.1,1.6-4.6c-1.2-3.3,2.1-9.1,1.7-15.1
			c0.3-3.6,3.3-23.6,6.1-32.4c0.5,0.4,5.2,0.4,6.8,0.1C54.2,139.9,58.5,136.2,59.4,128.8"/>
	</g>
	<g>
		<path class="st1" d="M22.6,196.3c2.8,0,6.5-1,10.2-2c1.2-0.3,2.1-0.6,2.5-0.7c0.9-0.1,2.1-0.4,2.7-1.4c0.6-1,0.5-2.4-0.3-4.5
			c-0.5-1.4,0-3.6,0.6-6.1c0.6-2.6,1.3-5.6,1.1-8.6c0.3-3.6,3.1-22.1,5.8-31.2c2,0.3,5.6,0.1,6.4-0.1c0.5-0.1,0.9-0.6,0.8-1.1
			c-0.1-0.5-0.6-0.9-1.1-0.8c-1.5,0.3-5.4,0.3-6.1,0c-0.2-0.2-0.5-0.2-0.8-0.1c-0.3,0.1-0.6,0.3-0.7,0.6c-2.8,8.9-5.9,29-6.1,32.6
			c0,0,0,0.1,0,0.1c0.2,2.8-0.5,5.6-1.1,8.1c-0.7,2.8-1.3,5.3-0.6,7.3c0.8,1.9,0.6,2.6,0.5,2.8c-0.1,0.2-0.6,0.4-1.2,0.5
			c-0.5,0.1-1.5,0.3-2.8,0.7c-3.2,0.9-9.9,2.8-11.7,1.5c-1.4-0.9-1.1-1.7-0.2-3.3c0.3-0.5,0.5-1,0.7-1.5c0.2-0.9-0.1-1.9-0.3-2.9
			c-0.3-1.1-0.6-2.2-0.4-3.2c0.2-1,0.4-5.5,0.7-11.3c0.4-7.3,0.9-16.4,1.4-20.5c0.6-5.9,2.3-21.3,7.7-25.4
			c4.7,0.6,29.1,3.7,29.3,3.8c0.5,0.1,1-0.3,1.1-0.8c0.1-0.5-0.3-1-0.8-1.1c-0.3,0-26.1-3.4-29.7-3.8c-0.2,0-0.5,0-0.6,0.2
			c-5.7,3.7-7.7,15.7-8.9,27c-0.5,4.1-1,13.3-1.4,20.6c-0.3,5.4-0.6,10.2-0.7,11.1c-0.2,1.4,0.1,2.8,0.5,4c0.2,0.8,0.4,1.6,0.3,2
			c0,0.2-0.3,0.6-0.5,0.9c-0.7,1.3-2.1,3.8,0.8,5.9C20.2,196.1,21.3,196.3,22.6,196.3z"/>
	</g>
	<g>
		<path class="st4" d="M29.7,125c1.2,0.1,5.2,0.6,9.8,1.2c-3.3,7.7-8.4,12.3-15.6,9.2C25.2,130.8,27,126.7,29.7,125"/>
	</g>
	<g>
		<path class="st5" d="M28.2,137.1c1.2,0,2.4-0.2,3.5-0.7c3.4-1.4,6.3-4.8,8.6-10.1c0.2-0.4,0-0.8-0.4-1c-0.4-0.2-0.8,0-1,0.4
			c-2.1,5-4.7,8.1-7.8,9.3c-2.1,0.8-4.4,0.7-6.9-0.3c-0.4-0.2-0.8,0-1,0.4c-0.2,0.4,0,0.8,0.4,1C25.2,136.8,26.8,137.1,28.2,137.1z"
			/>
	</g>
	<g>
		<path class="st6" d="M58.7,97.5c3.5,12.2,2.4,28.8,1.1,30.7c-1.3,1.9-24.4,4.6-30.9-2.9c1.3-14,8.2-31.3,8.2-31.3
			c0.9-1.5,3.1-2.9,10.7-2.4C55.5,92.1,58.2,94.6,58.7,97.5"/>
	</g>
	<g>
		<path class="st1" d="M55.9,101.7c-0.3,0-0.5-0.1-0.6-0.4l-4.4-7.1l-3.1,5.9c-0.1,0.2-0.3,0.4-0.6,0.4c-0.2,0-0.5,0-0.7-0.2
			l-7.7-7.4c-0.2-0.2-0.3-0.4-0.2-0.7c0.1-0.3,0.2-0.5,0.5-0.6c1.9-0.7,4.8-1,8.8-0.7c6.4,0.4,10.2,2.3,11.3,5.5
			c0.1,0.2,0.1,0.4-0.1,0.6c-1.2,2.1-2.6,4.2-2.6,4.3C56.4,101.5,56.1,101.7,55.9,101.7C55.9,101.7,55.9,101.7,55.9,101.7z
			 M51.8,92.9l4.1,6.6c0.5-0.7,1.1-1.8,1.7-2.9C56.9,94.8,54.9,93.6,51.8,92.9z M47.8,92.4c-3-0.2-5.3-0.1-7,0.3l6.1,5.8l3.1-5.9
			C49.3,92.5,48.5,92.4,47.8,92.4z"/>
	</g>
	<g>
		<path class="st5" d="M27.8,126.3c-0.3-0.3-0.4-0.7-0.3-1.1c1.3-14,8-31,8.3-31.7c0-0.1,0.1-0.1,0.1-0.2c1.5-2.6,5.2-3.6,12-3.1
			c7.4,0.5,11.5,2.8,12.2,7c3.5,12.2,2.5,29.5,0.9,31.9c-1.5,2.2-11.2,2.7-14.5,2.7l0,0C41.3,131.8,32,131.1,27.8,126.3z M57.3,97.9
			c0-0.1,0-0.1,0-0.2c-0.6-3.4-5.5-4.4-9.5-4.7c-5.2-0.3-8.4,0.2-9.3,1.6c-0.6,1.5-6.6,17.3-8,30.2c2.7,2.6,8.5,4,16.1,4
			c6.2,0,11.1-1,12.1-1.6C59.6,125.1,60.6,109.5,57.3,97.9z"/>
	</g>
	<g>
		<path class="st0" d="M63.8,128.7c-0.7-4.4-1.6-19-5.1-31.2c-0.2-1.2-0.8-2.3-1.9-3.3c-0.5,5.6-1.9,17.5-4.5,21.2
			c-2.8-2.3-8.1-18.3-9.7-23.8c-3.6,0.3-4.9,1.3-5.6,2.4c0,0-8.6,18.6-11.4,30.5c-2.5,5.7-10.6,20.4-9.5,22.8
			c7.5,6.7,25.8,6.2,29.2,5.4c1.5-3.4,6.3-14.6,6.3-14.6c1.7,8,0.8,14.6,0.6,15.2c7.6,1,11.1-1,12.2-2
			C65,145.2,63.8,128.7,63.8,128.7"/>
	</g>
	<g>
		<path class="st1" d="M51.6,117c-0.3-0.3-8.6-6.5-11.3-9.6c-2.9-3.3-2.8-13.4-2.8-14.6c0-0.2,0.1-0.5,0.3-0.6
			c1.1-0.7,2.7-1.2,4.8-1.4c0.4,0,0.7,0.2,0.8,0.6c1.8,6.4,6.2,19.2,8.8,22.7c2-4.1,3.3-14.2,3.8-19.9c0-0.3,0.2-0.5,0.5-0.6
			c0.3-0.1,0.6-0.1,0.8,0.1c1.2,1,1.9,2.2,2.2,3.7c0.5,1.9,1.1,4,1.5,6.3c0,0.1,0,0.2,0,0.3c-0.5,2.8-0.7,4.4-0.8,4.9c0,0,0,0,0,0.1
			c-0.8,2.4-4.8,7.7-8,8.2c0,0-0.1,0-0.1,0C51.9,117.2,51.7,117.1,51.6,117z M59.5,103.8c-0.5-2.2-1-4.2-1.5-6.1c0,0,0-0.1,0-0.1
			c-0.1-0.6-0.3-1.1-0.6-1.6c-0.5,4.5-1.7,14.5-3.9,18.9c2.2-1.5,4.6-4.8,5.2-6.5C58.8,108,59.1,106.4,59.5,103.8z M39,93.3
			c0,5,0.7,11.2,2.4,13.1c1.8,2,6.3,5.7,9,7.8c-3.1-5.1-7.2-17.9-8.3-21.7C40.8,92.6,39.8,92.9,39,93.3z"/>
	</g>
	<g>
		<path class="st1" d="M51.8,138.9c0.4,0,0.7-0.3,0.8-0.6c0.6-3,0.6-22.1,0.6-22.9c0-0.4-0.3-0.8-0.8-0.8l0,0
			c-0.4,0-0.8,0.3-0.8,0.8c0,6.8-0.1,20.4-0.6,22.6c-0.1,0.4,0.2,0.8,0.6,0.9C51.7,138.9,51.7,138.9,51.8,138.9z"/>
	</g>
	<g>
		<path class="st1" d="M52.2,154.4c-0.3,0-0.5-0.2-0.7-0.4c-0.2-0.2-0.2-0.5-0.1-0.8c0.2-0.5,0.8-5.3-0.1-11.6
			c-1.5,3.6-4,9.3-5,11.6c-0.1,0.3-0.4,0.5-0.7,0.6c-1.2,0.3-3.9,0.5-6.7,0.5c-5,0-17.3-0.6-23.4-6.1c-0.1-0.1-0.2-0.2-0.2-0.3
			c-0.9-1.9,1.3-7,6.6-17.6c1.1-2.3,2.2-4.5,2.9-6c2.8-11.8,11.4-30.4,11.5-30.6c0,0,0-0.1,0-0.1c1-1.7,3-2.6,6.3-2.9
			c0.5,0,0.9,0.3,1,0.7c1.7,6.2,6,18.5,8.5,22.3c1.9-4.2,3.2-14,3.7-19.5c0-0.4,0.3-0.7,0.6-0.8c0.3-0.1,0.7-0.1,1,0.1
			c1.2,1,2,2.3,2.3,3.8c2.6,9.1,3.8,19.8,4.5,26.2c0.2,2.2,0.4,4,0.6,5.1c0,0,0,0.1,0,0.1c0.1,0.7,1.2,16.7,0.7,22.9
			c0,0.3-0.1,0.5-0.3,0.7c-0.8,0.7-3.4,2.5-8.9,2.5C55,154.7,53.6,154.6,52.2,154.4z M62.8,128.8c-0.2-1.1-0.4-2.9-0.6-5.1
			c-0.7-6.3-1.9-16.9-4.4-25.9c0,0,0-0.1,0-0.1c0-0.3-0.1-0.6-0.2-0.8c-0.5,5.2-1.9,15.5-4.4,19.1c-0.2,0.2-0.4,0.4-0.7,0.4
			c-0.3,0-0.5,0-0.8-0.2c-3.2-2.6-8.3-18.6-9.8-23.5c-3.1,0.4-3.7,1.4-4,1.8c-0.5,1-8.7,18.9-11.3,30.3c0,0.1,0,0.1-0.1,0.2
			c-0.7,1.5-1.7,3.7-2.9,6.1c-2.4,4.9-6.8,13.8-6.6,15.7c5.9,5,18.2,5.4,21.9,5.4c2.6,0,4.6-0.2,5.7-0.3c1.7-3.9,6.1-14.1,6.1-14.1
			c0.2-0.4,0.6-0.6,1-0.6c0.4,0,0.8,0.4,0.9,0.8c1.4,6.6,1,12.2,0.8,14.6c1,0.1,1.9,0.1,2.8,0.1c4.4,0,6.5-1.1,7.3-1.7
			C64,144.8,62.9,129.7,62.8,128.8z"/>
	</g>
	<g>
		<path class="st0" d="M44.3,133c-1.8-0.5-12-2.7-13.3-3.3c-2.1,6.3-3.2,11.9-3.1,12.2c5.1,2.1,12.2,3.3,13,2.8
			C42.5,139.9,44.3,133,44.3,133"/>
	</g>
	<path class="st1" d="M27.5,142.9c-0.3-0.1-0.5-0.4-0.6-0.7c-0.2-0.9,1.4-7.5,3.1-12.7c0.1-0.3,0.3-0.5,0.5-0.6
		c0.2-0.1,0.5-0.1,0.8,0c0.7,0.3,4.8,1.2,7.8,1.9c2.5,0.6,4.6,1.1,5.4,1.3c0.5,0.2,0.8,0.7,0.7,1.2c0,0.1-1.8,7-3.5,11.8
		c-0.1,0.2-0.2,0.3-0.3,0.4c-0.3,0.2-0.7,0.3-1.4,0.3C37.6,145.8,31.8,144.6,27.5,142.9z M43.1,133.7c-1-0.3-2.7-0.6-4.4-1
		c-3.2-0.7-5.7-1.3-7.1-1.7c-1.5,4.8-2.4,8.8-2.7,10.3c4.2,1.6,9.3,2.6,11.1,2.6c0,0,0,0,0.1,0C41.3,140.3,42.6,135.7,43.1,133.7z"
		/>
	<g>
		<path class="st1" d="M42.3,136.9c0.2,0,0.4-0.2,0.5-0.4c0.1-0.3-0.1-0.5-0.4-0.6c-0.1,0-6.7-1.4-8.6-1.9c-0.3-0.1-0.5,0.1-0.6,0.3
			c-0.1,0.3,0.1,0.5,0.3,0.6C35.5,135.5,42,136.8,42.3,136.9C42.3,136.9,42.3,136.9,42.3,136.9z"/>
	</g>
	<g>
		<path class="st0" d="M58.1,133.2c0,0,6.4,0,7.8-1.2c1.6,7.4,1.5,13.4,0.2,13.5c-3.4,0.3-6.6,0.7-6.6,0.7
			C58.3,144,58.1,133.2,58.1,133.2"/>
	</g>
	<g>
		<path class="st1" d="M58.5,146.7c-1.1-2.3-1.4-12.3-1.5-13.4c0-0.3,0.1-0.5,0.3-0.7c0.2-0.2,0.4-0.3,0.7-0.3c0,0,0,0,0,0h0.1
			c3.4,0,6.5-0.4,7.1-0.9c0.3-0.2,0.6-0.3,1-0.2c0.3,0.1,0.6,0.4,0.6,0.7c1.2,5.4,1.8,12.1,0.4,14c-0.4,0.5-0.8,0.7-1.1,0.7
			c-3.4,0.3-6.6,0.7-6.6,0.7c0,0-0.1,0-0.1,0C59,147.2,58.7,147,58.5,146.7z M65.2,133.5c-1.7,0.5-4.2,0.7-6.1,0.7
			c0.1,3.7,0.5,8.9,1,11c1.1-0.1,3.3-0.3,5.6-0.6C66.2,143.7,66.4,139.6,65.2,133.5z"/>
	</g>
	<g>
		<path class="st1" d="M59.1,136.6C59.1,136.6,59.1,136.6,59.1,136.6c6.5-0.5,6.9-1.1,7-1.4c0.1-0.2,0.1-0.5-0.2-0.7
			c-0.2-0.1-0.5-0.1-0.6,0.1c-0.5,0.3-3.6,0.7-6.2,0.9c-0.3,0-0.5,0.3-0.5,0.5C58.6,136.4,58.8,136.6,59.1,136.6z"/>
	</g>
	<g>
		<path class="st7" d="M35.4,112.7l-15.7-3.2c-0.9-0.2-1.7,0.4-1.9,1.3c-0.2,0.9,0.4,1.7,1.3,1.9l15.7,3.2L35.4,112.7z"/>
	</g>
	<g>
		<path class="st8" d="M34.8,115.9l-15.7-3.2c-0.9-0.2-1.5-1-1.3-1.9c0.2-0.9,1-1.5,1.9-1.3l4.3,0.9c0.3,1.2,0.5,2.3,1.8,2.3
			c1.7,0,3.5,0.2,4,0.8c0.4,0.5,3.5,0.6,5.2,1.1L34.8,115.9z"/>
	</g>
	<path class="st1" d="M34.7,116.3L19,113.2c-1.1-0.2-1.9-1.4-1.7-2.5c0.2-1.1,1.3-1.9,2.5-1.7l15.7,3.2c0.1,0,0.2,0.1,0.3,0.2
		c0.1,0.1,0.1,0.2,0.1,0.4l-0.6,3.2C35.2,116.2,35,116.4,34.7,116.3C34.8,116.4,34.7,116.4,34.7,116.3z M19.6,110
		c-0.6-0.1-1.2,0.3-1.3,0.9c-0.1,0.6,0.3,1.2,0.9,1.3l15.2,3.1l0.5-2.2L19.6,110z"/>
	<g>
		<g>
			<path class="st1" d="M35.6,112.7c-0.3-0.1-0.7,0.6-0.9,1.5c-0.2,0.9-0.1,1.7,0.2,1.7c0.3,0.1,0.7-0.6,0.9-1.5
				C36,113.5,35.9,112.8,35.6,112.7"/>
		</g>
		<g>
			<path class="st1" d="M34.9,116.4c-0.7-0.2-0.8-1.3-0.6-2.3c0.1-0.4,0.4-1.9,1.3-1.9c0,0,0.1,0,0.1,0c0.1,0,0.3,0.1,0.5,0.3
				c0.4,0.6,0.2,1.6,0.1,2c-0.1,0.3-0.4,1.9-1.3,1.9C35,116.4,34.9,116.4,34.9,116.4z M35.3,114.3c0,0.2-0.1,0.5-0.1,0.6
				C35.3,114.8,35.3,114.6,35.3,114.3c0.1-0.2,0.2-0.4,0.2-0.6C35.4,113.9,35.3,114.1,35.3,114.3z"/>
		</g>
	</g>
	<g>
		<path class="st2" d="M30.8,103.4c7.7,0.1,10.3-10.3,3.4-11.8c-4.1-0.9-15.7-0.1-25.4,1c-6.3,0.7-9.2,8.6,12.6,17.3
			c-0.2,4.2-3.1,3.1-1.9,4.5c0.6,0.8,5.5,2.7,6.3,1.7c1.4,1.2,5,1.2,5.5-1.4c0.5-2.7,1.9-7.2-2.7-9.3c-3.2-1.1-5.6-2.4-5.6-2.4
			L30.8,103.4z"/>
	</g>
	<path class="st1" d="M25.7,117.2c-0.2,0.1-0.5,0.1-0.8,0.1c-1.8,0-5.4-1.4-6.2-2.4c-0.2-0.3-0.5-0.8-0.4-1.3
		c0.1-0.6,0.6-0.9,0.9-1.1c0.4-0.3,1-0.6,1.2-2C4.7,104.1,2.9,98.7,3.3,96c0.3-2.3,2.4-4,5.4-4.4c7.9-0.9,15.1-1.4,20-1.4
		c2.5,0,4.5,0.1,5.7,0.4c3.2,0.7,5.1,3.3,4.7,6.5c-0.4,3.5-3.4,7.2-8.3,7.2c0,0-0.1,0-0.1,0l-2.3-0.2c0.1,0,0.3,0.1,0.4,0.1
		c0,0,0.1,0,0.1,0c4.9,2.3,3.9,7,3.4,9.8c0,0.2-0.1,0.4-0.1,0.6c-0.4,1.8-1.9,3-4.1,3C27.3,117.8,26.4,117.6,25.7,117.2z
		 M22.5,103.7c-0.4-0.2-0.6-0.7-0.4-1.1c0.1-0.4,0.6-0.7,1-0.7l7.8,0.5c3.7,0,6-2.8,6.3-5.4c0.1-0.9,0.1-3.7-3.2-4.4
		c-1.1-0.2-2.9-0.4-5.3-0.4c-4.7,0-11.9,0.5-19.7,1.4c-2.1,0.2-3.5,1.3-3.7,2.7C4.9,99,9,103.8,21.8,108.9c0.4,0.2,0.6,0.5,0.6,1
		c-0.1,2.5-1.1,3.5-1.9,4c0.9,0.5,3.2,1.4,4.3,1.4c0.1,0,0.2,0,0.2,0c0.2-0.1,0.4-0.2,0.6-0.2c0.3,0,0.5,0.1,0.7,0.2
		c0.4,0.3,1.1,0.5,1.8,0.5c0.6,0,1.9-0.1,2.1-1.4c0-0.2,0.1-0.4,0.1-0.6c0.7-3.2,1-6-2.2-7.6C25,105.1,22.6,103.8,22.5,103.7z"/>
	<g>
		<path class="st5" d="M23,104.3c0.3,0,0.6-0.1,0.8-0.3c0.6-0.5,0.8-1.4,0.3-2c-0.2-0.3-5.3-7.2-12.5-8c-0.8-0.1-1.5,0.5-1.6,1.3
			c-0.1,0.8,0.5,1.5,1.3,1.6c6,0.7,10.5,6.8,10.5,6.8C22.1,104.1,22.5,104.3,23,104.3z"/>
	</g>
	<path class="st0" d="M40.2,97.5c0.6-3.1-1.6-6.7-4.3-7.1c-4-1.2-11.4-1.5-14-1.1c-8.3,0.2-14,1.4-16.7,2.2c-2.7,0.8-4,4.7-3.1,7
		c0.9,2.3,7.3,8.6,12.5,10.5c3.4,1.2,5.3,2.3,4.9,0c-0.4-2.3,4.5-5.8,6.8-4.4c1.3-0.7,7.5,1.8,10.5-1.1
		C38.6,102.3,39.9,99.7,40.2,97.5"/>
	<g>
		<path class="st1" d="M13.9,109.2c0.1,0,0.1,0,0.2,0c0.2-0.1,0.4-0.4,0.3-0.6c-1.5-3.5,2.7-6.5,2.8-6.5c0.2-0.2,0.3-0.5,0.1-0.7
			c-0.2-0.2-0.5-0.3-0.7-0.1c-0.2,0.1-4.9,3.5-3.1,7.7C13.5,109.1,13.7,109.2,13.9,109.2z"/>
	</g>
	<g>
		<path class="st1" d="M24.5,105c0.2,0,0.4-0.1,0.6-0.2c0.4-0.3,0.5-1,0.1-1.4c-0.3-0.3-6.7-8.1-13.7-8.9c-0.5-0.1-1,0.3-1.1,0.9
			c-0.1,0.5,0.3,1,0.9,1.1c6.2,0.7,12.3,8.1,12.4,8.2C23.9,104.9,24.2,105,24.5,105z"/>
	</g>
	<g>
		<path class="st1" d="M18.9,111.3c0.4,0,0.8-0.1,1.1-0.4c0.8-0.6,0.6-1.8,0.5-2.1c-0.1-0.5,0.6-1.7,2-2.6c1.3-0.9,2.6-1.2,3.3-0.8
			c0.3,0.2,0.7,0.2,1,0c0.2-0.1,1.4,0.1,2.2,0.2c2.8,0.4,6.6,0.9,8.6-1.6c0.3-0.4,0.3-1-0.1-1.4c-0.4-0.3-1-0.3-1.4,0.1
			c-1.3,1.6-4.5,1.2-6.8,0.9c-1.2-0.2-2.2-0.3-2.9-0.2c-1.6-0.7-3.6,0-5,1c-1.5,1-3.1,2.8-2.8,4.6c0,0,0,0.1,0,0.1
			c-0.5-0.1-1.4-0.5-2.2-0.7c-0.4-0.2-0.9-0.3-1.4-0.5C10,106.3,3.9,100.2,3,98.2c-0.4-1-0.2-2.5,0.4-3.7c0.5-1,1.3-1.7,2.1-2
			c1.9-0.6,7.4-1.9,16.4-2.1c0,0,0.1,0,0.1,0c2.7-0.4,9.9-0.1,13.6,1c0,0,0.1,0,0.1,0c0.9,0.1,1.8,0.8,2.5,1.8
			c0.9,1.3,1.2,2.8,1,4.2c-0.1,0.5,0.2,1,0.8,1.2c0.5,0.1,1-0.2,1.2-0.8c0.4-1.9-0.1-4-1.3-5.7c-1-1.4-2.3-2.4-3.8-2.6
			c-4.1-1.2-11.5-1.5-14.4-1.1C12.6,88.7,6.9,90,4.9,90.6c-1.4,0.4-2.6,1.5-3.3,3c-0.9,1.7-1,3.8-0.4,5.3c1,2.5,7.5,9,13.1,11
			c0.5,0.2,0.9,0.4,1.4,0.5C17,110.9,18.1,111.3,18.9,111.3z"/>
	</g>
	<g>
		<g>
			<path class="st8" d="M36.7,118.6c3.8,4.1,6.5,11.1,2.3,11.2C35.4,129.9,38.2,123.6,36.7,118.6"/>
		</g>
		<g>
			<path class="st8" d="M38.5,117.1c2.8,0.7,5.6,2.5,4.9,4.2C42.7,123,40.3,118.1,38.5,117.1"/>
		</g>
	</g>
	<g>
		<path class="st9" d="M80.6,55.5c-0.3,1.5-0.6,2.9-0.5,4.4c-0.4-0.2-0.8-0.5-1.2-0.7c3-2,3.7-6.1,6.6-8.3c0.4-0.3,0.9-0.1,1.1,0.3
			c1.4,2.4,1.6,5.4,3.6,7.5c-0.4,0.1-0.9,0.1-1.3,0.2c1-2,0.4-5,2.2-6.7c2.2-2,3.5,1.9,4.3,3.1c-0.4-0.1-0.9-0.1-1.3-0.2
			c1.5-1.3,1.2-4.4,4-3.9c1,0.2,0.6,1.8-0.4,1.6c-0.9-0.2-1.7,2.9-2.4,3.5c-0.4,0.4-1,0.3-1.3-0.2c-0.4-0.6-0.7-1.4-1.1-2
			c-0.8-1.4-1.2,0.1-1.4,1c-0.4,1.5-0.5,3.2-1.2,4.7c-0.2,0.5-0.9,0.5-1.3,0.2c-2.1-2.2-2.4-5.2-3.8-7.8c0.4,0.1,0.7,0.2,1.1,0.3
			c-2.9,2.1-3.5,6.3-6.6,8.3c-0.5,0.4-1.2-0.1-1.2-0.7c-0.1-1.6,0.2-3.2,0.6-4.8C79.3,54,80.9,54.5,80.6,55.5"/>
	</g>
	<g>
		<path class="st2" d="M84.8,71.5c4.5-6.3,14.2-0.8,12.3,7c-1.9,7.8-13.7,11-17.1,5.1"/>
	</g>
	<g>
		<path class="st1" d="M86.1,87.8c0.6,0,1.2,0,1.8-0.1c4.2-0.6,9.2-3.7,10.4-8.9c1.2-5.1-1.8-9-5.1-10.5c-3.5-1.6-7.2-0.6-9.4,2.5
			c-0.4,0.5-0.2,1.3,0.3,1.6s1.3,0.2,1.6-0.3c1.8-2.6,4.6-2.6,6.5-1.7c2.4,1.1,4.7,4,3.8,7.8c-1,4.2-5.1,6.6-8.5,7.1
			c-2.9,0.4-5.3-0.5-6.4-2.4c-0.3-0.6-1-0.7-1.6-0.4c-0.6,0.3-0.7,1-0.4,1.6C80.4,86.5,83,87.8,86.1,87.8z"/>
	</g>
	<g>
		<path class="st2" d="M9,51.1c-0.1-2.1-0.1-4.1,0.1-6c1.5-15.4,11.9-32.5,26.8-38c8.1-3,19.2-3,27.7-1.6
			c21.6,3.4,39.1,24.9,34.4,47.8c-2.8,13.7-6.2,25.3-15.3,34.5c-5.6,5.6-12.8,7.6-21.5,7.9C49.9,96.1,33.9,91.4,25,84.3
			c-4.5-3.6-8.2-8.8-11-14.6C8.4,72.5-0.2,65.4,1.1,57.8C1.8,53.4,5.6,51.1,9,51.1"/>
	</g>
	<g>
		<path class="st10" d="M22.6,70.7c-0.6,2.6,1.1,5.2,3.7,5.8c2.6,0.6,5.2-1.1,5.8-3.7S31,67.6,28.4,67
			C25.8,66.4,23.2,68.1,22.6,70.7"/>
	</g>
	<g>
		<path class="st10" d="M82.3,78.7c2.4,0.5,4,2.8,3.8,5.2c-1,1.3-2.1,2.5-3.3,3.8c-0.2,0.2-0.4,0.3-0.5,0.5c-0.6,0.1-1.3,0.1-2,0
			c-2.6-0.6-4.3-3.2-3.7-5.8S79.7,78.2,82.3,78.7"/>
	</g>
	<g>
		<path class="st1" d="M24.4,85c-4.2-3.4-8-8.2-10.9-14.1c-0.7,0.2-1.4,0.3-2.2,0.3l0,0c-2.9,0-6.1-1.7-8.4-4.3
			c-2.3-2.7-3.3-6.1-2.8-9.3c0.8-4.5,4.4-7.1,7.8-7.5c-0.1-1.8,0-3.5,0.1-5.2C9.6,30.2,19.5,12.1,35.6,6.2
			c4.5-1.7,10.4-2.6,16.9-2.6c3.8,0,7.7,0.3,11.3,0.9c11.4,1.8,21.8,8.4,28.6,18.3c6.4,9.2,8.7,20.1,6.6,30.7
			c-2.5,12.3-5.8,25.2-15.6,35c-5.2,5.2-12.2,7.8-22.2,8.2c-0.5,0-1,0-1.6,0C47.6,96.7,32.8,91.8,24.4,85z M36.2,8
			c-15.3,5.7-24.8,23-26.2,37.2C9.9,47,9.9,49,10,51.1c0,0.3-0.1,0.5-0.3,0.7C9.5,52,9.3,52.1,9,52.1H8.9c-2.9,0-6.2,2-6.9,5.9
			c-0.4,2.6,0.4,5.4,2.4,7.7c1.9,2.2,4.5,3.6,6.9,3.6l0,0c0.8,0,1.6-0.2,2.2-0.5c0.2-0.1,0.5-0.1,0.8,0c0.2,0.1,0.5,0.3,0.6,0.5
			c2.8,6,6.5,10.9,10.7,14.2c8,6.4,22.6,11.2,34.1,11.2c0.5,0,1,0,1.5,0c9.4-0.4,16-2.8,20.9-7.7c8.5-8.5,11.9-18.9,15.1-34
			c2.1-10-0.2-20.4-6.3-29.2C84.3,14.5,74.3,8.1,63.5,6.4c-3.6-0.6-7.4-0.8-11-0.8C46.2,5.6,40.6,6.4,36.2,8z"/>
	</g>
	<g>
		<path class="st5" d="M29.8,65c-0.8,3.5,0,6.6,1.6,6.9c1.7,0.4,3.6-2.1,4.4-5.6c0.8-3.5,0-6.6-1.6-6.9C32.5,59,30.6,61.5,29.8,65"
			/>
	</g>
	<g>
		<path class="st0" d="M34,62.1c-0.1,0.5,0.2,1,0.7,1.1c0.5,0.1,1-0.2,1.1-0.7s-0.2-1-0.7-1.1C34.6,61.3,34.1,61.6,34,62.1"/>
	</g>
	<g>
		<path class="st11" d="M41,60.2c-1.3-3.6-9-11.7-11.1-11.5c-2.5,0.5-3,2.7-3,2.7C29.5,52,40.2,58.9,41,60.2"/>
	</g>
	<g>
		<path class="st11" d="M73.8,68.2c2.5-2.9,12.7-7.6,14.6-6.6c2.2,1.4,1.8,3.6,1.8,3.6C87.5,64.8,75,67.3,73.8,68.2"/>
	</g>
	<g>
		<path class="st1" d="M58.2,86.9c2.4,0,4-0.7,4.6-1.9c0.2-0.4,0-0.8-0.3-0.9c-0.4-0.2-0.8,0-0.9,0.3c-0.4,0.8-2,1.2-4.2,1.1
			c-4-0.3-8.1-2.1-8.5-3.4c-0.1-0.4-0.5-0.6-0.9-0.5c-0.4,0.1-0.6,0.5-0.5,0.9c0.8,2.4,6.3,4.1,9.7,4.4
			C57.6,86.9,57.9,86.9,58.2,86.9z"/>
	</g>
	<g>
		<path class="st12" d="M57.2,86.1c-0.9-3.4-0.4-6.6,2.1-6.8c2.4-0.2,4,3,2.5,5.9C60.6,85.8,59.5,86.4,57.2,86.1"/>
	</g>
	<path class="st1" d="M57.1,86.8c-0.3,0-0.5-0.2-0.6-0.5c-0.7-2.7-0.5-5,0.4-6.4c0.5-0.8,1.3-1.2,2.2-1.3c1.3-0.1,2.5,0.5,3.2,1.7
		c0.9,1.5,0.9,3.5,0,5.2c-0.1,0.1-0.2,0.2-0.3,0.3c-0.9,0.5-1.9,1.1-3.7,1.1l0,0C58,86.9,57.5,86.9,57.1,86.8z M61.1,81
		c-0.2-0.4-0.9-1.1-1.9-1c-0.5,0.1-0.9,0.3-1.2,0.7c-0.6,0.9-0.8,2.7-0.3,4.8c0.2,0,0.4,0,0.6,0l0,0c1.3,0,2.1-0.4,2.8-0.8
		C61.9,83.2,61.6,81.8,61.1,81z"/>
	<g>
		<path class="st5" d="M80.1,81.4c0.1,0,0.1,0,0.2,0c0.4-0.1,0.6-0.5,0.5-0.9c-0.3-1.5-2.9-3.3-5.7-4.5c3.7-0.4,7.2,1.2,7.3,1.2
			c0.4,0.2,0.8,0,1-0.3c0.2-0.4,0-0.8-0.3-0.9c-0.2-0.1-5.6-2.6-10.5-0.7c-0.3,0.1-0.5,0.4-0.5,0.7c0,0.3,0.2,0.6,0.5,0.7
			c3.9,1.2,6.8,3.4,7,4.3C79.5,81.2,79.8,81.4,80.1,81.4z"/>
	</g>
	<g>
		<path class="st13" d="M75.1,43.4c-3.5,10-18,12.6-23.6,10.4c-5.6-2.2,0.1-7.7,0.1-7.7c-7,6-28,11.6-22.6,1.9
			c-10.8,9.8-20.2,6.7-22.7,1C-0.9,32.8,23-9.9,65.1,3.6c6.7,0.7,43.9,10,36.1,54c-2.4,14.6-9,16.9-10.9,1.1
			C88.6,66.3,79.4,61.5,75.1,43.4"/>
	</g>
	<g>
		<path class="st14" d="M46.9,49.2c-8.8,4.5-22.3,6.9-17.8-1.2c-10.8,9.8-20.2,6.7-22.7,1C1.8,38.8,9.6,18.1,26.5,7.5
			C22.4,19.3,31,38,46.9,49.2"/>
	</g>
	<g>
		<path class="st14" d="M90.3,58.6c-1,4.8-5,4.7-9-0.6c6.6-0.8,13.6-3,20.7-6.9c-0.2,2-0.5,4.2-0.9,6.4
			C98.8,72.2,92.2,74.4,90.3,58.6"/>
	</g>
	<g>
		<path class="st14" d="M51.5,53.8c-2-0.8-2.6-2-2.4-3.2c2.3,1.5,4.8,2.8,7.5,3.9C54.6,54.6,52.8,54.3,51.5,53.8"/>
	</g>
	<g>
		<path class="st1" d="M89.8,61.9c-0.7,0.8-1.7,1.2-2.8,1.2l0,0c-3.7,0-8.9-5.3-12.2-16.8c-4,6.7-13,9.3-18.7,9.3
			c-2,0-3.7-0.3-5-0.8c-1.7-0.7-2.7-1.7-3-3.1c-0.1-0.7-0.1-1.4,0.1-2.1c-4.8,2.7-11.4,4.7-15.8,4.7c-2.5,0-4.1-0.6-4.8-1.9
			c-0.3-0.5-0.4-1-0.4-1.6c-4.9,3.7-9,4.5-11.8,4.5c-4.5,0-8.3-2.3-10-5.9c-3.1-6.8-0.8-18,5.5-27.8C15.2,15.1,27.3,0,49.4,0
			c5.2,0,10.5,0.9,16,2.6c5.2,0.6,20.4,4.7,29.8,17.2c7.4,9.8,9.8,22.6,7,37.9c-1.3,8-3.9,12.8-7,12.8
			C92.7,70.5,90.8,67.5,89.8,61.9z M12.7,22.6c-6,9.3-8.2,19.7-5.4,26c1.3,2.9,4.4,4.7,8.2,4.7c2.9,0,7.4-1.1,13-6.1
			c0.4-0.3,0.9-0.3,1.3,0c0.4,0.3,0.5,0.8,0.2,1.2c-0.7,1.3-0.9,2.3-0.6,2.9c0.4,0.6,1.5,1,3.2,1c5.3,0,14.5-3.4,18.5-6.9
			c0.4-0.3,1-0.3,1.4,0.1c0.4,0.4,0.3,1,0,1.4c-0.7,0.7-2.5,2.9-2.2,4.4c0.1,0.7,0.7,1.2,1.8,1.6c1.1,0.4,2.6,0.7,4.3,0.7
			c5.8,0,15.3-2.8,18-10.5c0.1-0.4,0.5-0.7,1-0.7c0.4,0,0.8,0.3,0.9,0.8c3,12.4,8.2,18,10.9,18c1.4,0,2-1.5,2.3-2.7
			c0.1-0.5,0.5-0.8,1-0.8c0.5,0,0.9,0.4,0.9,0.9c1,7.9,2.9,10.1,4,10.1c1.3,0,3.7-3,5-11.2c2.6-14.8,0.4-27-6.7-36.4
			C84.5,9,69.9,5,65,4.5c-0.1,0-0.1,0-0.2,0C59.6,2.8,54.4,2,49.4,2C28.3,2,16.7,16.4,12.7,22.6z"/>
	</g>
	<g>
		<g>
			<path class="st14" d="M95.9,41.3c0.1-2.2-0.2-4.4-0.5-5.6c-0.5-2.3-1.4-4.8-2.7-6.8c-1.4-2.2-4.4-4.7-7.2-3.4
				c-5.2,2.4-5.3,8.3-3.6,13c1.4,3.6,4.5,8.4,8.4,9.6C94.6,49.2,95.8,45.3,95.9,41.3"/>
		</g>
		<g>
			<path class="st14" d="M23.1,22.1c-1.5,1.7-3.1,3.2-4,5.3c-0.1-0.4-0.2-0.7-0.3-1.1c1.9,0.9,4.4-0.4,6.1-1.2
				c1.8-0.8,3.5-1.8,5.4-2.2c0.5-0.1,0.9,0.1,1,0.6c1,3.1-1.8,5-3.5,7.1c-0.2-0.5-0.4-0.9-0.6-1.4c2.7,0.2,11-4.7,11.3,0.8
				c0.1,1.1-1.6,1-1.6,0c-0.1-2.6-8.1,0.9-9.6,0.8c-0.8,0-1-0.8-0.6-1.4c1.3-1.6,3.8-3.2,3.1-5.5c0.3,0.2,0.7,0.4,1,0.6
				c-3.9,0.9-8.7,5.3-12.8,3.2c-0.4-0.2-0.5-0.7-0.3-1.1c1-2.2,2.7-3.8,4.3-5.6C22.7,20.1,23.8,21.3,23.1,22.1"/>
		</g>
		<g>
			<path class="st14" d="M49.8,31.3c-0.2,0.4-0.4,0.9-0.7,1.3c-0.2,0.4-0.8,0.5-1.1,0.3c-0.4-0.2-0.5-0.7-0.3-1.1
				c0.2-0.4,0.4-0.9,0.7-1.3c0.2-0.4,0.8-0.5,1.1-0.3C50,30.4,50,30.9,49.8,31.3"/>
		</g>
		<g>
			<path class="st14" d="M78,32.7c0.4,1.2,0.9,2.4,0.9,3.7c0,0.6-0.7,1.1-1.2,0.7c-0.8-0.6-1.1-1.4-1.6-2.2
				c-0.3-0.4-0.6-1.1-0.6-0.3c0,0.5-0.1,0.9-0.3,1.4c-0.2,0.4-0.5,0.7-1,0.6c-1.1-0.4-1.9-1.1-2.6-2c-0.7-0.7,0.4-1.9,1.2-1.2
				c0.6,0.6,1.1,1.3,1.9,1.5c-0.3,0.2-0.7,0.4-1,0.6c0.4-1,0.1-3.1,1.7-3c0.7,0.1,1.3,0.4,1.7,1c0.5,0.6,0.8,1.7,1.5,2.2
				c-0.4,0.2-0.8,0.5-1.2,0.7c0-1.1-0.5-2.2-0.8-3.3C76.1,32.1,77.7,31.7,78,32.7"/>
		</g>
		<g>
			<path class="st14" d="M55.9,32.3c-0.3,0.5-0.4,1.1-0.5,1.7c-0.1,0.4-0.6,0.7-1,0.6c-0.5-0.1-0.6-0.6-0.6-1c0.1-0.7,0.3-1.4,0.6-2
				C55.1,30.5,56.5,31.3,55.9,32.3"/>
		</g>
	</g>
	<g class="st15">
		<path class="st16" d="M19.5,50.9c-2,10.4-4.8,23.7,17.2,23.9c8.6,0.1,10-6.2,21-4.4c13.1,3.5,8.2,9.8,17.9,11.9
			c7.2,1.4,15.5-2,16.3-17c0.3-3.6-6.6-7.2-32.1-12.2C34.3,48.1,20.3,47.1,19.5,50.9z"/>
	</g>
	<g>
		<path class="st17" d="M60.1,49.9c-28.3-5.4-43.9-6-44.9-0.8c-2.8,14.3-3,28.7,18.7,30c14.9,0.9,14.2-7,22.9-5.5
			c10.1,2.2,7.3,10.2,18,12.6c8,1.5,18.8-1,20.5-21.5C95.8,59.9,88.3,55.3,60.1,49.9 M36.7,74.8c-22-0.3-19.2-13.5-17.2-23.9
			c0.7-3.8,14.8-2.8,40.3,2.2c25.5,5,32.4,8.6,32.1,12.2c-0.8,15-9.1,18.4-16.3,17c-9.6-2.1-4.8-8.4-17.9-11.9
			C46.7,68.7,45.3,75,36.7,74.8"/>
	</g>
	<g>
		<path class="st1" d="M74.6,87.2c-5.8-1.3-7.9-4.2-9.9-6.8c-1.8-2.4-3.5-4.7-8.1-5.8c-0.7-0.1-1.4-0.2-2-0.2
			c-2.3,0-3.8,0.9-5.7,2.1c-2.7,1.6-6,3.7-12.8,3.7c-0.7,0-1.5,0-2.3-0.1c-8.3-0.5-14-2.9-17.4-7.2c-4.9-6.3-3.9-15.6-2.2-23.9
			c0.6-3,4.3-4.4,11.8-4.4c7.5,0,18.8,1.4,34.3,4.4c26.2,5,36.7,9.6,36,15.9c-1.6,18.8-10.6,22.7-17.8,22.7
			C77.2,87.6,75.9,87.5,74.6,87.2z M16.1,49.4c-1.5,7.9-2.5,16.7,1.9,22.3c3,3.9,8.2,6,16,6.5c0.8,0,1.5,0.1,2.2,0.1
			c6.3,0,9.2-1.8,11.8-3.4c2-1.2,3.9-2.4,6.7-2.4c0.7,0,1.5,0.1,2.4,0.2c5.4,1.2,7.4,3.9,9.3,6.5c1.9,2.5,3.6,4.9,8.7,6
			c1.2,0.2,2.4,0.3,3.5,0.3c9.2,0,14.7-7.2,15.9-21c0.5-4.8-10.4-9.2-34.4-13.8C44.5,48,33.4,46.5,26,46.5
			C20,46.5,16.5,47.5,16.1,49.4z"/>
	</g>
	<g>
		<path class="st1" d="M75.5,83c-4.7-1-6.2-3.1-7.7-5.2c-1.7-2.4-3.4-4.9-10.1-6.6c-1.3-0.2-2.5-0.3-3.6-0.3c-3.8,0-6,1.1-8.5,2.3
			c-2.4,1.2-4.8,2.4-8.6,2.4l-0.2,0c-8.1-0.1-13.5-1.9-16.4-5.6c-4.1-5-2.7-12.3-1.5-18.8l0.1-0.4c0.4-1.9,2.9-2.8,8.1-2.8
			c6.6,0,17.4,1.5,33,4.5c27.5,5.4,32.9,9,32.6,12.9c-0.9,16.2-10.1,17.9-14.1,17.9C77.5,83.3,76.5,83.2,75.5,83z M20.2,51l-0.1,0.4
			c-1.2,6.2-2.5,13.2,1.2,17.7c2.7,3.3,7.8,5,15.4,5.1H37c3.5,0,5.7-1.1,8-2.2c2.5-1.2,5-2.5,9.1-2.5c1.2,0,2.5,0.1,3.9,0.3
			c7.2,1.9,9.2,4.7,10.9,7.2c1.4,2,2.7,3.8,6.9,4.7c0.9,0.2,1.9,0.3,2.7,0.3c7.5,0,12.2-6.1,12.8-16.7c0.3-3.6-9.8-7.2-31.6-11.5
			c-15.5-3-26.2-4.5-32.7-4.5C21.4,49.3,20.3,50.4,20.2,51z"/>
	</g>
	<g>
		<path class="st2" d="M83.7,93c5.3-0.1,7.5-0.9,8.9-4.6c1.4-3.7,0.8-9.2-1.9-10.4c-2.7-1.1-1.7,2.2-1.7,2.8c0-0.9-2.4-2.6-3.1-3
			c-1.9-1-1.8,2.6-1.7,3.9c-1.5-2-2.9-2.3-3,0.1c0,2.4-2.4,2.4-3.5,4.4C76.6,88.2,77.2,93.2,83.7,93"/>
	</g>
	<g>
		<path class="st1" d="M77.1,91.1c-1.1-1.9-0.9-4.1-0.2-5.3c0.6-1.1,1.4-1.7,2.1-2.2c0.9-0.7,1.3-1,1.3-1.8c0-2.5,1.4-2.6,1.9-2.6
			c0.3,0,0.7,0.1,1.1,0.3c0.1-0.8,0.3-1.6,0.8-2.1c0.6-0.7,1.5-0.8,2.4-0.3c0,0,0.8,0.5,1.7,1.2c0.1-0.2,0.2-0.5,0.4-0.7
			c0.2-0.3,0.7-0.6,1.4-0.6c0.4,0,0.8,0.1,1.3,0.3c3.2,1.4,4,7.5,2.4,11.6c-1.6,4.3-4.5,5.1-9.8,5.2l-0.3,0
			C79.7,94,77.9,92.4,77.1,91.1z M89.9,80.3c0,0.2,0,0.3,0,0.4c0,0,0,0.1,0,0.1c0,0,0,0,0,0v0l0,0c0,0.5-0.5,0.9-1,0.9c0,0,0,0,0,0
			c-0.5,0-0.9-0.4-1-0.9c-0.2-0.5-1.8-1.8-2.6-2.2c0,0-0.1,0-0.1,0c-0.2,0.4-0.3,1.7-0.2,2.9c0.1,0.4-0.2,0.9-0.6,1
			c-0.4,0.2-0.9,0-1.2-0.3c-0.5-0.7-0.9-1-1.1-1.1c0,0.1-0.1,0.3-0.1,0.6c0,1.9-1.2,2.7-2.1,3.4c-0.6,0.4-1.1,0.8-1.5,1.5
			c-0.4,0.8-0.5,2.3,0.2,3.4c0.8,1.3,2.4,2,4.7,2l0.2,0c5.2-0.1,6.8-0.9,8-4c1.3-3.4,0.6-8.3-1.3-9.1c-0.2-0.1-0.4-0.1-0.5-0.2
			C89.8,79,89.8,79.4,89.9,80.3z"/>
	</g>
</g>
</svg>
