<?xml version="1.0" encoding="utf-8"?>
<!-- Generator: Adobe Illustrator 21.0.2, SVG Export Plug-In . SVG Version: 6.00 Build 0)  -->
<svg version="1.1" id="Layer_1" xmlns="http://www.w3.org/2000/svg" xmlns:xlink="http://www.w3.org/1999/xlink" x="0px" y="0px"
	 viewBox="0 0 94.9 180.9" style="enable-background:new 0 0 94.9 180.9;" xml:space="preserve">
<style type="text/css">
	.st0{fill:#FFBC73;}
	.st1{fill:#602900;}
	.st2{fill:#682B09;}
	.st3{fill:#480148;}
	.st4{fill:#FFFFFF;}
	.st5{fill:#3C8013;}
	.st6{fill:#FFE2AA;}
	.st7{fill:#994F26;}
	.st8{fill:#EFB45E;}
	.st9{fill:#C6F5F7;}
	.st10{fill:#515151;}
	.st11{fill:#FFFF66;}
	.st12{fill:#FFC569;}
	.st13{fill:#FFFF5C;}
	.st14{fill:#FFC931;}
	.st15{fill:#E2A750;}
	.st16{fill:#A87120;}
	.st17{fill:#BC67BC;}
	.st18{fill:#FFFA45;}
</style>
<g>
	<g>
		<path class="st0" d="M38.5,137.3c0.6,9.8,7.5,37.2,9,39.4c0,0,12.3-0.7,12.5-2.3c0.2-1.6-2.4-2.4-3.9-3.8
			c-1.5-1.4-4.3-26.1-4.8-33.9c-0.2-2.8-0.9-6.4-6.9-5.9C38.2,131.4,38.2,134.9,38.5,137.3"/>
	</g>
	<g>
		<path class="st1" d="M47.5,178.2c-0.5,0-0.9-0.2-1.2-0.6c-1.8-2.5-8.7-30.1-9.3-40.1c-0.1-1.1-0.4-3.5,1.1-5.4
			c1.2-1.5,3.2-2.4,6.1-2.6c0.4,0,0.9-0.1,1.3-0.1c6.5,0,7,5.3,7.2,7.2c0.6,9,3.2,30.5,4.5,33c0.4,0.3,0.9,0.7,1.4,1
			c1.4,0.9,3.1,2,2.9,4C61.3,175.6,61.1,177.4,47.5,178.2C47.6,178.2,47.5,178.2,47.5,178.2z M45.5,132.3c-0.3,0-0.7,0-1,0
			c-2,0.2-3.4,0.7-4.1,1.6c-0.7,0.9-0.7,2.1-0.5,3.3c0,0,0,0.1,0,0.1c0.6,9.6,6.7,33.3,8.5,38c3.9-0.3,8.2-0.8,9.9-1.3
			c-0.3-0.3-0.9-0.6-1.2-0.8c-0.6-0.4-1.3-0.8-1.9-1.4c-0.6-0.5-1.4-1.3-3.3-15.4c-1-7.6-1.8-15.7-2.1-19.4
			C49.5,133.8,48.8,132.3,45.5,132.3z"/>
	</g>
	<g>
		<path class="st2" d="M55.8,170c0.1,0.3,0.2,0.5,0.3,0.6c1.5,1.4,4.1,2.1,3.9,3.8c-0.2,1.6-12.5,2.3-12.5,2.3
			c-0.2-0.3-0.6-1.3-1-2.6C48.5,172,53,170.3,55.8,170"/>
	</g>
	<g>
		<path class="st3" d="M47.5,177.9c-0.4,0-0.7-0.2-0.9-0.5c-0.2-0.3-0.5-0.9-1.2-2.9c-0.1-0.4,0-0.9,0.3-1.2c2.2-2.3,6.8-4,10-4.4
			c0.5-0.1,1,0.2,1.2,0.7c0,0.1,0.1,0.2,0.1,0.2c0.4,0.4,1,0.7,1.5,1c1.3,0.8,3,1.9,2.8,3.7C61.1,175.3,60.9,177.1,47.5,177.9
			C47.5,177.9,47.5,177.9,47.5,177.9z M47.8,174.4c0.2,0.5,0.3,0.9,0.4,1.1c4.4-0.3,9.2-0.9,10.6-1.5c-0.3-0.4-1-0.8-1.6-1.2
			c-0.6-0.4-1.3-0.8-1.9-1.3c-0.1-0.1-0.1-0.1-0.2-0.2C52.7,171.7,49.6,173,47.8,174.4z"/>
	</g>
	<g>
		<path class="st4" d="M54.7,173.1c-0.2,0-0.4-0.1-0.6-0.3c-0.2-0.3-0.1-0.7,0.2-0.9l1.7-1.1c0.3-0.2,0.7-0.1,0.9,0.2
			c0.2,0.3,0.1,0.7-0.2,0.9L55,173C54.9,173,54.8,173.1,54.7,173.1z"/>
	</g>
	<g>
		<path class="st4" d="M56.2,174.1c-0.2,0-0.4-0.1-0.6-0.3c-0.2-0.3-0.1-0.7,0.2-0.9l1.7-1c0.3-0.2,0.7-0.1,0.9,0.2
			c0.2,0.3,0.1,0.7-0.2,0.9l-1.7,1C56.4,174,56.3,174.1,56.2,174.1z"/>
	</g>
	<g>
		<path class="st5" d="M34.7,120.4c0.9-2,15.5-3,15.5-3c2.5,5.7,5.2,24.7,5.5,33.6c-0.8,2.6,0.1,3.7,1.2,5.8c1.1,2.2-0.2,2.9-0.3,5
			c-0.1,2.1,0.9,5.3,1.5,7.1c0.6,1.8-12.9,8.5-14.2,5.6c-1.3-2.9,0.5-4.3-0.3-5.2c-0.8-0.9-2.4-9-2.7-11
			C40.7,156.4,34.1,129.1,34.7,120.4"/>
	</g>
	<path class="st3" d="M45.6,176.4c-1.7,0-2.4-0.8-2.7-1.4c-0.9-2.1-0.5-3.6-0.3-4.5c0-0.2,0.1-0.4,0.1-0.5
		c-1.2-1.7-2.9-11.3-2.9-11.4c0-0.3-0.3-1.7-0.7-3.4c-1.8-8.3-6.1-27.6-5.6-34.8c0-0.1,0-0.3,0.1-0.4c0.8-1.7,6.3-2.9,16.5-3.6
		c0.5,0,0.9,0.2,1.1,0.7c2.7,6,5.3,25.2,5.6,34c0,0.1,0,0.3-0.1,0.4c-0.6,1.8-0.2,2.5,0.7,4c0.2,0.3,0.3,0.6,0.5,0.9
		c0.9,1.8,0.5,3,0.2,4c-0.2,0.5-0.3,1-0.3,1.5c-0.1,1.4,0.4,3.6,1.4,6.7c0.1,0.4,0.2,1-0.4,1.7C57.2,172.5,49.4,176.4,45.6,176.4z
		 M45,174c0.1,0,0.2,0.1,0.6,0.1c3.4,0,10.3-3.7,11.3-5.1c-1-3.2-1.5-5.6-1.5-7.2c0-0.9,0.3-1.6,0.5-2.2c0.3-0.8,0.4-1.3-0.1-2.2
		c-0.2-0.3-0.3-0.6-0.5-0.8c-0.9-1.6-1.7-3.1-0.9-5.7c-0.3-9-2.8-26.1-5.1-32.2c-5.8,0.4-12.3,1.4-13.6,2.2
		c-0.3,7.3,4,26.5,5.6,33.8c0.5,2.1,0.7,3.1,0.7,3.5c0.4,2.7,1.9,9.5,2.5,10.4c0.7,0.8,0.4,1.8,0.3,2.5
		C44.7,171.9,44.5,172.7,45,174z"/>
	<g>
		<path class="st6" d="M22.4,138.6c-1.1,9.8,1.1,37.9,2.3,40.4c0,0,12.3,1.4,12.7-0.2c0.5-1.6-2-2.8-3.2-4.4
			c-1.3-1.6,0.2-26.4,0.9-34.2c0.2-2.8,0.2-6.5-5.8-6.9C23.1,132.7,22.5,136.1,22.4,138.6"/>
	</g>
	<g>
		<path class="st1" d="M33.3,180.9L33.3,180.9c-3.8,0-8.6-0.5-8.9-0.6c-0.5-0.1-0.9-0.4-1.2-0.8c-1.3-2.8-3.5-31.2-2.4-41.1
			c0.1-1.7,0.4-6.7,7.2-6.7c0.4,0,0.8,0,1.3,0.1c2.6,0.2,4.5,1,5.7,2.4c1.5,1.8,1.5,4.1,1.4,6.1c-0.9,9-2,30.6-1.2,33.3
			c0.3,0.4,0.8,0.8,1.2,1.2c1.2,1.1,2.8,2.5,2.2,4.4C38.3,180.6,36.4,180.9,33.3,180.9z M25.8,177.6c1.6,0.2,4.9,0.5,7.6,0.5
			c1.2,0,1.9-0.1,2.4-0.1c-0.3-0.3-0.7-0.7-1.1-1c-0.5-0.5-1.2-1-1.7-1.7c-0.5-0.6-1.2-1.5-0.6-15.7c0.3-7.6,0.9-15.8,1.2-19.5
			c0.1-1.5,0.1-3-0.7-3.9c-0.7-0.8-1.9-1.3-3.7-1.4c-0.4,0-0.7,0-1,0c-3.8,0-4.2,1.8-4.3,4c0,0,0,0.1,0,0.1
			C22.8,148.2,24.8,172.7,25.8,177.6z"/>
	</g>
	<g>
		<path class="st7" d="M33.9,173.7c0.1,0.3,0.1,0.5,0.2,0.6c1.3,1.6,3.7,2.8,3.2,4.4c-0.5,1.6-12.7,0.2-12.7,0.2
			c-0.2-0.4-0.4-1.3-0.6-2.8C26.5,174.4,31.1,173.6,33.9,173.7"/>
	</g>
	<g>
		<path class="st3" d="M33.3,180.6c-3.8,0-8.6-0.5-8.8-0.6c-0.4,0-0.7-0.3-0.9-0.7c-0.2-0.3-0.4-1-0.7-3.1c-0.1-0.4,0.1-0.8,0.5-1.1
			c2.6-1.9,7.5-2.8,10.6-2.7c0.5,0,1,0.4,1.1,0.9c0,0.1,0,0.2,0.1,0.2c0.3,0.4,0.8,0.8,1.3,1.3c1.2,1,2.6,2.3,2.1,4.1
			C38.1,180.2,36.7,180.6,33.3,180.6z M25.5,177.9c1.5,0.2,5,0.5,7.8,0.5c1.7,0,2.5-0.1,2.9-0.2c-0.2-0.4-0.9-1-1.4-1.5
			c-0.6-0.5-1.1-1-1.6-1.6c0-0.1-0.1-0.1-0.1-0.2c-2.4,0-5.7,0.7-7.8,1.9C25.4,177.2,25.5,177.6,25.5,177.9z"/>
	</g>
	<g>
		<path class="st4" d="M32.4,176.6c-0.3,0-0.5-0.2-0.6-0.4c-0.1-0.3,0-0.7,0.3-0.9l1.9-0.8c0.3-0.1,0.7,0,0.9,0.3
			c0.1,0.3,0,0.7-0.3,0.9l-1.9,0.8C32.6,176.6,32.5,176.6,32.4,176.6z"/>
	</g>
	<g>
		<path class="st4" d="M33.7,177.8c-0.3,0-0.5-0.2-0.6-0.4c-0.1-0.3,0-0.7,0.4-0.9l1.9-0.7c0.3-0.1,0.7,0,0.9,0.4
			c0.1,0.3,0,0.7-0.4,0.9l-1.9,0.7C33.9,177.8,33.8,177.8,33.7,177.8z"/>
	</g>
	<g>
		<path class="st5" d="M50,119c0,0-22.2-0.8-25.2-0.9c-4.7,3.7-4.9,16.6-5,22.7c-0.1,6.1,0.9,24.9,0.7,26.8c-0.1,1.9,1.3,3.8,1.1,5
			c-0.2,1.2-2.2,3.4,0.4,4.8c2.7,1.5,11.1-2.6,12.6-2.9c1.6-0.3,2.4-1.2,1-4c-1.3-2.7,1.1-7.8,0.2-12.8c-0.1-3.1,0.9-20.1,2.6-27.6
			c0.5,0.3,4.4,0,5.8-0.4C46.5,128.7,49.8,125.3,50,119"/>
	</g>
	<path class="st3" d="M23.6,178.9c-0.8,0-1.6-0.1-2.2-0.5c-2.9-1.6-1.8-4.2-1.3-5.3c0.1-0.3,0.3-0.6,0.3-0.7c0-0.3-0.2-1-0.4-1.5
		c-0.4-1-0.8-2.2-0.7-3.4c0-0.8-0.1-4.9-0.3-9.3c-0.2-6.2-0.5-13.8-0.5-17.4c0.1-9.6,0.9-20,5.5-23.6c0.2-0.2,0.5-0.3,0.7-0.2
		c3,0.1,25,0.9,25.2,0.9c0.6,0,1.1,0.6,1.1,1.2c0,0.6-0.6,1.1-1.2,1.1c-0.2,0-20.5-0.7-24.8-0.8c-4,3.8-4.2,16.7-4.3,21.6
		c-0.1,3.5,0.2,11.1,0.5,17.2c0.2,5.4,0.3,8.7,0.3,9.6c0,0.8,0.3,1.7,0.6,2.5c0.3,0.9,0.6,1.8,0.5,2.6c-0.1,0.5-0.3,0.9-0.5,1.4
		c-0.6,1.4-0.7,1.8,0.3,2.3c1.5,0.9,7.1-1.3,9.5-2.2c1.2-0.5,1.9-0.7,2.4-0.8c0.7-0.2,0.8-0.3,0.8-0.3c0,0,0.2-0.5-0.6-2
		c-0.8-1.7-0.5-3.9-0.1-6.4c0.3-2.1,0.6-4.5,0.3-6.8c0-0.1,0-0.1,0-0.2c-0.1-3,0.9-20.2,2.6-27.9c0.1-0.4,0.3-0.7,0.7-0.8
		c0.3-0.1,0.6-0.1,0.9,0c0.7,0.1,3.8-0.1,5-0.5c0.6-0.2,1.2,0.2,1.4,0.8c0.2,0.6-0.2,1.2-0.8,1.4c-0.4,0.1-3.2,0.7-5.2,0.6
		c-1.5,7.9-2.4,23.2-2.3,26.3c0.4,2.6,0,5.1-0.3,7.4c-0.3,2-0.6,4-0.1,5c0.9,1.7,1.1,3,0.6,4c-0.6,1.2-1.9,1.5-2.4,1.6
		c-0.3,0.1-1.1,0.4-2,0.7C29.4,177.7,26.1,178.9,23.6,178.9z"/>
	<g>
		<path class="st8" d="M44.4,92.9c-5.1-4.8-13.2,0.5-9.6,5.7c3.6,5.2,23.6,19.8,28.2,22.4c5.9,5.9,12.1,5.4,12,1.5
			c-0.1-3.9-2.9-6.3-2.9-6.3c1.4-2.5-2-3.8-4.6-1.6C60.3,110.2,44.4,92.9,44.4,92.9"/>
	</g>
	<g>
		<path class="st1" d="M71.6,126.7c-2.9,0-6.3-1.7-9.3-4.6c-4.8-2.7-24.6-17.1-28.4-22.7c-1.3-1.8-1.5-4-0.5-5.8
			c1.1-2.2,3.7-3.6,6.4-3.6c2,0,3.9,0.8,5.4,2.2c0,0,0,0,0.1,0.1c0.2,0.2,14.9,16.2,22.3,21.1c0.9-0.6,1.9-0.9,2.9-0.9
			c1.2,0,2.3,0.5,2.8,1.4c0.2,0.4,0.5,1.2,0.2,2.2c0.9,1,2.6,3.4,2.7,6.6c0,1.1-0.3,2.1-1,2.8C74.3,126.2,73.1,126.7,71.6,126.7z
			 M39.8,92.2c-1.9,0-3.6,1-4.4,2.4c-0.6,1.1-0.4,2.3,0.4,3.4c3.4,4.9,23,19.4,27.8,22.1c0.1,0.1,0.2,0.1,0.3,0.2
			c2.6,2.6,5.5,4.1,7.8,4.1c0.8,0,1.5-0.2,1.9-0.6c0.3-0.3,0.4-0.7,0.4-1.2c-0.1-3.3-2.5-5.5-2.5-5.5c-0.4-0.4-0.5-0.9-0.3-1.4
			c0.2-0.3,0.2-0.6,0.2-0.7c-0.1-0.1-0.4-0.3-0.8-0.3c-0.7,0-1.5,0.3-2.1,0.9c-0.4,0.3-0.9,0.4-1.4,0.1
			c-7.2-4.5-22.4-20.8-23.4-21.9C42.2,92.5,40.8,92.2,39.8,92.2z"/>
	</g>
	<g>
		<path class="st4" d="M67.4,112.5c0.6,1.8-2,8.3-7,9.4c-4.1-2.2-9-7.2-11-8.6c-2-1.4-13.5-9-15.8-13.7c-2.3-4.6-1.4-7.4,2.1-9
			c3.5-1.6,8.4-0.8,11.5,3.1C50.3,97.6,62.2,109.4,67.4,112.5"/>
	</g>
	<g>
		<path class="st3" d="M60.5,123.1c-0.2,0-0.4,0-0.6-0.1c-2.8-1.5-5.8-4.2-8.3-6.3c-1.2-1-2.2-1.9-2.9-2.4l-0.5-0.3
			c-9-6.2-14.2-10.7-15.7-13.8c-1.4-2.8-1.7-5.1-1-6.9c0.5-1.5,1.8-2.8,3.7-3.6c1.2-0.6,2.7-0.9,4.1-0.9c3.4,0,6.5,1.6,8.7,4.3
			c3.2,4,15.1,15.6,19.9,18.5c0.2,0.1,0.4,0.4,0.5,0.6c0.5,1.5-0.4,3.9-1.3,5.5c-0.9,1.7-3,4.6-6.5,5.4
			C60.7,123,60.6,123.1,60.5,123.1z M39.4,91c-1.1,0-2.2,0.2-3.2,0.7c-1.3,0.6-2.1,1.4-2.5,2.3c-0.4,1.2-0.1,3,0.9,5.1
			c0.9,1.9,4.3,5.6,15,12.9l0.5,0.3c0.7,0.5,1.8,1.4,3.1,2.5c2.2,1.9,5,4.3,7.5,5.8c2.5-0.8,4-3.1,4.6-4.1c0.8-1.5,1.1-2.7,1.1-3.3
			c-5.5-3.5-16.9-14.8-20.1-18.8C44.6,92.3,42,91,39.4,91z"/>
	</g>
	<g>
		<path class="st3" d="M57.3,119.5c-0.3,0-0.5-0.2-0.6-0.5c-0.1-0.3,0.1-0.6,0.4-0.7c2.1-0.4,4.5-3.6,5.2-4.8
			c0.2-0.3,0.5-0.3,0.8-0.2c0.3,0.2,0.3,0.5,0.2,0.8c-0.1,0.2-3,4.7-6,5.3C57.4,119.5,57.4,119.5,57.3,119.5z"/>
	</g>
	<polygon class="st9" points="62.4,125.2 73.2,138.5 92.3,109.3 77.8,101.8 	"/>
	<path class="st3" d="M73.2,139.4c-0.3,0-0.6-0.1-0.7-0.4l-10.8-13.3c-0.3-0.3-0.3-0.8-0.1-1.1L77,101.3c0.3-0.4,0.8-0.5,1.2-0.3
		l14.6,7.5c0.2,0.1,0.4,0.3,0.5,0.6c0.1,0.3,0,0.5-0.1,0.8L74,139C73.8,139.3,73.6,139.4,73.2,139.4
		C73.2,139.4,73.2,139.4,73.2,139.4z M63.6,125.1l9.5,11.7l17.8-27.2l-12.8-6.6L63.6,125.1z"/>
	<g>
		<g>
			
				<rect x="82" y="102.6" transform="matrix(0.4964 -0.8681 0.8681 0.4964 -52.7094 126.3765)" class="st10" width="1.1" height="12"/>
		</g>
		<g>
			
				<rect x="81.2" y="104" transform="matrix(0.4967 -0.8679 0.8679 0.4967 -54.274 126.3138)" class="st10" width="1.1" height="12"/>
		</g>
		<g>
			
				<rect x="80.4" y="105.3" transform="matrix(0.4964 -0.8681 0.8681 0.4964 -55.8302 126.3435)" class="st10" width="1.1" height="12"/>
		</g>
		<g>
			<polygon class="st10" points="79.6,111.7 85.7,115.1 85.1,116.1 79.1,112.6 			"/>
		</g>
	</g>
	<g>
		<path class="st11" d="M32.1,90.8c-5.8,8.6-8.7,21.9-8,23.7c0.7,1.8,19.7,8.7,27,4.4c2.1-11.3,0.3-25.4,0.3-25.4
			c-0.4-1.4-1.9-3-8.6-4.6C36.1,87.4,33.1,88.7,32.1,90.8"/>
	</g>
	<g>
		<path class="st8" d="M51.3,93.6c-0.4-1.3-1.9-3-8.1-4.5c0,0.1,0,0.1,0.1,0.2c2.7,5.8,6,7.5,8.3,7.1C51.4,94.7,51.3,93.6,51.3,93.6
			"/>
	</g>
	<g>
		<path class="st3" d="M50.8,97.6L50.8,97.6c-1.5,0-5.4-0.8-8.6-7.8l-0.1-0.1c-0.2-0.4-0.1-0.9,0.2-1.2c0.3-0.3,0.7-0.5,1.1-0.4
			c5.5,1.4,8.3,3,8.9,5.3c0,0.1,0,0.1,0,0.2c0,0,0.1,1.1,0.3,2.8c0.1,0.6-0.3,1.1-0.9,1.2C51.5,97.6,51.1,97.6,50.8,97.6z M45.4,91
			c2,3.3,3.9,4.1,4.9,4.3c-0.1-0.7-0.1-1.2-0.1-1.4C49.8,92.8,48.2,91.9,45.4,91z"/>
	</g>
	<g>
		<path class="st3" d="M44.5,121.5L44.5,121.5c-8.1,0-20.8-4.2-21.6-6.6c-0.8-2.3,2.3-16,8.1-24.7c1.6-3,5.5-3.9,11.9-2.3
			c5.9,1.4,8.7,3,9.4,5.4c0,0.1,0,0.1,0,0.2c0.1,0.6,1.8,14.4-0.3,25.7c-0.1,0.3-0.3,0.6-0.6,0.8C49.9,121,47.5,121.5,44.5,121.5z
			 M25.1,114.1c1.4,1.3,11.6,5.1,19.4,5.1l0,0c2.3,0,4.1-0.3,5.4-1c1.8-10.4,0.3-23.1,0.2-24.4c-0.5-1.4-3.1-2.6-7.7-3.7
			c-5.1-1.2-8.3-0.8-9.3,1.2c0,0,0,0.1-0.1,0.1C27.5,99.7,24.8,112.1,25.1,114.1z"/>
	</g>
	<g>
		<path class="st4" d="M22.3,114.4c1.6-2.9,4-14.9,9.8-23.5c1.1-2.2,4-3.4,10.6-1.8c1.1,0.3,2,0.5,2.8,0.8c1.5,7.3,2.1,20.6,2,30.4
			c0.1,6.6-0.8,17.3-2.1,18.1C44.2,139,15,133,13.1,124.8c2.4-3.4,5.4-6.7,5.4-6.7c-0.2-1.5,0.9-2.5,2.2-2.5
			C20.7,113.7,22.3,114.4,22.3,114.4"/>
	</g>
	<g>
		<path class="st3" d="M47.6,119c-0.2,0-0.5-0.1-0.6-0.3c-0.2-0.2-0.3-0.4-0.4-0.7c0-0.1,0-0.2,0-0.3c-0.1-4.1-2.8-9.4-4.4-12.5
			c-1.2-2.2-1.5-3-1.4-3.6c0.5-4-1.1-5.9-2.1-7c-0.1-0.1-0.2-0.3-0.3-0.4c-0.2-0.2-1.1-0.5-1.7-0.7c-1.4-0.5-3.3-1.2-4.9-2.4
			c-0.3-0.3-0.4-0.8-0.2-1.2c1.6-2.7,5.5-3.4,11.5-2c1.1,0.3,2,0.5,2.9,0.8c0.3,0.1,0.5,0.4,0.6,0.7c1.5,7.1,2,19.4,2.1,28.5
			c0,0.4-0.2,0.7-0.5,0.8C47.8,119,47.7,119,47.6,119z M42.4,101.8c0.1,0.4,0.7,1.6,1.2,2.6c0.8,1.6,2,3.8,2.9,6.2
			c-0.2-7.2-0.8-15-1.8-20.2c-0.7-0.2-1.4-0.4-2.3-0.6c-4.4-1.1-7.5-0.9-9,0.5c1.2,0.7,2.5,1.2,3.6,1.6c1.2,0.4,2,0.7,2.5,1.3
			c0.1,0.1,0.2,0.2,0.3,0.3C40.9,94.8,42.9,97.1,42.4,101.8z"/>
	</g>
	<g>
		<path class="st3" d="M34,120.3c-5.8,0-11.3-2.2-11.5-2.4c-0.3-0.1-0.4-0.5-0.3-0.7c0.1-0.3,0.5-0.4,0.8-0.3
			c0.1,0,5.9,2.4,11.6,2.3c0.3,0,0.6,0.2,0.6,0.6c0,0.3-0.2,0.6-0.6,0.6C34.3,120.3,34.1,120.3,34,120.3z"/>
	</g>
	<g>
		<path class="st4" d="M43.4,121c-2.1-1.3-9.6-3.1-11.2-3.3c-3.1,5.4-4.2,10.4-4.1,11.1c2.6,1.8,11.5,4,12.9,3.8
			C42.6,127.6,43.4,121,43.4,121"/>
	</g>
	<g>
		<path class="st3" d="M40.8,133.8L40.8,133.8c-2.3,0-10.6-2.1-13.3-4c-0.3-0.2-0.4-0.5-0.5-0.8c-0.1-1,1-6.2,4.3-11.8
			c0.2-0.4,0.7-0.6,1.1-0.6c1.6,0.2,9.4,2,11.7,3.4c0.4,0.2,0.6,0.7,0.5,1.1c0,0.3-0.8,6.7-2.4,11.8c-0.1,0.4-0.5,0.7-0.9,0.8
			C41.1,133.8,40.9,133.8,40.8,133.8z M29.3,128.2c2.5,1.4,8.5,2.9,10.9,3.2c1.1-3.7,1.7-8,2-9.8c-2.2-1-7.2-2.3-9.3-2.7
			C30.5,123.1,29.5,126.8,29.3,128.2z"/>
	</g>
	<g>
		<path class="st3" d="M42.9,124.7c-0.1,0-0.1,0-0.2,0c-2.2-0.8-8.3-2.9-9.4-3c-0.3,0-0.5-0.3-0.5-0.7c0-0.3,0.3-0.5,0.7-0.5
			c1.5,0.2,9.3,3,9.7,3.1c0.3,0.1,0.5,0.4,0.4,0.7C43.4,124.6,43.2,124.7,42.9,124.7z"/>
	</g>
	<g>
		<path class="st3" d="M36.4,119C36.4,119,36.4,119,36.4,119c-6.6-0.5-14.1-4-14.4-4.1c-0.3-0.1-0.4-0.5-0.3-0.8
			c0.1-0.3,0.5-0.4,0.8-0.3c0.1,0,7.6,3.6,14,4c0.3,0,0.6,0.3,0.5,0.6C37,118.8,36.7,119,36.4,119z"/>
	</g>
	<g>
		<path class="st3" d="M45,139.5c-3.8,0-31-5.7-33-14.5c-0.1-0.3,0-0.7,0.2-0.9c2-2.8,4.3-5.5,5.2-6.5c0-0.8,0.3-1.5,0.8-2.1
			c0.4-0.5,0.9-0.8,1.5-1c0.3-1,1.2-1.4,1.9-1.5c0.4-1,0.9-2.5,1.4-4.2c1.6-5,4-12.6,8-18.6c1.6-3,5.5-3.9,11.9-2.3
			c1.1,0.3,2,0.5,2.9,0.8c0.4,0.1,0.7,0.5,0.8,0.9c1.6,7.7,2.1,21.3,2.1,30.6c0,0.2,0,17.5-2.6,19.1C45.8,139.4,45.5,139.5,45,139.5
			z M14.4,125c2.5,6.5,26.1,12.1,30.5,12.2c0.8-1.8,1.7-10.1,1.6-17c0-9.6-0.5-22.3-1.9-29.5c-0.6-0.2-1.3-0.4-2.1-0.5
			c-5.1-1.2-8.3-0.8-9.3,1.2c0,0,0,0.1-0.1,0.1c-3.8,5.7-6.2,13.2-7.8,18.1c-0.8,2.5-1.4,4.3-1.9,5.3c-0.3,0.5-0.9,0.7-1.4,0.5
			c0,0,0,0.1,0,0.1c0,0.6-0.5,1.2-1.2,1.2c-0.3,0-0.6,0.1-0.8,0.3c-0.2,0.2-0.3,0.5-0.2,0.8c0,0.3-0.1,0.7-0.3,0.9
			C19.3,118.8,16.7,121.9,14.4,125z"/>
	</g>
	<g>
		<path class="st6" d="M83.7,71.2c0.8-3.8,1.5-7.8,2.4-11.4c3.5-13.7,3.8-29.1-7.2-38.5C73,16.2,64,12,56.3,10.5
			C36.8,6.7,12.7,19.3,9.6,40.3c-1.9,12.5-1.2,24.5,4.8,34.2c3.7,6.1,10.5,10.2,17.8,13.2c9.6,3.9,28.9,6,38.8,2.6
			c4.5-1.5,7.3-4.6,9.3-8.5C85,81.6,85.5,76.7,83.7,71.2"/>
	</g>
	<g>
		<path class="st3" d="M58,93.3L58,93.3c-9.3,0-19.8-1.8-26.2-4.4c-9-3.7-15-8.2-18.4-13.7c-5.5-8.9-7.1-20.4-4.9-35
			C11.4,20.5,31.4,8.7,49.1,8.7c2.5,0,5,0.2,7.4,0.7c8,1.6,17.1,5.9,23.2,11.1c9.5,8.1,12.2,21.8,7.6,39.7c-0.6,2.2-1,4.5-1.5,6.9
			c-0.3,1.4-0.6,2.8-0.9,4.1c1.3,4.1,1.2,7.5-0.2,9.6c-0.8,1.2-2.1,2-3.7,2.2c-2.3,4.3-5.5,7.1-9.7,8.6C68,92.7,63.4,93.3,58,93.3z
			 M49.1,11C32.4,11,13.5,22,10.7,40.5c-2.1,14.1-0.6,25,4.6,33.5c3.1,5.1,8.8,9.3,17.3,12.8C38.8,89.3,49,91,58,91h0
			c5.1,0,9.5-0.6,12.6-1.6c3.7-1.3,6.6-3.9,8.6-8c0.2-0.4,0.5-0.6,1-0.6c1.2-0.1,2.1-0.5,2.6-1.3c1-1.5,1-4.4-0.2-7.9
			c-0.1-0.2-0.1-0.4,0-0.6c0.3-1.5,0.6-2.9,0.9-4.4c0.5-2.3,1-4.8,1.5-7c3-11.8,4.3-27.9-6.9-37.4c-5.8-4.9-14.4-9-22.1-10.6
			C53.8,11.2,51.5,11,49.1,11z"/>
	</g>
	<g>
		<path class="st12" d="M59.9,77.3c-0.3,2.4-2.5,4.1-5,3.8c-2.4-0.3-4.1-2.5-3.8-5c0.3-2.4,2.6-4.1,5-3.8S60.2,74.8,59.9,77.3"/>
	</g>
	<g>
		<path class="st1" d="M63.7,71.3c-0.4,3.2-2,5.6-3.6,5.4c-1.5-0.2-2.4-3-2-6.2c0.4-3.2,2-5.6,3.6-5.4
			C63.2,65.3,64.1,68.1,63.7,71.3"/>
	</g>
	<g>
		<path class="st4" d="M63.3,67.8c-0.1,0.5-0.5,0.8-1,0.7c-0.5-0.1-0.8-0.5-0.7-1s0.5-0.8,1-0.7C63.1,66.9,63.4,67.3,63.3,67.8"/>
	</g>
	<g>
		<path class="st3" d="M72.7,90.1c-5.6,0-7.5-3.7-7.6-3.9c-0.3-0.6,0-1.3,0.5-1.5c0.6-0.3,1.2,0,1.5,0.5c0.1,0.2,1.7,3.2,7.1,2.5
			c0.6-0.1,1.2,0.4,1.3,1c0.1,0.6-0.4,1.2-1,1.3C73.9,90,73.2,90.1,72.7,90.1z"/>
	</g>
	<g>
		<path class="st3" d="M64.8,59.9c-1.2-1.2-3.4-1.2-5.5,0C59.8,57.9,63.5,56.6,64.8,59.9"/>
	</g>
	<g>
		<path class="st13" d="M93.5,39.3c0.9,3.8,0.3,8.6-0.6,12.5c-0.5,2.4-3.4,9.1-7.2,6c-4.1-3.3-1.4-11.9-1.4-11.9
			c-2.7,8.6-11.1,12.3-10.3,1.5c-3.3,7.3-22.2,19.1-21.6,5.9c-3.1,15.9-9,13.4-11.4,8.6c-1,7.4-0.2,27.4-11.1,27
			c-10.9-0.5-18-11.3-20.3-16C8.2,76.4,3.9,77.3,4.9,60c-3.2,2.8-7.2-4.5,1.5-24.1c-4.2-1.4-6.9-12.1,12.7-21.7
			c-1.4-4.1,2.5-9.8,6.3-3.8c6.6-8.4,25.4-11,32.4-8.1c6.2,2.6,0.6,5.4,0.6,5.4c8.8-0.2,26.1,0.8,30.1,6.5c4,5.7-5.1,7.3-5.1,7.3
			c3.6,2,6.8,6.6,8.1,10.3C92.5,34.5,92.9,36.4,93.5,39.3"/>
	</g>
	<g>
		<path class="st14" d="M65.7,16.5c3.2-0.3,7.1,1.6,9.3,3.3c1.6,1.3,4.4,3.9,3.6,6.2c-0.7,1.9-3.4,2.2-5.1,2.3
			c-3.9,0.3-8.6-0.4-10.8-3.9c-1.5-2.4-2.2-5.8,0.8-7.3C64.3,16.8,65,16.6,65.7,16.5"/>
	</g>
	<g>
		<path class="st15" d="M57.5,24.9c0.6,1.5,1.3,3.1,1.5,4.7c0.1,0.7-0.5,1.2-1.1,0.9c-1.4-0.7-2.4-2-3.8-2.5
			c0.3-0.1,0.6-0.2,0.9-0.3c-0.8,1.3-1,2.9-2,4c-1.3,1.4-3.3,0.1-4.5-0.7c0.3-0.1,0.7-0.2,1.1-0.3c-1,1.5-1.6,3.1-3.6,3.3
			c-1,0.1-1-1.4,0-1.5c1.2-0.1,1.7-1.6,2.3-2.5c0.2-0.3,0.7-0.5,1.1-0.3c1,0.7,2.2,1.8,3,0.4c0.5-1,0.8-2.1,1.4-3.1
			c0.2-0.3,0.6-0.5,0.9-0.4c1.6,0.6,2.7,1.9,4.2,2.7c-0.4,0.3-0.8,0.6-1.1,0.9c-0.2-1.7-0.9-3.2-1.5-4.7
			C55.6,24.4,57.1,24,57.5,24.9"/>
	</g>
	<g>
		<path class="st15" d="M40.4,32.2c0,0.5,0,1.1-0.2,1.6c-0.1,0.4-0.5,0.6-0.9,0.5c-0.4-0.1-0.7-0.5-0.5-0.9c0.1-0.4,0.1-0.8,0.1-1.2
			c0-0.4,0.4-0.8,0.8-0.8S40.4,31.8,40.4,32.2"/>
	</g>
	<g>
		<path class="st15" d="M37.8,33.1c-0.3,0.4-0.5,0.9-0.8,1.4c-0.2,0.3-0.7,0.5-1.1,0.3c-0.3-0.2-0.5-0.7-0.3-1
			c0.3-0.4,0.5-0.9,0.8-1.4c0.2-0.3,0.7-0.5,1.1-0.3C37.9,32.2,38.1,32.7,37.8,33.1"/>
	</g>
	<g>
		<path class="st15" d="M30.1,32.4c-0.5,1.3-1.1,2.6-1.9,3.8c-0.2,0.3-0.7,0.5-1.1,0.3c-0.7-0.5-2.3-3.5-3.1-2.7
			c-1.1,1.1-1.2,2.7-2.6,3.6c-0.4,0.2-1,0-1.1-0.5c-0.2-0.7-0.2-1.6-0.7-2.2c-0.5-0.7-1.5,0-2.1,0.1c-1.1,0.2-1.9-0.5-2.3-1.4
			c-0.5-0.9,0.9-1.6,1.3-0.8c0.7,1.2,2.2-0.1,3.4,0.5c1.4,0.7,1.6,2,1.9,3.4c-0.4-0.2-0.8-0.3-1.1-0.5c1.4-0.9,1.4-3.5,3.2-4
			c2.2-0.5,2.7,2,4,3.1c-0.3,0.1-0.7,0.2-1.1,0.3c0.7-1.1,1.3-2.3,1.8-3.5C28.9,31.1,30.4,31.5,30.1,32.4"/>
	</g>
	<g>
		<path class="st14" d="M40.2,60.3c3.8-0.5,7.5-1.3,11-2.3c-3.2,10.4-8.1,8-10.2,3.7c-1,7.4-0.2,27.4-11.1,27
			c-10.9-0.5-18-11.3-20.3-16C8.2,76.4,3.9,77.3,4.9,60c-1.6,1.4-3.4,0.3-3.7-3.4C12.4,60.7,26,62.3,40.2,60.3"/>
	</g>
	<g>
		<path class="st14" d="M90.9,30.2c0.2,0.5,0.4,1,0.6,1.5c1,2.7,1.3,4.6,2,7.5c0.9,3.8,0.3,8.6-0.6,12.5c-0.5,2.4-3.4,9.1-7.2,6
			c-4.1-3.3-1.4-11.9-1.4-11.9c-2.6,8.5-10.9,12.2-10.3,2C81.4,42.9,87.2,36.8,90.9,30.2"/>
	</g>
	<g>
		<path class="st16" d="M53.3,57.4c7.6-2.3,14.5-5.5,20.4-9.4C70.2,54.3,56.8,62.9,53.3,57.4"/>
	</g>
	<g>
		<path class="st3" d="M30.3,89.9c-0.1,0-0.3,0-0.4,0C19.1,89.4,12.1,79.3,9.6,75C9,75.7,8.3,76,7.5,76l0,0c-0.5,0-1.2-0.2-1.8-0.9
			c-1.6-1.7-2.3-6.3-2-13.5c0,0-0.1,0-0.1,0c-1,0-1.8-0.5-2.5-1.5c-1.9-2.9-1.9-10.7,3.8-23.8c-1.5-1-2.5-2.8-2.6-5
			C2.1,28.5,3.2,21,17.8,13.6c-0.3-1.8,0.1-3.8,1.1-5.2c0.8-1.1,1.9-1.8,3.1-1.8c0.9,0,2.2,0.4,3.5,1.9C31,2.9,41.9,0,50.3,0
			c3.3,0,6,0.4,8,1.3c2.4,1,3.5,2.2,3.6,3.7c0,0.6-0.2,1.2-0.4,1.6c6.3,0,23.6,0.8,28,7c1.2,1.7,1.5,3.3,1,4.8
			c-0.7,1.8-2.6,2.9-4.2,3.5c0.6,0.6,1.3,1.2,1.7,1.6c1.1,1.1,2,2.4,2.9,4c1.6,3,2.8,6.5,3.5,10.2c0.2,0.9,0.3,1.9,0.4,2.9
			c0.4,3.8,0.2,7.6-0.6,11.3c-0.4,1.6-2.5,7.7-6.4,7.7c-0.9,0-1.8-0.4-2.7-1c-2-1.6-2.6-4.2-2.7-6.7c-1.6,1.9-3.5,3.1-5.3,3.1l0,0
			c-1,0-1.9-0.4-2.6-1.2c-0.7-0.7-1.1-1.7-1.3-3c-3.8,4.6-11.1,9.4-16.1,9.4c-1.7,0-3-0.5-4-1.5c-0.2-0.2-0.3-0.4-0.5-0.6
			c-2.1,6.8-4.8,8.4-6.9,8.4c-1.3,0-2.5-0.6-3.5-1.6c0,0.5-0.1,1-0.1,1.5C41.1,75.7,40.1,89.9,30.3,89.9L30.3,89.9z M9.7,71.5
			c0.4,0,0.8,0.3,1,0.6c0.7,1.5,7.6,14.9,19.3,15.4c0.1,0,0.2,0,0.3,0l0,0c7.7,0,8.6-12.9,9.2-21.4c0.1-1.8,0.2-3.4,0.4-4.6
			c0.1-0.5,0.5-0.9,1-1c0.5-0.1,1,0.2,1.2,0.6c0.9,1.8,2.2,3,3.4,3c0.9,0,3.8-0.8,5.9-11.3c0.1-0.6,0.7-1,1.3-0.9
			c0.6,0.1,1,0.6,1,1.2c-0.1,1.9,0.2,3.2,1,4c0.5,0.5,1.3,0.8,2.3,0.8C62.1,58,71,51.3,73,46.8c0.2-0.5,0.8-0.8,1.3-0.6
			c0.5,0.1,0.9,0.6,0.9,1.2c-0.2,3.3,0.4,4.5,0.9,5c0.3,0.3,0.6,0.4,1,0.4l0,0c1.7,0,4.7-2.6,6.2-7.4c0,0,0,0,0,0l0,0
			c0.2-0.6,0.8-0.9,1.4-0.8c0.6,0.2,0.9,0.8,0.8,1.4c-0.7,2.2-1.8,8.4,1,10.7c0.4,0.4,0.9,0.5,1.2,0.5c1.8,0,3.7-3.9,4.1-5.9
			c0.8-3.5,1-7.1,0.6-10.6c-0.1-0.9-0.2-1.8-0.4-2.7c-0.6-3.4-1.8-6.7-3.3-9.5c-0.8-1.4-1.6-2.6-2.5-3.5c-0.7-0.7-2.3-2.2-2.9-2.5
			c-0.5,0-0.9-0.4-1-0.9c-0.1-0.5,0.1-1,0.6-1.3c0.1-0.1,0.3-0.1,0.5-0.1c1.5-0.3,4.3-1.3,4.9-2.8c0.3-0.7,0.1-1.6-0.7-2.7
			c-3.1-4.4-16.4-6-26.8-6c-0.8,0-1.5,0-2.2,0c-0.5,0-1-0.3-1.1-0.9c-0.1-0.5,0.1-1.1,0.6-1.3c0.7-0.4,1.7-1.2,1.7-1.7
			c0-0.3-0.6-1-2.2-1.7c-1.6-0.7-4.1-1.1-7.1-1.1c-8.5,0-19.4,3-24,8.8c-0.2,0.3-0.6,0.5-1,0.4c-0.4,0-0.7-0.2-0.9-0.5
			C23.6,9.7,22.7,9,22,9c-0.6,0-1,0.4-1.2,0.8c-0.8,1.1-1,2.8-0.5,4.1c0.2,0.5-0.1,1.1-0.6,1.4C5.1,22.4,4.4,29.3,4.6,31.3
			c0.1,2,1.2,3.2,2.2,3.5c0.3,0.1,0.6,0.3,0.7,0.6c0.1,0.3,0.1,0.6,0,0.9C1.3,50.1,1.8,57,3.1,59c0.1,0.2,0.3,0.4,0.5,0.4
			c0.2,0,0.4-0.1,0.6-0.3c0.4-0.3,0.8-0.4,1.3-0.2c0.4,0.2,0.7,0.6,0.6,1.1C5.3,72.6,7.5,73.7,7.5,73.7c0.2,0,0.7-0.4,1.2-1.5
			C8.8,71.8,9.2,71.6,9.7,71.5C9.7,71.5,9.7,71.5,9.7,71.5z"/>
	</g>
	<g>
		<path class="st6" d="M42.1,64.5c-1.9-6.8-11.9-5.1-12.7,2.2c-0.8,7.3,8.3,13.6,13,9.6"/>
	</g>
	<g>
		<path class="st3" d="M38.9,78.7c-1.4,0-3-0.4-4.5-1.2c-3.4-1.8-6.8-6-6.2-10.9c0.5-4.8,4.4-7.2,7.7-7.5c3.5-0.3,6.4,1.8,7.3,5.1
			c0.2,0.6-0.2,1.2-0.8,1.4c-0.6,0.2-1.2-0.2-1.4-0.8c-0.7-2.8-3-3.6-4.9-3.4c-2.4,0.2-5.2,2-5.6,5.4c-0.4,3.8,2.3,7.2,5,8.7
			c2.3,1.3,4.6,1.3,6.2,0c0.5-0.4,1.2-0.3,1.6,0.1c0.4,0.5,0.3,1.2-0.2,1.6C42,78.2,40.5,78.7,38.9,78.7z"/>
	</g>
	<g>
		<path class="st17" d="M60.5,96.1c-1.2-1.1-3-1-4.1,0.2c-1.1,1.2-1,3,0.2,4.1l12.8,11.4l3.7-0.6l0.2-3.7L60.5,96.1L60.5,96.1z"/>
	</g>
	<g>
		<path class="st4" d="M58.2,102.4c-0.1,0-0.2,0-0.3-0.1c-0.2-0.1-0.3-0.4-0.2-0.6c0.2-1,0.8-2,1.5-2.9c0.8-0.9,1.7-1.5,2.7-1.9
			c0.1,0,0.3,0,0.4,0c0.3,0.1,0.4,0.5,0.3,0.7c-0.1,0.2-0.2,0.3-0.4,0.3c-0.8,0.3-1.5,0.8-2.2,1.5c-0.6,0.7-1.1,1.5-1.3,2.3
			c0,0.1,0,0.2-0.1,0.3C58.5,102.3,58.3,102.4,58.2,102.4z"/>
	</g>
	<path class="st3" d="M69.4,112.4c-0.1,0-0.3-0.1-0.4-0.1l-12.8-11.4c-1.4-1.3-1.6-3.5-0.3-4.9c0.7-0.7,1.6-1.2,2.6-1.2
		c0.8,0,1.6,0.3,2.3,0.8c0,0,0.1,0,0.1,0.1l12.8,11.4c0.1,0.1,0.2,0.3,0.2,0.5l-0.2,3.7c0,0.3-0.2,0.5-0.5,0.5L69.4,112.4
		C69.5,112.4,69.5,112.4,69.4,112.4z M58.6,96c-0.7,0-1.3,0.3-1.7,0.8c-0.9,1-0.8,2.4,0.2,3.3l12.6,11.2l3-0.5l0.1-3L60.2,96.6
		c0,0-0.1,0-0.1-0.1C59.7,96.2,59.1,96,58.6,96z"/>
	<g>
		<path class="st18" d="M65.1,102.5c0.5,0.4,0.5,1.1,0.1,1.6c-0.4,0.5-1.1,0.5-1.6,0.1l-5.3-4.7c-0.5-0.4-0.5-1.1-0.1-1.6
			c0.4-0.5,1.1-0.5,1.6-0.1L65.1,102.5z"/>
	</g>
	<g>
		<path class="st3" d="M64.3,105c-0.4,0-0.8-0.2-1.1-0.4l-5.3-4.7c-0.7-0.6-0.8-1.7-0.1-2.4c0.6-0.7,1.7-0.7,2.4-0.1l5.3,4.7
			c0.3,0.3,0.5,0.7,0.6,1.2c0,0.5-0.1,0.9-0.4,1.2C65.3,104.8,64.8,105,64.3,105z M59.1,98.1c-0.2,0-0.3,0.1-0.4,0.2
			c-0.2,0.2-0.2,0.6,0,0.8l5.3,4.7c0.2,0.2,0.6,0.2,0.8,0c0.1-0.1,0.2-0.3,0.1-0.4c0-0.2-0.1-0.3-0.2-0.4l-5.3-4.7
			C59.3,98.1,59.2,98.1,59.1,98.1z"/>
	</g>
	<g>
		<path class="st4" d="M45.6,109.1c-0.9-6.2-1.9-11.8-1.9-11.8c-1.1-6.4-10-7-10.3-1.1c-0.1,3.5,2,12.4,4.3,20.2
			c0.6,2,2.9,2.5,4.7,2.5c6.1,0,12.9-2.2,17.7-5.7c0.9-0.7,1.1-3.3,0.8-4.6c-0.4-1.5-2.6-3.1-4.3-2.6
			C54.2,106.6,46.7,108.5,45.6,109.1"/>
	</g>
	<g>
		<path class="st3" d="M54.2,116.1c-0.1,0-0.2,0-0.3-0.1c-0.1-0.1-2.7-1.6-3.5-5.6c-0.1-0.3,0.1-0.6,0.5-0.7
			c0.3-0.1,0.6,0.1,0.7,0.5c0.7,3.5,2.9,4.8,2.9,4.8c0.3,0.2,0.4,0.5,0.2,0.8C54.6,116,54.4,116.1,54.2,116.1z"/>
	</g>
	<g>
		<path class="st3" d="M42.5,120c0,0-0.1,0-0.1,0c-4.2,0-5.4-2.1-5.8-3.3c-1.4-4.7-4.5-16.2-4.3-20.5c0.1-2.1,1.2-3.8,2.9-4.6
			c2.1-1,4.9-0.6,6.9,0.9c0.5,0.4,0.6,1.1,0.2,1.6c-0.4,0.5-1.1,0.6-1.6,0.2c-1.3-1-3.2-1.3-4.5-0.7c-1,0.5-1.6,1.4-1.6,2.7
			c-0.1,2.8,1.5,10.4,4.2,19.8c0.3,1.1,1.5,1.6,3.6,1.6c0,0,0.1,0,0.1,0c5.8,0,12.3-2.1,16.9-5.5c0.3-0.3,0.7-2.3,0.3-3.4
			c-0.2-0.5-0.7-1.2-1.4-1.6c-0.5-0.3-1-0.4-1.4-0.3c-0.7,0.2-1.8,0.5-3,0.8c-2.7,0.7-7.1,1.9-7.8,2.3c-0.3,0.2-0.7,0.2-1.1,0
			s-0.6-0.5-0.6-0.9c-0.3-1.9-0.7-3.6-1.1-5.2c-0.5-1.8-0.8-3.4-0.9-4.7c0-0.6,0.5-1.2,1.1-1.2c0,0,0,0,0,0c0.6,0,1.1,0.5,1.1,1.1
			c0,1,0.4,2.5,0.8,4.2c0.3,1.2,0.6,2.6,0.9,4c1.5-0.5,3.9-1.1,6.8-1.9c1.2-0.3,2.3-0.6,2.9-0.8c1-0.3,2.1-0.1,3.2,0.5
			c1.2,0.7,2.2,1.8,2.5,2.9c0.4,1.4,0.3,4.8-1.2,5.9C55.7,117.8,48.7,120,42.5,120z"/>
	</g>
	<g>
		<path class="st6" d="M56,112.1c-1.6-2.7,0.4-7.2,3-8.2c2.6-1,10.6,1.6,9.8,4c-0.4,1-1.5,1.4-1.5,1.4
			C68.1,112.8,60.7,119.8,56,112.1"/>
	</g>
	<g>
		<path class="st3" d="M61.1,116.8c-1.7,0-4.1-0.7-6.2-4.1c-0.9-1.5-1-3.4-0.3-5.4c0.7-2.2,2.2-3.9,3.9-4.6c0.5-0.2,1.2-0.3,2-0.3
			c3,0,7.6,1.6,9.1,3.6c0.5,0.7,0.7,1.5,0.5,2.3c0,0,0,0.1,0,0.1c-0.3,0.8-0.9,1.3-1.4,1.6c0,1.2-0.6,2.5-1.6,3.7
			C65.5,115.6,63.3,116.8,61.1,116.8z M60.5,104.9c-0.6,0-0.9,0.1-1,0.1c-1,0.4-2,1.6-2.5,3.1c-0.4,1.3-0.4,2.5,0.1,3.3
			c1.2,1.9,2.5,2.9,4,2.9c1.6,0,3.1-1.1,4-2.2c0.8-1.1,1.1-2.1,1-2.6c-0.1-0.6,0.2-1.3,0.8-1.5l0,0c0,0,0.4-0.2,0.7-0.5
			C67.2,106.6,63.3,104.9,60.5,104.9z"/>
	</g>
</g>
</svg>
