<?xml version="1.0" encoding="utf-8"?>
<!-- Generator: Adobe Illustrator 21.0.2, SVG Export Plug-In . SVG Version: 6.00 Build 0)  -->
<svg version="1.1" id="Layer_1" xmlns="http://www.w3.org/2000/svg" xmlns:xlink="http://www.w3.org/1999/xlink" x="0px" y="0px"
	 viewBox="0 0 94.9 180.9" style="enable-background:new 0 0 94.9 180.9;" xml:space="preserve">
<style type="text/css">
	.st0{fill:#FFBC73;}
	.st1{fill:#602900;}
	.st2{fill:#682B09;}
	.st3{fill:#480148;}
	.st4{fill:#FFFFFF;}
	.st5{fill:#3C8013;}
	.st6{fill:#FFE2AA;}
	.st7{fill:#994F26;}
	.st8{fill:#EFB45E;}
	.st9{fill:#C6F5F7;}
	.st10{fill:#515151;}
	.st11{fill:#FFFF66;}
	.st12{fill:#FFC569;}
	.st13{fill:#FFFF5C;}
	.st14{fill:#FFC931;}
	.st15{fill:#E2A750;}
	.st16{fill:#A87120;}
	.st17{fill:#BC67BC;}
	.st18{fill:#FFFA45;}
</style>
<g>
	<g>
		<path class="st0" d="M56.5,137.3c-0.6,9.8-7.5,37.2-9,39.4c0,0-12.3-0.7-12.5-2.3c-0.2-1.6,2.4-2.4,3.9-3.8
			c1.5-1.4,4.3-26.1,4.8-33.9c0.2-2.8,0.9-6.4,6.9-5.9C56.7,131.4,56.8,134.9,56.5,137.3"/>
	</g>
	<g>
		<path class="st1" d="M47.3,178.2c-13.5-0.8-13.8-2.6-13.9-3.6c-0.2-2,1.5-3.1,2.9-4c0.5-0.3,1-0.6,1.4-1c1.2-2.5,3.8-24,4.5-33
			c0.2-2,0.6-7.2,7.2-7.2c0.4,0,0.8,0,1.3,0.1c2.9,0.3,4.9,1.1,6.1,2.6c1.5,1.9,1.3,4.3,1.1,5.4c-0.6,10-7.5,37.6-9.3,40.1
			C48.3,177.9,47.9,178.2,47.3,178.2C47.4,178.2,47.4,178.2,47.3,178.2z M45.1,136.8c-0.3,3.8-1.1,11.9-2.1,19.4
			c-1.8,14.1-2.7,14.9-3.3,15.4c-0.6,0.5-1.3,1-1.9,1.4c-0.4,0.2-0.9,0.6-1.2,0.8c1.7,0.5,6,1.1,9.9,1.3c1.8-4.6,7.9-28.4,8.5-38
			c0,0,0-0.1,0-0.1c0.1-1.2,0.2-2.4-0.5-3.3c-0.7-0.8-2.1-1.4-4.1-1.6c-0.3,0-0.7,0-1,0C46.1,132.3,45.4,133.8,45.1,136.8z"/>
	</g>
	<g>
		<path class="st2" d="M39.2,170c-0.1,0.3-0.2,0.5-0.3,0.6c-1.5,1.4-4.1,2.1-3.9,3.8c0.2,1.6,12.5,2.3,12.5,2.3
			c0.2-0.3,0.6-1.3,1-2.6C46.4,172,42,170.3,39.2,170"/>
	</g>
	<g>
		<path class="st3" d="M47.4,177.9c-13.3-0.8-13.5-2.5-13.6-3.4c-0.2-1.8,1.4-2.9,2.8-3.7c0.5-0.3,1.1-0.7,1.5-1c0,0,0-0.1,0.1-0.2
			c0.2-0.5,0.7-0.8,1.2-0.7c3.2,0.4,7.8,2.1,10,4.4c0.3,0.3,0.4,0.8,0.3,1.2c-0.7,2-1,2.6-1.2,2.9C48.2,177.7,47.8,177.9,47.4,177.9
			C47.4,177.9,47.4,177.9,47.4,177.9z M39.8,171.3c-0.1,0.1-0.1,0.1-0.2,0.2c-0.6,0.5-1.2,0.9-1.9,1.3c-0.6,0.4-1.3,0.8-1.6,1.2
			c1.4,0.6,6.2,1.2,10.6,1.5c0.1-0.2,0.2-0.6,0.4-1.1C45.4,173,42.2,171.7,39.8,171.3z"/>
	</g>
	<g>
		<path class="st4" d="M40.3,173.1c0.2,0,0.4-0.1,0.6-0.3c0.2-0.3,0.1-0.7-0.2-0.9l-1.7-1.1c-0.3-0.2-0.7-0.1-0.9,0.2
			c-0.2,0.3-0.1,0.7,0.2,0.9l1.7,1.1C40,173,40.1,173.1,40.3,173.1z"/>
	</g>
	<g>
		<path class="st4" d="M38.8,174.1c0.2,0,0.4-0.1,0.6-0.3c0.2-0.3,0.1-0.7-0.2-0.9l-1.7-1c-0.3-0.2-0.7-0.1-0.9,0.2
			c-0.2,0.3-0.1,0.7,0.2,0.9l1.7,1C38.5,174,38.7,174.1,38.8,174.1z"/>
	</g>
	<g>
		<path class="st5" d="M60.2,120.4c-0.9-2-15.5-3-15.5-3c-2.5,5.7-5.2,24.7-5.5,33.6c0.8,2.6-0.1,3.7-1.2,5.8
			c-1.1,2.2,0.2,2.9,0.3,5c0.1,2.1-0.9,5.3-1.5,7.1c-0.6,1.8,12.9,8.5,14.2,5.6c1.3-2.9-0.5-4.3,0.3-5.2c0.8-0.9,2.4-9,2.7-11
			C54.2,156.4,60.8,129.1,60.2,120.4"/>
	</g>
	<path class="st3" d="M36,170.3c-0.5-0.7-0.5-1.3-0.4-1.7c1-3.1,1.5-5.3,1.4-6.7c0-0.6-0.2-1-0.3-1.5c-0.3-1-0.7-2.2,0.2-4
		c0.2-0.3,0.3-0.6,0.5-0.9c0.9-1.6,1.3-2.3,0.7-4c0-0.1-0.1-0.3-0.1-0.4c0.2-8.8,2.9-28,5.6-34c0.2-0.4,0.6-0.7,1.1-0.7
		c10.2,0.7,15.7,1.9,16.5,3.6c0.1,0.1,0.1,0.3,0.1,0.4c0.5,7.3-3.8,26.6-5.6,34.8c-0.4,1.7-0.7,3-0.7,3.4c0,0.1-1.7,9.7-2.9,11.4
		c0,0.1,0.1,0.4,0.1,0.5c0.2,0.9,0.6,2.4-0.3,4.5c-0.3,0.6-1,1.4-2.7,1.4C45.5,176.4,37.7,172.5,36,170.3z M50,171.1
		c-0.2-0.7-0.4-1.7,0.3-2.5c0.6-0.9,2-7.7,2.5-10.4c0.1-0.4,0.3-1.4,0.7-3.5c1.6-7.3,5.9-26.5,5.6-33.8c-1.4-0.9-7.8-1.8-13.6-2.2
		c-2.3,6.1-4.8,23.2-5.1,32.2c0.8,2.6,0,4-0.9,5.7c-0.1,0.3-0.3,0.5-0.5,0.8c-0.5,0.9-0.3,1.4-0.1,2.2c0.2,0.6,0.4,1.3,0.5,2.2
		c0.1,1.6-0.4,4-1.5,7.2c1,1.4,8,5.1,11.3,5.1c0.4,0,0.6-0.1,0.6-0.1C50.5,172.7,50.3,171.9,50,171.1z"/>
	<g>
		<path class="st6" d="M72.6,138.6c1.1,9.8-1.1,37.9-2.3,40.4c0,0-12.3,1.4-12.7-0.2c-0.5-1.6,2-2.8,3.2-4.4
			c1.3-1.6-0.2-26.4-0.9-34.2c-0.2-2.8-0.2-6.5,5.8-6.9C71.8,132.7,72.4,136.1,72.6,138.6"/>
	</g>
	<g>
		<path class="st1" d="M56.2,179.1c-0.6-1.9,1-3.3,2.2-4.4c0.4-0.4,0.9-0.8,1.2-1.2c0.8-2.6-0.3-24.3-1.2-33.3
			c-0.2-2-0.1-4.3,1.4-6.1c1.2-1.4,3.1-2.2,5.7-2.4c0.4,0,0.9-0.1,1.3-0.1c6.8,0,7.1,5,7.2,6.7c1.1,10-1.1,38.3-2.4,41.1
			c-0.2,0.5-0.7,0.8-1.2,0.8c-0.2,0-5.1,0.6-8.9,0.6l0,0C58.5,180.9,56.6,180.6,56.2,179.1z M71.1,138.7
			C71.1,138.7,71.1,138.7,71.1,138.7c-0.1-2.3-0.5-4.1-4.3-4.1c-0.3,0-0.7,0-1,0c-1.8,0.1-3.1,0.6-3.7,1.4c-0.8,1-0.8,2.5-0.7,3.9
			c0.4,3.8,0.9,11.9,1.2,19.5c0.6,14.2-0.1,15.1-0.6,15.7c-0.5,0.6-1.1,1.2-1.7,1.7c-0.3,0.3-0.8,0.7-1.1,1c0.5,0.1,1.2,0.1,2.4,0.1
			c2.6,0,6-0.3,7.6-0.5C70.2,172.7,72.1,148.2,71.1,138.7z"/>
	</g>
	<g>
		<path class="st7" d="M61,173.7c-0.1,0.3-0.1,0.5-0.2,0.6c-1.3,1.6-3.7,2.8-3.2,4.4c0.5,1.6,12.7,0.2,12.7,0.2
			c0.2-0.4,0.4-1.3,0.6-2.8C68.5,174.4,63.8,173.6,61,173.7"/>
	</g>
	<g>
		<path class="st3" d="M56.5,179.1c-0.5-1.8,0.9-3.1,2.1-4.1c0.5-0.4,0.9-0.8,1.3-1.3c0,0,0-0.1,0.1-0.2c0.1-0.5,0.5-0.9,1.1-0.9
			c3.1-0.2,8,0.8,10.6,2.7c0.3,0.2,0.5,0.7,0.5,1.1c-0.3,2.1-0.5,2.8-0.7,3.1c-0.2,0.4-0.5,0.6-0.9,0.7c-0.2,0-5.1,0.6-8.8,0.6
			C58.2,180.6,56.8,180.2,56.5,179.1z M69.6,176.7c-2.1-1.2-5.4-1.8-7.8-1.9c0,0.1-0.1,0.1-0.1,0.2c-0.5,0.6-1.1,1.1-1.6,1.6
			c-0.5,0.5-1.2,1-1.4,1.5c0.4,0.1,1.2,0.2,2.9,0.2c2.8,0,6.3-0.3,7.8-0.5C69.5,177.6,69.5,177.2,69.6,176.7z"/>
	</g>
	<g>
		<path class="st4" d="M62.5,176.6c0.3,0,0.5-0.2,0.6-0.4c0.1-0.3,0-0.7-0.3-0.9l-1.9-0.8c-0.3-0.1-0.7,0-0.9,0.3
			c-0.1,0.3,0,0.7,0.3,0.9l1.9,0.8C62.3,176.6,62.4,176.6,62.5,176.6z"/>
	</g>
	<g>
		<path class="st4" d="M61.2,177.8c0.3,0,0.5-0.2,0.6-0.4c0.1-0.3,0-0.7-0.4-0.9l-1.9-0.7c-0.3-0.1-0.7,0-0.9,0.4
			c-0.1,0.3,0,0.7,0.4,0.9l1.9,0.7C61.1,177.8,61.1,177.8,61.2,177.8z"/>
	</g>
	<g>
		<path class="st5" d="M44.9,119c0,0,22.2-0.8,25.2-0.9c4.7,3.7,4.9,16.6,5,22.7c0.1,6.1-0.9,24.9-0.7,26.8c0.1,1.9-1.3,3.8-1.1,5
			c0.2,1.2,2.2,3.4-0.4,4.8c-2.7,1.5-11.1-2.6-12.6-2.9c-1.6-0.3-2.4-1.2-1-4c1.3-2.7-1.1-7.8-0.2-12.8c0.1-3.1-0.9-20.1-2.6-27.6
			c-0.5,0.3-4.4,0-5.8-0.4C48.4,128.7,45.1,125.3,44.9,119"/>
	</g>
	<path class="st3" d="M71.3,178.9c0.8,0,1.6-0.1,2.2-0.5c2.9-1.6,1.8-4.2,1.3-5.3c-0.1-0.3-0.3-0.6-0.3-0.7c0-0.3,0.2-1,0.4-1.5
		c0.4-1,0.8-2.2,0.7-3.4c0-0.8,0.1-4.9,0.3-9.3c0.2-6.2,0.5-13.8,0.5-17.4c-0.1-9.6-0.9-20-5.5-23.6c-0.2-0.2-0.5-0.3-0.7-0.2
		c-3,0.1-25,0.9-25.2,0.9c-0.6,0-1.1,0.6-1.1,1.2c0,0.6,0.6,1.1,1.2,1.1c0.2,0,20.5-0.7,24.8-0.8c4,3.8,4.2,16.7,4.3,21.6
		c0.1,3.5-0.2,11.1-0.5,17.2c-0.2,5.4-0.3,8.7-0.3,9.6c0,0.8-0.3,1.7-0.6,2.5c-0.3,0.9-0.6,1.8-0.5,2.6c0.1,0.5,0.3,0.9,0.5,1.4
		c0.6,1.4,0.7,1.8-0.3,2.3c-1.5,0.9-7.1-1.3-9.5-2.2c-1.2-0.5-1.9-0.7-2.4-0.8c-0.7-0.2-0.8-0.3-0.8-0.3c0,0-0.2-0.5,0.6-2
		c0.8-1.7,0.5-3.9,0.1-6.4c-0.3-2.1-0.6-4.5-0.3-6.8c0-0.1,0-0.1,0-0.2c0.1-3-0.9-20.2-2.6-27.9c-0.1-0.4-0.3-0.7-0.7-0.8
		c-0.3-0.1-0.6-0.1-0.9,0c-0.7,0.1-3.8-0.1-5-0.5c-0.6-0.2-1.2,0.2-1.4,0.8c-0.2,0.6,0.2,1.2,0.8,1.4c0.4,0.1,3.2,0.7,5.2,0.6
		c1.5,7.9,2.4,23.2,2.3,26.3c-0.4,2.6,0,5.1,0.3,7.4c0.3,2,0.6,4,0.1,5c-0.9,1.7-1.1,3-0.6,4c0.6,1.2,1.9,1.5,2.4,1.6
		c0.3,0.1,1.1,0.4,2,0.7C65.5,177.7,68.9,178.9,71.3,178.9z"/>
	<g>
		<path class="st8" d="M50.5,92.9c5.1-4.8,13.2,0.5,9.6,5.7c-3.6,5.2-23.6,19.8-28.2,22.4c-5.9,5.9-12.1,5.4-12,1.5
			c0.1-3.9,2.9-6.3,2.9-6.3c-1.4-2.5,2-3.8,4.6-1.6C34.6,110.2,50.5,92.9,50.5,92.9"/>
	</g>
	<g>
		<path class="st1" d="M19.8,125.4c-0.7-0.7-1.1-1.7-1-2.8c0.1-3.2,1.8-5.5,2.7-6.6c-0.3-1,0-1.8,0.2-2.2c0.5-0.9,1.6-1.4,2.8-1.4
			c1,0,2,0.3,2.9,0.9c7.3-4.9,22.1-21,22.3-21.1c0,0,0,0,0.1-0.1c1.5-1.4,3.4-2.2,5.4-2.2c2.7,0,5.3,1.5,6.4,3.6
			c1,1.8,0.8,4-0.5,5.8c-3.8,5.5-23.6,19.9-28.4,22.7c-3,2.9-6.4,4.6-9.3,4.6C21.8,126.7,20.6,126.2,19.8,125.4z M51.3,93.8
			c-1,1.1-16.1,17.5-23.4,21.9c-0.4,0.3-1,0.2-1.4-0.1c-0.7-0.6-1.4-0.9-2.1-0.9c-0.5,0-0.8,0.2-0.8,0.3c-0.1,0.1,0,0.4,0.2,0.7
			c0.3,0.5,0.2,1.1-0.3,1.4c0,0-2.4,2.2-2.5,5.5c0,0.5,0.1,0.9,0.4,1.2c0.4,0.4,1,0.6,1.9,0.6c2.3,0,5.2-1.5,7.8-4.1
			c0.1-0.1,0.2-0.1,0.3-0.2c4.8-2.7,24.4-17.2,27.8-22.1c0.8-1.2,0.9-2.3,0.4-3.4c-0.8-1.4-2.5-2.4-4.4-2.4
			C54.2,92.2,52.7,92.5,51.3,93.8z"/>
	</g>
	<g>
		<path class="st4" d="M27.5,112.5c-0.6,1.8,2,8.3,7,9.4c4.1-2.2,9-7.2,11-8.6c2-1.4,13.5-9,15.8-13.7c2.3-4.6,1.4-7.4-2.1-9
			c-3.5-1.6-8.4-0.8-11.5,3.1C44.6,97.6,32.7,109.4,27.5,112.5"/>
	</g>
	<g>
		<path class="st3" d="M34.2,123c-3.5-0.8-5.6-3.7-6.5-5.4c-0.9-1.6-1.8-4-1.3-5.5c0.1-0.3,0.3-0.5,0.5-0.6
			C31.8,108.6,43.6,97,46.8,93c2.2-2.7,5.4-4.3,8.7-4.3c1.5,0,2.9,0.3,4.1,0.9c1.9,0.9,3.1,2.1,3.7,3.6c0.7,1.9,0.3,4.1-1,6.9
			c-1.5,3.1-6.7,7.6-15.7,13.8l-0.5,0.3c-0.6,0.4-1.7,1.3-2.9,2.4c-2.4,2.1-5.5,4.8-8.3,6.3c-0.2,0.1-0.4,0.1-0.6,0.1
			C34.3,123.1,34.3,123,34.2,123z M48.6,94.4c-3.2,3.9-14.6,15.3-20.1,18.8c0,0.6,0.3,1.9,1.1,3.3c0.6,1,2.1,3.4,4.6,4.1
			c2.5-1.4,5.2-3.8,7.5-5.8c1.3-1.1,2.3-2,3.1-2.5l0.5-0.3c10.7-7.3,14-11,15-12.9c1.1-2.2,1.4-3.9,0.9-5.1
			c-0.3-0.9-1.1-1.7-2.5-2.3c-0.9-0.4-2-0.7-3.2-0.7C52.9,91,50.4,92.3,48.6,94.4z"/>
	</g>
	<g>
		<path class="st3" d="M37.6,119.5c0.3,0,0.5-0.2,0.6-0.5c0.1-0.3-0.1-0.6-0.4-0.7c-2.1-0.4-4.5-3.6-5.2-4.8
			c-0.2-0.3-0.5-0.3-0.8-0.2c-0.3,0.2-0.3,0.5-0.2,0.8c0.1,0.2,3,4.7,6,5.3C37.5,119.5,37.6,119.5,37.6,119.5z"/>
	</g>
	<polygon class="st9" points="32.5,125.2 21.7,138.5 2.6,109.3 17.2,101.8 	"/>
	<path class="st3" d="M21.7,139.4c-0.3,0-0.6-0.2-0.8-0.4L1.8,109.8c-0.1-0.2-0.2-0.5-0.1-0.8c0.1-0.3,0.2-0.5,0.5-0.6l14.6-7.5
		c0.4-0.2,1-0.1,1.2,0.3l15.3,23.4c0.2,0.4,0.2,0.8-0.1,1.1l-10.8,13.3C22.3,139.3,22,139.4,21.7,139.4
		C21.7,139.4,21.7,139.4,21.7,139.4z M16.8,103.1L4,109.7l17.8,27.2l9.5-11.7L16.8,103.1z"/>
	<g>
		<g>
			
				<rect x="6.3" y="108.1" transform="matrix(0.8681 -0.4964 0.4964 0.8681 -52.2925 20.4611)" class="st10" width="12" height="1.1"/>
		</g>
		<g>
			
				<rect x="7.1" y="109.4" transform="matrix(0.8679 -0.4967 0.4967 0.8679 -52.8818 21.0537)" class="st10" width="12" height="1.1"/>
		</g>
		<g>
			
				<rect x="7.9" y="110.8" transform="matrix(0.8681 -0.4964 0.4964 0.8681 -53.413 21.6027)" class="st10" width="12" height="1.1"/>
		</g>
		<g>
			<polygon class="st10" points="15.3,111.7 9.2,115.1 9.8,116.1 15.8,112.6 			"/>
		</g>
	</g>
	<g>
		<path class="st11" d="M62.9,90.8c5.8,8.6,8.7,21.9,8,23.7c-0.7,1.8-19.7,8.7-27,4.4c-2.1-11.3-0.3-25.4-0.3-25.4
			c0.4-1.4,1.9-3,8.6-4.6C58.9,87.4,61.8,88.7,62.9,90.8"/>
	</g>
	<g>
		<path class="st8" d="M43.7,93.6c0.4-1.3,1.9-3,8.1-4.5c0,0.1,0,0.1-0.1,0.2c-2.7,5.8-6,7.5-8.3,7.1C43.5,94.7,43.7,93.6,43.7,93.6
			"/>
	</g>
	<g>
		<path class="st3" d="M43.2,97.5c-0.6-0.1-1-0.6-0.9-1.2c0.2-1.7,0.3-2.7,0.3-2.8c0-0.1,0-0.1,0-0.2c0.7-2.3,3.4-3.9,8.9-5.3
			c0.4-0.1,0.9,0.1,1.1,0.4c0.3,0.3,0.3,0.8,0.2,1.2l-0.1,0.1c-3.2,7.1-7.1,7.8-8.6,7.8l0,0C43.8,97.6,43.5,97.6,43.2,97.5z
			 M44.8,93.9c0,0.2-0.1,0.7-0.1,1.4c1-0.2,2.9-1,4.9-4.3C46.7,91.9,45.1,92.8,44.8,93.9z"/>
	</g>
	<g>
		<path class="st3" d="M43.3,120c-0.3-0.2-0.5-0.5-0.6-0.8c-2.1-11.3-0.3-25.1-0.3-25.7c0-0.1,0-0.1,0-0.2c0.7-2.4,3.5-4,9.4-5.4
			c6.3-1.5,10.3-0.7,11.9,2.3c5.8,8.7,8.9,22.4,8.1,24.7c-0.8,2.4-13.5,6.6-21.6,6.6l0,0C47.4,121.5,45.1,121,43.3,120z M61.9,91.5
			c0,0-0.1-0.1-0.1-0.1c-1-2-4.3-2.4-9.3-1.2c-4.6,1.1-7.2,2.4-7.7,3.7c-0.1,1.2-1.6,14,0.2,24.4c1.3,0.6,3.2,1,5.4,1l0,0
			c7.8,0,18.1-3.8,19.4-5.1C70.1,112.1,67.4,99.7,61.9,91.5z"/>
	</g>
	<g>
		<path class="st4" d="M72.6,114.4c-1.6-2.9-4-14.9-9.8-23.5c-1.1-2.2-4-3.4-10.6-1.8c-1.1,0.3-2,0.5-2.8,0.8
			c-1.5,7.3-2.1,20.6-2,30.4c-0.1,6.6,0.8,17.3,2.1,18.1c1.3,0.8,30.5-5.3,32.3-13.5c-2.4-3.4-5.4-6.7-5.4-6.7
			c0.2-1.5-0.9-2.5-2.2-2.5C74.2,113.7,72.6,114.4,72.6,114.4"/>
	</g>
	<g>
		<path class="st3" d="M47,119c-0.3-0.1-0.5-0.5-0.5-0.8c0-9.1,0.6-21.4,2.1-28.5c0.1-0.3,0.3-0.6,0.6-0.7c0.8-0.3,1.8-0.5,2.9-0.8
			c6-1.4,9.8-0.8,11.5,2c0.2,0.4,0.1,0.9-0.2,1.2c-1.5,1.2-3.5,1.9-4.9,2.4c-0.6,0.2-1.5,0.5-1.7,0.7c-0.1,0.1-0.2,0.2-0.3,0.4
			c-1,1.1-2.5,2.9-2.1,7c0.1,0.6-0.3,1.3-1.4,3.6c-1.6,3.1-4.3,8.4-4.4,12.5c0,0.1,0,0.2,0,0.3c-0.1,0.3-0.2,0.6-0.4,0.7
			c-0.2,0.2-0.4,0.3-0.6,0.3C47.3,119,47.1,119,47,119z M55.1,93.6c0.1-0.1,0.2-0.2,0.3-0.3c0.4-0.5,1.2-0.8,2.5-1.3
			c1.1-0.4,2.4-0.9,3.6-1.6c-1.5-1.4-4.6-1.5-9-0.5c-0.8,0.2-1.6,0.4-2.3,0.6c-1,5.2-1.6,12.9-1.8,20.2c0.9-2.3,2.1-4.5,2.9-6.2
			c0.5-1.1,1.2-2.2,1.2-2.6C52,97.1,54,94.8,55.1,93.6z"/>
	</g>
	<g>
		<path class="st3" d="M61,120.3c5.8,0,11.3-2.2,11.5-2.4c0.3-0.1,0.4-0.5,0.3-0.7c-0.1-0.3-0.5-0.4-0.8-0.3
			c-0.1,0-5.9,2.4-11.6,2.3c-0.3,0-0.6,0.2-0.6,0.6c0,0.3,0.2,0.6,0.6,0.6C60.6,120.3,60.8,120.3,61,120.3z"/>
	</g>
	<g>
		<path class="st4" d="M51.5,121c2.1-1.3,9.6-3.1,11.2-3.3c3.1,5.4,4.2,10.4,4.1,11.1c-2.6,1.8-11.5,4-12.9,3.8
			C52.4,127.6,51.5,121,51.5,121"/>
	</g>
	<g>
		<path class="st3" d="M53.7,133.8c-0.4-0.1-0.8-0.4-0.9-0.8c-1.6-5.1-2.4-11.5-2.4-11.8c-0.1-0.5,0.2-0.9,0.5-1.1
			c2.3-1.4,10.1-3.3,11.7-3.4c0.5,0,0.9,0.2,1.1,0.6c3.2,5.5,4.4,10.7,4.3,11.8c0,0.3-0.2,0.6-0.5,0.8c-2.7,1.9-11,4-13.3,4l0,0
			C54,133.8,53.9,133.8,53.7,133.8z M62.1,119c-2.2,0.4-7.1,1.7-9.3,2.7c0.2,1.7,0.9,6,2,9.8c2.4-0.3,8.4-1.8,10.9-3.2
			C65.4,126.8,64.4,123.1,62.1,119z"/>
	</g>
	<g>
		<path class="st3" d="M52,124.7c0.1,0,0.1,0,0.2,0c2.2-0.8,8.3-2.9,9.4-3c0.3,0,0.5-0.3,0.5-0.7c0-0.3-0.3-0.5-0.7-0.5
			c-1.5,0.2-9.3,3-9.7,3.1c-0.3,0.1-0.5,0.4-0.4,0.7C51.6,124.6,51.8,124.7,52,124.7z"/>
	</g>
	<g>
		<path class="st3" d="M58.5,119C58.5,119,58.5,119,58.5,119c6.6-0.5,14.1-4,14.4-4.1c0.3-0.1,0.4-0.5,0.3-0.8
			c-0.1-0.3-0.5-0.4-0.8-0.3c-0.1,0-7.6,3.6-14,4c-0.3,0-0.6,0.3-0.5,0.6C57.9,118.8,58.2,119,58.5,119z"/>
	</g>
	<g>
		<path class="st3" d="M48.9,139.2c-2.6-1.6-2.6-18.9-2.6-19.1c0-9.3,0.5-22.9,2.1-30.6c0.1-0.4,0.4-0.7,0.8-0.9
			c0.9-0.3,1.8-0.5,2.9-0.8c6.3-1.5,10.3-0.7,11.9,2.3c4,6,6.4,13.6,8,18.6c0.5,1.7,1,3.2,1.4,4.2c0.8,0,1.6,0.4,1.9,1.5
			c0.6,0.2,1.1,0.5,1.5,1c0.5,0.6,0.8,1.3,0.8,2.1c0.8,1,3.2,3.7,5.2,6.5c0.2,0.3,0.3,0.6,0.2,0.9c-2,8.8-29.1,14.5-33,14.5
			C49.5,139.5,49.1,139.4,48.9,139.2z M75.5,118.8c-0.2-0.2-0.3-0.6-0.3-0.9c0-0.3,0-0.6-0.2-0.8c-0.2-0.2-0.5-0.3-0.8-0.3
			c-0.6,0-1.2-0.5-1.2-1.2c0-0.1,0-0.1,0-0.1c-0.5,0.2-1.2,0-1.4-0.5c-0.6-1-1.1-2.8-1.9-5.3c-1.6-4.9-3.9-12.4-7.8-18.1
			c0,0-0.1-0.1-0.1-0.1c-1-2-4.3-2.4-9.3-1.2c-0.7,0.2-1.4,0.4-2.1,0.5c-1.4,7.2-1.9,19.8-1.9,29.5c-0.1,6.9,0.8,15.3,1.6,17
			c4.3-0.1,28-5.7,30.5-12.2C78.2,121.9,75.6,118.8,75.5,118.8z"/>
	</g>
	<g>
		<path class="st6" d="M11.2,71.2c-0.8-3.8-1.5-7.8-2.4-11.4C5.3,46.2,4.9,30.7,16,21.3c6-5.1,14.9-9.3,22.6-10.8
			c19.5-3.8,43.6,8.8,46.7,29.8c1.9,12.5,1.2,24.5-4.8,34.2C76.8,80.7,70,84.8,62.7,87.8c-9.6,3.9-28.9,6-38.8,2.6
			c-4.5-1.5-7.3-4.6-9.3-8.5C9.9,81.6,9.4,76.7,11.2,71.2"/>
	</g>
	<g>
		<path class="st3" d="M23.6,91.6c-4.2-1.4-7.3-4.2-9.7-8.6c-1.6-0.2-2.9-1-3.7-2.2c-1.4-2.1-1.5-5.5-0.2-9.6
			c-0.3-1.4-0.6-2.8-0.9-4.1c-0.5-2.4-1-4.7-1.5-6.9c-4.6-17.9-1.9-31.6,7.6-39.7c6-5.1,15.1-9.5,23.2-11.1c2.4-0.5,4.9-0.7,7.4-0.7
			c17.7,0,37.7,11.8,40.6,31.5c2.2,14.6,0.5,26.1-4.9,35c-3.4,5.5-9.4,10-18.4,13.7c-6.4,2.6-16.9,4.4-26.2,4.4h0
			C31.6,93.3,26.9,92.7,23.6,91.6z M38.9,11.6c-7.7,1.5-16.4,5.7-22.1,10.6C5.6,31.7,6.8,47.7,9.9,59.6c0.6,2.2,1.1,4.7,1.5,7
			c0.3,1.5,0.6,2.9,0.9,4.4c0,0.2,0,0.4,0,0.6c-1.2,3.5-1.2,6.3-0.2,7.9c0.5,0.8,1.4,1.2,2.6,1.3c0.4,0,0.8,0.3,1,0.6
			c2.1,4.1,4.9,6.7,8.6,8c3.1,1.1,7.5,1.6,12.6,1.6h0c9,0,19.2-1.7,25.3-4.2c8.5-3.5,14.2-7.7,17.3-12.8c5.2-8.5,6.7-19.4,4.6-33.5
			C81.4,22,62.5,11,45.8,11C43.4,11,41.1,11.2,38.9,11.6z"/>
	</g>
	<g>
		<path class="st12" d="M35,77.3c0.3,2.4,2.5,4.1,5,3.8c2.4-0.3,4.1-2.5,3.8-5c-0.3-2.4-2.6-4.1-5-3.8S34.7,74.8,35,77.3"/>
	</g>
	<g>
		<path class="st1" d="M31.2,71.3c0.4,3.2,2,5.6,3.6,5.4c1.5-0.2,2.4-3,2-6.2c-0.4-3.2-2-5.6-3.6-5.4C31.7,65.3,30.8,68.1,31.2,71.3
			"/>
	</g>
	<g>
		<path class="st4" d="M31.6,67.8c0.1,0.5,0.5,0.8,1,0.7c0.5-0.1,0.8-0.5,0.7-1s-0.5-0.8-1-0.7C31.8,66.9,31.5,67.3,31.6,67.8"/>
	</g>
	<g>
		<path class="st3" d="M22.3,90.1c5.6,0,7.5-3.7,7.6-3.9c0.3-0.6,0-1.3-0.5-1.5c-0.6-0.3-1.2,0-1.5,0.5c-0.1,0.2-1.7,3.2-7.1,2.5
			c-0.6-0.1-1.2,0.4-1.3,1c-0.1,0.6,0.4,1.2,1,1.3C21.1,90,21.7,90.1,22.3,90.1z"/>
	</g>
	<g>
		<path class="st3" d="M30.1,59.9c1.2-1.2,3.4-1.2,5.5,0C35.1,57.9,31.4,56.6,30.1,59.9"/>
	</g>
	<g>
		<path class="st13" d="M1.4,39.3C0.5,43.1,1.1,47.8,2,51.7c0.5,2.4,3.4,9.1,7.2,6c4.1-3.3,1.4-11.9,1.4-11.9
			c2.7,8.6,11.1,12.3,10.3,1.5c3.3,7.3,22.2,19.1,21.6,5.9c3.1,15.9,9,13.4,11.4,8.6c1,7.4,0.2,27.4,11.1,27
			c10.9-0.5,18-11.3,20.3-16c1.5,3.7,5.9,4.6,4.8-12.7c3.2,2.8,7.2-4.5-1.5-24.1c4.2-1.4,6.9-12.1-12.7-21.7
			c1.4-4.1-2.5-9.8-6.3-3.8C62.8,2,44.1-0.6,37.1,2.3c-6.2,2.6-0.6,5.4-0.6,5.4c-8.8-0.2-26.1,0.8-30.1,6.5c-4,5.7,5.1,7.3,5.1,7.3
			c-3.6,2-6.8,6.6-8.1,10.3C2.4,34.5,2,36.4,1.4,39.3"/>
	</g>
	<g>
		<path class="st14" d="M29.2,16.5c-3.2-0.3-7.1,1.6-9.3,3.3c-1.6,1.3-4.4,3.9-3.6,6.2c0.7,1.9,3.4,2.2,5.1,2.3
			c3.9,0.3,8.6-0.4,10.8-3.9c1.5-2.4,2.2-5.8-0.8-7.3C30.7,16.8,30,16.6,29.2,16.5"/>
	</g>
	<g>
		<path class="st15" d="M37.4,24.9c-0.6,1.5-1.3,3.1-1.5,4.7c-0.1,0.7,0.5,1.2,1.1,0.9c1.4-0.7,2.4-2,3.8-2.5
			c-0.3-0.1-0.6-0.2-0.9-0.3c0.8,1.3,1,2.9,2,4c1.3,1.4,3.3,0.1,4.5-0.7c-0.3-0.1-0.7-0.2-1.1-0.3c1,1.5,1.6,3.1,3.6,3.3
			c1,0.1,1-1.4,0-1.5c-1.2-0.1-1.7-1.6-2.3-2.5c-0.2-0.3-0.7-0.5-1.1-0.3c-1,0.7-2.2,1.8-3,0.4c-0.5-1-0.8-2.1-1.4-3.1
			c-0.2-0.3-0.6-0.5-0.9-0.4c-1.6,0.6-2.7,1.9-4.2,2.7c0.4,0.3,0.8,0.6,1.1,0.9c0.2-1.7,0.9-3.2,1.5-4.7
			C39.3,24.4,37.8,24,37.4,24.9"/>
	</g>
	<g>
		<path class="st15" d="M54.5,32.2c0,0.5,0,1.1,0.2,1.6c0.1,0.4,0.5,0.6,0.9,0.5c0.4-0.1,0.7-0.5,0.5-0.9c-0.1-0.4-0.1-0.8-0.1-1.2
			c0-0.4-0.4-0.8-0.8-0.8S54.5,31.8,54.5,32.2"/>
	</g>
	<g>
		<path class="st15" d="M57.1,33.1c0.3,0.4,0.5,0.9,0.8,1.4c0.2,0.3,0.7,0.5,1.1,0.3c0.3-0.2,0.5-0.7,0.3-1
			c-0.3-0.4-0.5-0.9-0.8-1.4c-0.2-0.3-0.7-0.5-1.1-0.3C57,32.2,56.9,32.7,57.1,33.1"/>
	</g>
	<g>
		<path class="st15" d="M64.9,32.4c0.5,1.3,1.1,2.6,1.9,3.8c0.2,0.3,0.7,0.5,1.1,0.3c0.7-0.5,2.3-3.5,3.1-2.7
			c1.1,1.1,1.2,2.7,2.6,3.6c0.4,0.2,1,0,1.1-0.5c0.2-0.7,0.2-1.6,0.7-2.2c0.5-0.7,1.5,0,2.1,0.1c1.1,0.2,1.9-0.5,2.3-1.4
			c0.5-0.9-0.9-1.6-1.3-0.8c-0.7,1.2-2.2-0.1-3.4,0.5c-1.4,0.7-1.6,2-1.9,3.4c0.4-0.2,0.8-0.3,1.1-0.5c-1.4-0.9-1.4-3.5-3.2-4
			c-2.2-0.5-2.7,2-4,3.1c0.3,0.1,0.7,0.2,1.1,0.3c-0.7-1.1-1.3-2.3-1.8-3.5C66,31.1,64.5,31.5,64.9,32.4"/>
	</g>
	<g>
		<path class="st14" d="M54.7,60.3c-3.8-0.5-7.5-1.3-11-2.3c3.2,10.4,8.1,8,10.2,3.7c1,7.4,0.2,27.4,11.1,27
			c10.9-0.5,18-11.3,20.3-16c1.5,3.7,5.9,4.6,4.8-12.7c1.6,1.4,3.4,0.3,3.7-3.4C82.5,60.7,68.9,62.3,54.7,60.3"/>
	</g>
	<g>
		<path class="st14" d="M4,30.2c-0.2,0.5-0.4,1-0.6,1.5c-1,2.7-1.3,4.6-2,7.5C0.5,43.1,1.1,47.8,2,51.7c0.5,2.4,3.4,9.1,7.2,6
			c4.1-3.3,1.4-11.9,1.4-11.9c2.6,8.5,10.9,12.2,10.3,2C13.5,42.9,7.7,36.8,4,30.2"/>
	</g>
	<g>
		<path class="st16" d="M41.6,57.4C34,55.1,27.2,51.9,21.3,48C24.8,54.3,38.1,62.9,41.6,57.4"/>
	</g>
	<g>
		<path class="st3" d="M64.6,89.9c-9.8,0-10.8-14.1-11.5-23.5c0-0.5-0.1-1-0.1-1.5c-1.1,1-2.3,1.6-3.5,1.6c-2.1,0-4.9-1.6-6.9-8.4
			c-0.2,0.2-0.3,0.4-0.5,0.6c-1,1-2.3,1.5-4,1.5c-5,0-12.3-4.8-16.1-9.4c-0.2,1.3-0.7,2.3-1.3,3c-0.7,0.8-1.6,1.2-2.6,1.2l0,0
			c-1.8,0-3.7-1.2-5.3-3.1c-0.1,2.5-0.7,5.1-2.7,6.7c-0.9,0.7-1.8,1-2.7,1c-3.9,0-6-6.1-6.4-7.7c-0.8-3.7-1-7.6-0.6-11.3
			c0.1-1,0.2-1.9,0.4-2.9c0.7-3.7,1.9-7.2,3.5-10.2C5,26,5.9,24.7,7,23.5c0.5-0.5,1.1-1.1,1.7-1.6c-1.6-0.6-3.5-1.7-4.2-3.5
			c-0.6-1.5-0.3-3.1,1-4.8c4.4-6.2,21.7-6.9,28-7c-0.3-0.5-0.5-1-0.4-1.6c0.1-1.5,1.2-2.7,3.6-3.7c1.9-0.8,4.7-1.3,8-1.3
			C53.1,0,64,2.9,69.4,8.6C70.7,7,72,6.7,72.9,6.7c1.2,0,2.3,0.6,3.1,1.8c1,1.4,1.4,3.4,1.1,5.2C91.7,21,92.9,28.5,92.7,31.4
			c-0.2,2.2-1.2,4-2.6,5c5.7,13.1,5.7,20.8,3.8,23.8c-0.6,1-1.5,1.5-2.5,1.5c0,0-0.1,0-0.1,0c0.3,7.2-0.3,11.8-2,13.5
			c-0.7,0.7-1.4,0.9-1.8,0.9l0,0c-0.8,0-1.5-0.4-2.1-1.1c-2.5,4.3-9.5,14.4-20.3,14.9C64.9,89.9,64.7,89.9,64.6,89.9L64.6,89.9z
			 M85.2,71.5c0.5,0,0.9,0.3,1,0.7c0.4,1.1,1,1.5,1.2,1.5c0,0,2.2-1.1,1.4-13.7c0-0.5,0.2-0.9,0.6-1.1c0.4-0.2,0.9-0.1,1.3,0.2
			c0.2,0.2,0.4,0.3,0.6,0.3c0.2,0,0.4-0.3,0.5-0.4c1.3-1.9,1.7-8.9-4.4-22.6c-0.1-0.3-0.1-0.6,0-0.9c0.1-0.3,0.4-0.5,0.7-0.6
			c1-0.3,2.1-1.5,2.2-3.5c0.1-2-0.5-8.9-15.1-16c-0.5-0.2-0.8-0.9-0.6-1.4c0.4-1.3,0.2-3-0.5-4.1C73.9,9.4,73.5,9,72.9,9
			c-0.7,0-1.6,0.8-2.5,2.1c-0.2,0.3-0.5,0.5-0.9,0.5c-0.4,0-0.7-0.1-1-0.4C64,5.3,53,2.3,44.6,2.3c-2.9,0-5.4,0.4-7.1,1.1
			C35.9,4,35.3,4.7,35.3,5c0,0.5,1,1.3,1.7,1.7C37.5,7,37.7,7.5,37.6,8c-0.1,0.5-0.6,0.9-1.1,0.9c-0.7,0-1.5,0-2.2,0
			c-10.4,0-23.7,1.6-26.8,6c-0.7,1-1,1.9-0.7,2.7c0.6,1.5,3.4,2.5,4.9,2.8c0.2,0,0.3,0.1,0.5,0.1c0.5,0.2,0.7,0.8,0.6,1.3
			c-0.1,0.5-0.5,0.8-1,0.9C11,23,9.4,24.4,8.7,25.1c-0.9,1-1.8,2.1-2.5,3.5c-1.5,2.8-2.6,6.1-3.3,9.5c-0.2,0.9-0.3,1.8-0.4,2.7
			C2.1,44.4,2.3,48,3.1,51.5c0.4,2,2.3,5.9,4.1,5.9c0.4,0,0.8-0.2,1.2-0.5c2.9-2.3,1.7-8.5,1-10.7c-0.2-0.6,0.2-1.2,0.8-1.4
			c0.6-0.2,1.3,0.1,1.4,0.8l0,0c0,0,0,0,0,0c1.5,4.8,4.6,7.3,6.2,7.4l0,0c0.4,0,0.7-0.1,1-0.4c0.4-0.5,1.1-1.7,0.9-5
			c0-0.6,0.3-1.1,0.9-1.2c0.5-0.1,1.1,0.1,1.3,0.6C24,51.3,32.8,58,38,58c1,0,1.8-0.3,2.3-0.8c0.7-0.8,1.1-2.1,1-4
			c0-0.6,0.4-1.1,1-1.2c0.6-0.1,1.2,0.3,1.3,0.9c2,10.5,5,11.3,5.9,11.3c1.2,0,2.5-1.2,3.4-3c0.2-0.5,0.7-0.7,1.2-0.6
			c0.5,0.1,0.9,0.5,1,1c0.2,1.3,0.3,2.8,0.4,4.6c0.6,8.5,1.5,21.4,9.2,21.4l0,0c0.1,0,0.2,0,0.3,0c11.7-0.5,18.5-13.9,19.3-15.4
			C84.4,71.8,84.8,71.5,85.2,71.5C85.2,71.5,85.2,71.5,85.2,71.5z"/>
	</g>
	<g>
		<path class="st6" d="M52.8,64.5c1.9-6.8,11.9-5.1,12.7,2.2c0.8,7.3-8.3,13.6-13,9.6"/>
	</g>
	<g>
		<path class="st3" d="M56,78.7c1.4,0,3-0.4,4.5-1.2c3.4-1.8,6.8-6,6.2-10.9c-0.5-4.8-4.4-7.2-7.7-7.5c-3.5-0.3-6.4,1.8-7.3,5.1
			c-0.2,0.6,0.2,1.2,0.8,1.4c0.6,0.2,1.2-0.2,1.4-0.8c0.7-2.8,3-3.6,4.9-3.4c2.4,0.2,5.2,2,5.6,5.4c0.4,3.8-2.3,7.2-5,8.7
			c-2.3,1.3-4.6,1.3-6.2,0c-0.5-0.4-1.2-0.3-1.6,0.1c-0.4,0.5-0.3,1.2,0.2,1.6C52.9,78.2,54.4,78.7,56,78.7z"/>
	</g>
	<g>
		<path class="st17" d="M34.4,96.1c1.2-1.1,3-1,4.1,0.2c1.1,1.2,1,3-0.2,4.1l-12.8,11.4l-3.7-0.6l-0.2-3.7L34.4,96.1L34.4,96.1z"/>
	</g>
	<g>
		<path class="st4" d="M36.7,102.4c0.1,0,0.2,0,0.3-0.1c0.2-0.1,0.3-0.4,0.2-0.6c-0.2-1-0.8-2-1.5-2.9c-0.8-0.9-1.7-1.5-2.7-1.9
			c-0.1,0-0.3,0-0.4,0c-0.3,0.1-0.4,0.5-0.3,0.7c0.1,0.2,0.2,0.3,0.4,0.3c0.8,0.3,1.5,0.8,2.2,1.5c0.6,0.7,1.1,1.5,1.3,2.3
			c0,0.1,0,0.2,0.1,0.3C36.4,102.3,36.6,102.4,36.7,102.4z"/>
	</g>
	<path class="st3" d="M25.4,112.4l-3.7-0.6c-0.3,0-0.5-0.3-0.5-0.5l-0.2-3.7c0-0.2,0.1-0.3,0.2-0.5L34,95.7c0,0,0.1,0,0.1-0.1
		c0.6-0.5,1.4-0.8,2.3-0.8c1,0,1.9,0.4,2.6,1.2c1.3,1.4,1.1,3.6-0.3,4.9l-12.8,11.4C25.8,112.4,25.6,112.4,25.4,112.4
		C25.5,112.4,25.4,112.4,25.4,112.4z M34.8,96.6C34.8,96.6,34.7,96.6,34.8,96.6l-12.6,11.2l0.1,3l3,0.5L37.9,100
		c1-0.9,1.1-2.3,0.2-3.3C37.7,96.2,37,96,36.4,96C35.8,96,35.2,96.2,34.8,96.6z"/>
	<g>
		<path class="st18" d="M29.8,102.5c-0.5,0.4-0.5,1.1-0.1,1.6c0.4,0.5,1.1,0.5,1.6,0.1l5.3-4.7c0.5-0.4,0.5-1.1,0.1-1.6
			c-0.4-0.5-1.1-0.5-1.6-0.1L29.8,102.5z"/>
	</g>
	<g>
		<path class="st3" d="M29.3,104.5c-0.3-0.3-0.5-0.8-0.4-1.2c0-0.5,0.2-0.9,0.6-1.2l5.3-4.7c0.7-0.6,1.8-0.5,2.4,0.1
			c0.6,0.7,0.6,1.8-0.1,2.4l-5.3,4.7c-0.3,0.3-0.7,0.4-1.1,0.4C30.1,105,29.7,104.8,29.3,104.5z M35.5,98.2l-5.3,4.7
			c-0.1,0.1-0.2,0.2-0.2,0.4c0,0.1,0,0.3,0.1,0.4c0.2,0.2,0.6,0.2,0.8,0l5.3-4.7c0.2-0.2,0.2-0.6,0-0.8c-0.1-0.1-0.3-0.2-0.4-0.2
			C35.7,98.1,35.6,98.1,35.5,98.2z"/>
	</g>
	<g>
		<path class="st4" d="M49.3,109.1c0.9-6.2,1.9-11.8,1.9-11.8c1.1-6.4,10-7,10.3-1.1c0.1,3.5-2,12.4-4.3,20.2
			c-0.6,2-2.9,2.5-4.7,2.5c-6.1,0-12.9-2.2-17.7-5.7c-0.9-0.7-1.1-3.3-0.8-4.6c0.4-1.5,2.6-3.1,4.3-2.6
			C40.7,106.6,48.2,108.5,49.3,109.1"/>
	</g>
	<g>
		<path class="st3" d="M40.7,116.1c0.1,0,0.2,0,0.3-0.1c0.1-0.1,2.7-1.6,3.5-5.6c0.1-0.3-0.1-0.6-0.5-0.7c-0.3-0.1-0.6,0.1-0.7,0.5
			c-0.7,3.5-2.9,4.8-2.9,4.8c-0.3,0.2-0.4,0.5-0.2,0.8C40.3,116,40.5,116.1,40.7,116.1z"/>
	</g>
	<g>
		<path class="st3" d="M52.5,120c0,0,0.1,0,0.1,0c4.2,0,5.4-2.1,5.8-3.3c1.4-4.7,4.5-16.2,4.3-20.5c-0.1-2.1-1.2-3.8-2.9-4.6
			c-2.1-1-4.9-0.6-6.9,0.9c-0.5,0.4-0.6,1.1-0.2,1.6c0.4,0.5,1.1,0.6,1.6,0.2c1.3-1,3.2-1.3,4.5-0.7c1,0.5,1.6,1.4,1.6,2.7
			c0.1,2.8-1.5,10.4-4.2,19.8c-0.3,1.1-1.5,1.6-3.6,1.6c0,0-0.1,0-0.1,0c-5.8,0-12.3-2.1-16.9-5.5c-0.3-0.3-0.7-2.3-0.3-3.4
			c0.2-0.5,0.7-1.2,1.4-1.6c0.5-0.3,1-0.4,1.4-0.3c0.7,0.2,1.8,0.5,3,0.8c2.7,0.7,7.1,1.9,7.8,2.3c0.3,0.2,0.7,0.2,1.1,0
			c0.3-0.2,0.6-0.5,0.6-0.9c0.3-1.9,0.7-3.6,1.1-5.2c0.5-1.8,0.8-3.4,0.9-4.7c0-0.6-0.5-1.2-1.1-1.2c0,0,0,0,0,0
			c-0.6,0-1.1,0.5-1.1,1.1c0,1-0.4,2.5-0.8,4.2c-0.3,1.2-0.6,2.6-0.9,4c-1.5-0.5-3.9-1.1-6.8-1.9c-1.2-0.3-2.3-0.6-2.9-0.8
			c-1-0.3-2.1-0.1-3.2,0.5c-1.2,0.7-2.2,1.8-2.5,2.9c-0.4,1.4-0.3,4.8,1.2,5.9C39.2,117.8,46.2,120,52.5,120z"/>
	</g>
	<g>
		<path class="st6" d="M38.9,112.1c1.6-2.7-0.4-7.2-3-8.2c-2.6-1-10.6,1.6-9.8,4c0.4,1,1.5,1.4,1.5,1.4
			C26.8,112.8,34.3,119.8,38.9,112.1"/>
	</g>
	<g>
		<path class="st3" d="M27.9,113.7c-1-1.2-1.5-2.5-1.6-3.7c-0.5-0.3-1-0.8-1.4-1.6c0,0,0-0.1,0-0.1c-0.2-0.8-0.1-1.6,0.5-2.3
			c1.5-2,6.1-3.6,9.1-3.6c0.8,0,1.4,0.1,2,0.3c1.7,0.7,3.2,2.4,3.9,4.6c0.7,2,0.5,4-0.3,5.4c-2,3.4-4.5,4.1-6.2,4.1
			C31.7,116.8,29.5,115.6,27.9,113.7z M27.4,107.5c0.2,0.4,0.7,0.5,0.7,0.5l0,0c0.6,0.2,1,0.8,0.8,1.5c-0.1,0.5,0.1,1.5,1,2.6
			c0.8,1.1,2.3,2.2,4,2.2c1.5,0,2.9-1,4-2.9c0.5-0.8,0.5-2,0.1-3.3c-0.5-1.5-1.5-2.7-2.5-3.1c-0.1-0.1-0.4-0.1-1-0.1
			C31.6,104.9,27.8,106.6,27.4,107.5z"/>
	</g>
</g>
</svg>
