<?xml version="1.0" encoding="utf-8"?>
<!-- Generator: Adobe Illustrator 21.0.2, SVG Export Plug-In . SVG Version: 6.00 Build 0)  -->
<svg version="1.1" id="Layer_1" xmlns="http://www.w3.org/2000/svg" xmlns:xlink="http://www.w3.org/1999/xlink" x="0px" y="0px"
	 viewBox="0 0 104 200.7" style="enable-background:new 0 0 104 200.7;" xml:space="preserve">
<style type="text/css">
	.st0{fill:#FFFFFF;}
	.st1{fill:#602900;}
	.st2{fill:#480148;}
	.st3{fill:#FFE2AA;}
	.st4{fill:#FFFA4D;}
	.st5{fill:#FFC931;}
	.st6{fill:#F9AC30;}
	.st7{fill:#FFF652;}
	.st8{fill:#89550A;}
	.st9{fill:#A56F17;}
	.st10{fill:#FFF98D;}
	.st11{fill:#FFDE39;}
	.st12{fill:#FFC569;}
	.st13{fill:#73FF7A;}
	.st14{fill:#FFC648;}
	.st15{fill:#D89819;}
	.st16{fill:#D7FFFF;}
	.st17{fill:#FFFA50;}
	.st18{fill:#FFFCC5;}
	.st19{fill:#FFCB48;}
	.st20{fill:#FF6464;}
	.st21{fill:#E03636;}
	.st22{fill:#FF9C9C;}
	.st23{fill:#EF4DB5;}
	.st24{fill:#FF99E0;}
	.st25{fill:#D130A0;}
	.st26{fill:#CCFFFC;}
	.st27{fill:#4C4CBF;}
	.st28{fill:#A9A9FF;}
	.st29{fill:#6B026B;}
	.st30{fill:#FFFF85;}
	.st31{fill:#33FEF3;}
	.st32{fill:#D29AD2;}
</style>
<g>
	<g>
		<path class="st0" d="M35.9,126.1c0.6-7.2,0.1-13.9,0.1-13.9c0.8-7.4,11.1-8.7,11.8-1.9c0.4,4-1.6,14.4-3.7,23.4
			c-0.6,2.4-3.1,3-5.2,3.1c-7,0.4-15-1.8-20.7-5.5c-1.1-0.7-1.5-3.8-1.2-5.3c0.4-1.8,2.8-3.7,4.7-3.3
			C24.5,123.4,34.6,125.5,35.9,126.1"/>
	</g>
	<g>
		<path class="st1" d="M27.7,136c-0.3,0-0.5-0.2-0.5-0.5c0-0.3,0.2-0.5,0.5-0.6c1.7-0.1,3-0.8,3.8-2.1c0.9-1.4,1-3.2,0.6-4.2
			c-0.1-0.3,0-0.6,0.3-0.7c0.3-0.1,0.6,0,0.7,0.3c0.4,1.3,0.3,3.4-0.7,5.1C31.6,134.5,30.3,135.8,27.7,136
			C27.7,136,27.7,136,27.7,136z"/>
	</g>
	<g>
		<path class="st2" d="M37.2,137.9c-6.8,0-14.1-2.1-19.6-5.7c-1.7-1.1-2-4.7-1.6-6.4c0.5-2.2,3-4.1,5.2-4.1c0.3,0,0.6,0,0.8,0.1
			c0.8,0.2,2.3,0.5,3.9,0.9c4,0.9,7.3,1.6,9.2,2.1c0.5-6.5,0.1-12.5,0-12.5c0-0.1,0-0.1,0-0.2c0.5-4.7,4.5-7.2,7.9-7.2
			c3.3,0,5.6,2.1,5.9,5.4c0.5,5.1-2.8,19.5-3.8,23.8c-0.4,1.6-1.8,3.7-6.2,3.9C38.4,137.9,37.8,137.9,37.2,137.9z M21.1,123.7
			c-1.3,0-2.9,1.4-3.2,2.5c-0.3,1.4,0.2,3.8,0.7,4.2c5.6,3.7,13.3,5.7,20.1,5.3c2.5-0.1,4-0.9,4.3-2.3c2-8.7,4.1-19.3,3.7-23.1
			c-0.3-3.3-3-3.5-3.9-3.5c-2.5,0-5.4,1.9-5.8,5.3c0.1,0.9,0.4,7.3-0.2,14c0,0.3-0.2,0.6-0.5,0.8c-0.3,0.2-0.6,0.2-0.9,0
			c-0.9-0.4-6.6-1.6-10.1-2.4c-1.7-0.4-3.1-0.7-4-0.9C21.4,123.7,21.2,123.7,21.1,123.7z"/>
	</g>
	<g>
		<path class="st3" d="M24.7,123.1c-3.4-3.7-9.1-6.9-5.2-0.4c-9.7-2.5-13.5,0.6-5.2,3c-6.9,0.6-7.4,1.8,1.2,3
			c-5.2,1.5-4.5,3.7,0.9,2.9c-2.3,2.6,0.1,3.2,7.2,0.5C26.2,130.8,25.8,124.6,24.7,123.1z"/>
	</g>
	<g>
		<path class="st2" d="M16.8,134.8L16.8,134.8c-1,0-1.7-0.3-2-0.9c-0.2-0.4-0.2-0.8,0-1.2c-0.2,0-0.3,0-0.5,0c-2.6,0-3.1-1-3.1-1.6
			c-0.1-0.7,0.4-1.4,1.4-2c-3.9-0.8-4.3-1.4-4.3-2.2c0-0.7,0.5-1.2,2.7-1.6c-1.5-0.8-2.2-1.6-2-2.5c0.2-1.2,1.7-1.8,4.2-1.8
			c1.4,0,3,0.2,4.8,0.6c-0.6-1.3-0.7-2.1-0.4-2.7c0.2-0.4,0.7-0.7,1.2-0.7c1.8,0,5,2.7,6.5,4.4c0,0,0,0.1,0.1,0.1
			c0.9,1.3,1.3,4.7,0.7,7.1c-0.4,1.6-1.1,2.7-2.2,3.3c0,0-0.1,0-0.1,0C20.7,134.2,18.3,134.8,16.8,134.8z M16.4,133.1
			c0.1,0,0.2,0,0.5,0c0.7,0,2.5-0.2,6.3-1.7c0.7-0.4,1.1-1.4,1.3-2.2c0.5-2.2,0.1-4.9-0.4-5.7c-2-2.1-4.1-3.5-5.1-3.8
			c0.1,0.4,0.3,1.1,1.2,2.5c0.2,0.3,0.2,0.6,0,0.9c-0.2,0.3-0.5,0.4-0.9,0.3c-2.9-0.8-4.9-0.9-6.1-0.9c-1.7,0-2.4,0.3-2.6,0.5
			c0.2,0.3,1.2,1.1,4,1.9c0.4,0.1,0.6,0.5,0.6,0.9c0,0.4-0.4,0.7-0.8,0.7c-1.8,0.2-2.9,0.3-3.6,0.5c0.8,0.2,2.3,0.6,4.9,1
			c0.4,0.1,0.7,0.4,0.7,0.8c0,0.4-0.2,0.7-0.6,0.8c-1.8,0.5-2.6,1-2.8,1.3c0.2,0.1,0.6,0.2,1.4,0.2c0.6,0,1.2-0.1,1.9-0.2
			c0.3-0.1,0.7,0.1,0.8,0.4c0.2,0.3,0.1,0.7-0.1,0.9C16.6,132.7,16.4,133,16.4,133.1z"/>
	</g>
	<g>
		<path class="st4" d="M68.1,8.2c-7,8.3-3.3,17.6,5,24.6c8.3,7,18.1,9.1,25.1,0.8c7-8.3,6-20.7-2.3-27.8C87.6-1.2,75.1-0.2,68.1,8.2
			z"/>
	</g>
	<g>
		<path class="st5" d="M66.4,24.7c4.8,6.1,28.7,1.5,30.3-18.2c7.5,7.1,8.3,19,1.5,27c-7,8.3-16.8,6.2-25.1-0.8
			C70.2,30.3,67.9,27.6,66.4,24.7z"/>
	</g>
	<g>
		<g>
			<path class="st2" d="M81.9,38.8c-0.3,0-0.6-0.1-0.7-0.4C69.5,19.9,80.7,1,80.8,0.8c0.2-0.4,0.8-0.5,1.2-0.3
				c0.4,0.2,0.5,0.8,0.3,1.2c-0.1,0.2-10.8,18.3,0.4,35.9c0.2,0.4,0.1,0.9-0.3,1.2C82.2,38.8,82.1,38.8,81.9,38.8z"/>
		</g>
		<g>
			<path class="st2" d="M75.5,35.4c-0.3,0-0.5-0.1-0.7-0.3c-8.1-11.2-1.6-26.3-1.3-26.9c0.2-0.4,0.7-0.6,1.1-0.4
				c0.4,0.2,0.6,0.7,0.4,1.1C75,9,68.7,23.7,76.2,34.1c0.3,0.4,0.2,0.9-0.2,1.2C75.8,35.4,75.7,35.4,75.5,35.4z"/>
		</g>
		<g>
			<path class="st2" d="M82.2,27.1c-1.8,0-3.5-0.2-5.2-0.6c-0.5-0.1-0.7-0.6-0.6-1c0.1-0.5,0.6-0.7,1-0.6c11.2,3,24.8-6.3,25-6.4
				c0.4-0.3,0.9-0.2,1.2,0.2c0.3,0.4,0.2,0.9-0.2,1.2C102.8,20.2,92.6,27.1,82.2,27.1z"/>
		</g>
		<g>
			<path class="st2" d="M83.8,32.4c-1.7,0-3.5-0.2-5.4-0.5c-0.5-0.1-0.8-0.5-0.7-1c0.1-0.5,0.5-0.8,1-0.7
				c13.8,2.6,23.2-6.3,23.3-6.4c0.3-0.3,0.9-0.3,1.2,0c0.3,0.3,0.3,0.9,0,1.2C102.8,25.3,95.4,32.4,83.8,32.4z"/>
		</g>
		<g>
			<path class="st2" d="M78.9,22.1c-0.8,0-1.5,0-2.3-0.1c-0.5-0.1-0.8-0.5-0.7-0.9c0.1-0.5,0.5-0.8,0.9-0.7
				c8.7,1.1,18.4-5.3,18.5-5.3c0.4-0.3,0.9-0.1,1.2,0.2c0.3,0.4,0.2,0.9-0.2,1.2C95.8,16.6,87.4,22.1,78.9,22.1z"/>
		</g>
	</g>
	<g>
		<path class="st2" d="M87.4,40.1L87.4,40.1c-4.8,0-10-2.2-15-6.5c-4.5-3.8-7.5-8.1-8.6-12.4c-1.2-4.9,0-9.6,3.5-13.8
			C71.2,2.7,77,0,83.2,0c4.9,0,9.7,1.7,13.4,4.9c8.8,7.4,9.9,20.6,2.5,29.4C95.8,38.2,91.9,40.1,87.4,40.1z M83.2,2.3
			c-5.5,0-10.6,2.4-14.2,6.6c-3.1,3.6-4.1,7.6-3,11.8c1,3.8,3.7,7.7,7.9,11.2c4.6,3.9,9.3,5.9,13.5,5.9c3.8,0,7.2-1.7,10-5
			c6.6-7.8,5.6-19.5-2.2-26.1C91.8,3.9,87.5,2.3,83.2,2.3z"/>
	</g>
	<g>
		<path class="st6" d="M65,23.1C59.6,16.7,58.2,5,59.6,3.8c1.9,0.7,2.9,3.1,2.9,3.1c1-1.5,4.1-3,4.1-3C65.9,6.3,63.8,19.7,65,23.1"
			/>
	</g>
	<g>
		<path class="st2" d="M65,24.3c-0.3,0-0.7-0.1-0.9-0.4c-4.8-5.7-6.5-15-6.1-18.7c0.1-1.1,0.4-1.8,0.9-2.2c0.3-0.3,0.8-0.3,1.1-0.2
			c1.2,0.5,2.1,1.4,2.7,2.3c1.4-1.2,3.1-2,3.4-2.1c0.4-0.2,0.9-0.1,1.3,0.2c0.3,0.3,0.5,0.8,0.3,1.2C67,6.9,65.1,19.4,66,22.6
			c0.1,0.2,0.1,0.3,0.1,0.5C66.2,23.8,65.7,24.3,65,24.3C65,24.3,65,24.3,65,24.3z M60.3,5.6c-0.2,2.4,0.7,8.2,3.2,13.1
			c0.1-4,0.9-9.3,1.5-12.5c-0.6,0.4-1.1,0.9-1.4,1.3c-0.2,0.3-0.6,0.5-1.1,0.5c-0.4,0-0.8-0.3-1-0.7C61.4,7,60.9,6.2,60.3,5.6z"/>
	</g>
	<g>
		<path class="st7" d="M65.1,23c-8.3-1.3-17-9.3-16.7-11.1c1.9-0.7,4.2,0.4,4.2,0.4c-0.2-1.8,1.1-4.9,1.1-4.9
			C54.7,9.6,61.9,21.2,65.1,23"/>
	</g>
	<g>
		<path class="st2" d="M65.1,24.2c-0.1,0-0.1,0-0.2,0C57.6,23,50.1,17,48,14c-0.6-0.9-0.9-1.7-0.8-2.3c0.1-0.4,0.4-0.7,0.8-0.9
			c1.1-0.4,2.5-0.3,3.5-0.1c0.3-1.8,1-3.5,1.2-3.8c0.2-0.4,0.6-0.7,1.1-0.7h0c0.5,0,0.9,0.3,1.1,0.7c1.1,2.5,7.9,13.3,10.7,15
			c0.4,0.2,0.7,0.6,0.7,1.1C66.2,23.6,65.7,24.2,65.1,24.2C65.1,24.2,65.1,24.2,65.1,24.2z M50,12.8c1.5,1.9,5.9,5.8,11,7.8
			c-2.6-3.1-5.4-7.6-7-10.4c-0.2,0.7-0.3,1.4-0.2,1.9c0.1,0.4-0.1,0.8-0.5,1.1c-0.3,0.2-0.8,0.3-1.2,0.1
			C52.1,13.3,51.1,12.9,50,12.8z"/>
	</g>
	<g>
		<path class="st3" d="M45.8,145.8c-3.1,10.5-13.5,43.4-15.9,44.9c-2.5,1.4-4.7,2.5-4.8,4.8c-0.2,2.3,10.7,4.1,10.7,4.1
			c2.7-2.6,17.6-37.2,25.2-50.4c1.4-2.6,1.5-6.6-4.4-8.9C50.6,138,47.9,138.5,45.8,145.8"/>
	</g>
	<g>
		<path class="st0" d="M33.3,183.6c-1.5,4-2.8,6.7-3.5,7.1c-2.5,1.4-4.7,2.5-4.8,4.8c-0.2,2.3,10.7,4.1,10.7,4.1
			c1-0.9,3.5-5.9,6.7-12.6L33.3,183.6z"/>
	</g>
	<g>
		<path class="st2" d="M35.7,200.7c-0.1,0-0.1,0-0.2,0c-7.9-1.3-11.8-3.2-11.6-5.4c0.2-2.6,2.4-3.9,4.7-5.2c0.2-0.1,0.5-0.3,0.7-0.4
			c2.1-2,11.2-29.8,15.5-44.2c1.2-3.9,2.8-7.5,6.9-7.5c1.4,0,3,0.4,5.3,1.3c3,1.1,4.8,2.8,5.6,4.9c0.6,1.8,0.4,3.7-0.6,5.6
			c-3.7,6.5-9.3,18.2-14.2,28.6c-6.2,13.2-9.8,20.7-11.3,22.1C36.2,200.6,36,200.7,35.7,200.7z M26.2,195.4c0.6,0.8,4.7,2.1,9,2.9
			c1.6-2.4,6.3-12.2,10.4-21c4.9-10.4,10.5-22.2,14.3-28.7c0.4-0.7,1-2.2,0.4-3.7c-0.5-1.4-2-2.6-4.3-3.5c-2-0.8-3.4-1.1-4.5-1.1
			c-1.8,0-3.2,1-4.7,5.9c-0.1,0.4-13,43.5-16.5,45.6c-0.3,0.2-0.5,0.3-0.8,0.4C27.6,193.3,26.3,194.1,26.2,195.4z"/>
	</g>
	<g>
		<path class="st8" d="M37.5,196.6c-2.2-0.9-4.6-3.8-8-5.8c-2.3,1.4-4.3,2.4-4.5,4.6c-0.2,2.3,10.7,4.1,10.7,4.1
			C36.1,199.2,36.7,198.2,37.5,196.6"/>
	</g>
	<g>
		<path class="st2" d="M35.7,200.7c-0.1,0-0.1,0-0.2,0c-7.9-1.3-11.8-3.2-11.6-5.4c0.2-2.6,2.4-3.9,4.7-5.2l0.4-0.3
			c0.4-0.2,0.8-0.2,1.2,0c1.8,1,3.3,2.3,4.6,3.4c1.2,1.1,2.3,2,3.2,2.3c0.3,0.1,0.5,0.4,0.7,0.7c0.1,0.3,0.1,0.7-0.1,0.9
			c-1.2,2.3-1.8,2.9-2.1,3.2C36.2,200.6,36,200.7,35.7,200.7z M26.2,195.4c0.6,0.8,4.7,2.1,9,2.9c0.2-0.2,0.4-0.6,0.7-1.2
			c-0.9-0.5-1.7-1.3-2.7-2.1c-1.1-0.9-2.3-1.9-3.7-2.8C27.5,193.4,26.3,194.1,26.2,195.4z"/>
	</g>
	<g>
		<path class="st3" d="M63,166.7c14.3,4.8,25.2,8.1,27,9.6c0,0-0.5,11-2.8,11.1c-2.3,0.1-3.6-2-5.3-4.2c-1.1-1.5-12.6-3.4-25.8-5.9
			c-3-0.7-6.6-3.7-2.9-24.9c2.5-9.3,10.1-10.5,11.6-3.8C66.1,155.2,63,166.7,63,166.7z"/>
	</g>
	<g>
		<path class="st0" d="M81.8,183.2c1.7,2.3,3,4.3,5.3,4.2c2.3-0.1,2.8-11.1,2.8-11.1c-1-0.8-6-2.6-12.7-4.9l-3.1,9.1
			C78.4,181.6,81.4,182.5,81.8,183.2"/>
	</g>
	<g>
		<path class="st2" d="M87,188.5c-2.5,0-4-1.9-5.6-4c-0.2-0.2-0.3-0.5-0.5-0.7c-1-0.9-9.8-2.6-18.3-4.2c-2.2-0.4-4.5-0.8-6.8-1.3
			c-4-0.9-7.6-4.8-3.9-26.2c0,0,0-0.1,0-0.1c1.8-6.6,5.6-8.9,8.4-8.9c2.6,0,4.7,2,5.4,5.1c1.3,5.7-0.7,14.6-1.4,17.7
			c2.9,1,5.6,1.9,8.2,2.7c11.2,3.7,16.7,5.5,18.2,6.7c0.3,0.2,0.4,0.6,0.4,1c-0.4,8-1.7,12.1-3.9,12.2
			C87.1,188.5,87.1,188.5,87,188.5z M54.2,152.6c-3.9,22.1,0.6,23.2,2.1,23.5c2.3,0.4,4.6,0.9,6.8,1.3c13.7,2.6,18.6,3.6,19.7,5.1
			c0.2,0.2,0.4,0.5,0.5,0.7c1.5,1.9,2.4,3.1,3.7,3.1c0.7-0.7,1.5-4.9,1.8-9.3c-2.1-1.1-9-3.4-17-6c-2.9-0.9-5.9-1.9-9.2-3
			c-0.6-0.2-0.9-0.8-0.8-1.4c0-0.1,3.1-11.3,1.7-17.6c-0.5-2.1-1.6-3.3-3.1-3.3C58.3,145.5,55.6,147.7,54.2,152.6z"/>
	</g>
	<g>
		<path class="st9" d="M86.8,174.8c-0.6,2.2-3.2,5-4.8,8.6c1.6,2.1,2.9,4,5.1,3.9c2.3-0.1,2.8-11.1,2.8-11.1
			C89.5,175.9,88.4,175.4,86.8,174.8"/>
	</g>
	<g>
		<path class="st2" d="M87,188.5L87,188.5c-2.5,0-4-1.9-5.6-4l-0.3-0.4c-0.2-0.3-0.3-0.8-0.1-1.2c0.8-1.9,1.9-3.5,2.8-5
			c0.9-1.4,1.7-2.5,1.9-3.5c0.1-0.3,0.3-0.6,0.6-0.7c0.3-0.2,0.6-0.2,1,0c2.4,0.9,3.1,1.4,3.4,1.7c0.3,0.2,0.4,0.6,0.4,1
			c-0.4,8-1.7,12.1-3.9,12.2C87.1,188.5,87.1,188.5,87,188.5z M83.4,183.3c1.4,1.9,2.3,2.9,3.6,2.9c0.7-0.7,1.5-4.9,1.8-9.3
			c-0.3-0.1-0.7-0.3-1.3-0.6c-0.4,0.9-1.1,1.9-1.7,2.9C85,180.5,84.1,181.8,83.4,183.3z"/>
	</g>
	<g>
		<path class="st10" d="M41.5,141.5c-6.6,7.8-9.3,16.7-7.5,17.9c1.8,1.2,4.9,0,4.9,0c1.1,3.1,5.4,4.5,7.5,0.5
			c1.7,5.5,7.2,4.3,7.5,0.5c2,5.3,9.6,2.7,9.6,0c2.2,4.3,9.1,2.8,9,0c2.3,2.5,8.1,2.9,7-3.1c-2.5-7-6.9-13-8.9-15.9
			C68.5,141.6,41.5,141.5,41.5,141.5z"/>
	</g>
	<g>
		<path class="st11" d="M71.5,142.8c-0.4-0.5-0.7-1-1-1.4c-2.1,0.2-29.1,0-29.1,0c-0.7,0.8-1.4,1.7-2,2.6c-1.4,3.5,1.3,5.3,3.8,1.4
			c3-0.6,5.4-1.1,6.2-0.4c0.1,4,2.4,5.9,3.3,0.3c0.6,3.6,2.2,0.7,2-0.7c2.4,0.3,8.4-0.3,8.4-0.3c0.5,3.6,2.4,2.6,2.2-0.4
			c0.6,4.2,2.4,9.3,3.5,1.2c0.6,1.9,2.6,1.2,1.5-1.8C70.4,143.4,70.9,143.1,71.5,142.8z"/>
	</g>
	<g>
		<path class="st12" d="M79.5,157.3c-0.1-0.2-0.1-0.3-0.2-0.5c-1.3,3-6.2,1.7-7.7,0.1c-0.3,3.5-6.6,3.6-8.8,0c-1.6,3.1-6.5,3-9.6,0
			c-1.4,3-4.9,3.6-6.8-1.1c-2.9,4-5.7,2.5-6.6-0.6c-1,1.6-4,2.1-6.3,1.1c-0.3,1.6-0.2,2.7,0.4,3.1c1.8,1.2,4.9,0,4.9,0
			c1.1,3.1,5.4,4.5,7.5,0.5c1.7,5.5,7.2,4.3,7.5,0.5c2,5.3,9.6,2.7,9.6,0c2.2,4.3,9.1,2.8,9,0C74.8,162.9,80.6,163.3,79.5,157.3z"/>
	</g>
	<path class="st2" d="M50.5,164.6c-1.4,0-3.2-0.8-4.3-2.8c-0.9,0.9-2.1,1.4-3.3,1.4c-1.8,0-3.6-1.1-4.5-2.8
		c-0.6,0.2-1.5,0.3-2.3,0.3c-1.1,0-1.9-0.2-2.6-0.7c-0.5-0.3-0.8-0.9-0.9-1.7c-0.4-3.3,2.6-10.9,8.3-17.6c0.2-0.2,0.5-0.3,0.8-0.3
		c0,0,0,0,0,0c0.1,0,10.9,0.1,19.2,0.1c7.3,0,9.3,0,9.8-0.1c0.4,0,0.7,0.1,0.9,0.4l0.6,0.8c2.1,3.1,6.1,8.7,8.5,15.3
		c0,0.1,0,0.1,0,0.2c0.4,2,0.1,3.5-0.8,4.6c-0.7,0.9-1.9,1.4-3.2,1.4c-1.2,0-2.4-0.4-3.5-1c-0.1,0.1-0.2,0.3-0.3,0.4
		c-0.9,1-2.6,1.6-4.4,1.6c-1.8,0-3.4-0.6-4.6-1.8c-1.1,1.3-3.3,2.2-5.3,2.2c-1.8,0-3.3-0.6-4.3-1.8C53.3,163.9,52,164.6,50.5,164.6z
		 M46.4,158.9C46.4,158.9,46.5,158.9,46.4,158.9c0.5,0,0.8,0.3,0.9,0.7c0.6,1.9,1.8,3.1,3.2,3.1c1.1,0,2.3-0.8,2.4-2.3
		c0-0.5,0.4-0.8,0.9-0.9c0.5-0.1,0.9,0.2,1.1,0.6c0.7,2,2.4,2.5,3.6,2.5c2.2,0,4-1.3,4-2.1c0-0.5,0.3-0.9,0.8-1
		c0.4-0.1,0.9,0.1,1.1,0.5c1,2,3.1,2.2,3.9,2.2c1.2,0,2.4-0.4,3-1c0.2-0.2,0.3-0.4,0.3-0.7c0-0.4,0.2-0.8,0.6-1
		c0.4-0.2,0.8-0.1,1.1,0.2c0.8,0.8,2.1,1.4,3.3,1.4c0.5,0,1.2-0.1,1.7-0.7c0.5-0.6,0.6-1.6,0.4-2.9c-2.3-6.3-6.1-11.8-8.2-14.7
		l-0.3-0.4c-1.3,0-4.4,0.1-9.3,0.1c-7.4,0-16.6,0-18.8-0.1c-6.2,7.6-8.2,15.2-7.4,16.1c0.3,0.2,0.8,0.3,1.5,0.3
		c1.3,0,2.5-0.5,2.5-0.5c0.2-0.1,0.5-0.1,0.8,0c0.2,0.1,0.4,0.3,0.5,0.6c0.5,1.4,1.7,2.3,3,2.3c1.1,0,2-0.7,2.7-1.9
		C45.7,159.1,46,158.9,46.4,158.9z"/>
	<g>
		<path class="st13" d="M41.4,109.6c-2.5,11.5-1.2,30.2,0.1,31.9c1.3,1.7,23.7,3.5,29.2-3.9c-2.1-12.9-9.5-32.5-9.5-32.5
			c-0.9-1.3-3-2.5-10.1-1.6C44,104.4,41.6,106.9,41.4,109.6z"/>
	</g>
	<g>
		<path class="st1" d="M50.1,116c0,0.8-0.6,1.4-1.4,1.5c-0.8,0-1.4-0.6-1.5-1.4c0-0.8,0.6-1.4,1.4-1.4
			C49.4,114.6,50.1,115.2,50.1,116"/>
	</g>
	<g>
		<path class="st1" d="M50.3,125.1c0,0.8-0.6,1.4-1.4,1.5c-0.8,0-1.4-0.6-1.5-1.4c0-0.8,0.6-1.4,1.4-1.5
			C49.6,123.7,50.3,124.3,50.3,125.1"/>
	</g>
	<g>
		<path class="st1" d="M50.8,134.6c0,0.8-0.6,1.4-1.4,1.5c-0.8,0-1.4-0.6-1.5-1.4c0-0.8,0.6-1.4,1.4-1.4
			C50.1,133.2,50.7,133.8,50.8,134.6"/>
	</g>
	<g>
		<path class="st3" d="M48,111c-2.3,0-3.5-2.6-3.6-5.5c1.5-0.9,3.7-1.6,6.8-2c3.8-0.5,6.2-0.4,7.7,0C56.6,110.8,50.4,111,48,111"/>
	</g>
	<g>
		<path class="st2" d="M48.4,111.9c-0.2,0-0.3,0-0.4,0c-2.6,0-4.3-2.4-4.5-6.4c0-0.3,0.2-0.7,0.5-0.8c1.7-1,4.1-1.7,7.1-2.1
			c3.6-0.5,6.2-0.4,8,0.1c0.2,0.1,0.4,0.2,0.5,0.4c0.1,0.2,0.1,0.5,0.1,0.7C58.6,107.5,55.7,111.9,48.4,111.9z M45.3,106
			c0.2,1.4,0.7,4.1,2.7,4.1c0.1,0,0.3,0,0.4,0c4.6,0,7.8-2,9.2-5.9c-1.6-0.2-3.7-0.2-6.4,0.2C48.7,104.7,46.7,105.2,45.3,106z"/>
	</g>
	<g>
		<path class="st2" d="M52.2,144.1C52.2,144.1,52.2,144.1,52.2,144.1c-0.4,0-10.1,0-11.6-2c-1.6-2.1-2.8-21.3-0.4-32.8
			c0.4-3.8,4-6.2,10.8-7.1c6.2-0.8,9.7-0.2,11.2,2.1c0,0.1,0.1,0.2,0.1,0.2c0.1,0.2,7.5,19.9,9.6,32.8c0.1,0.3,0,0.6-0.2,0.9
			C67.7,143.6,56.7,144.1,52.2,144.1z M42.4,140.7c0.8,0.4,4.5,1.1,9.8,1.1c8.3,0,14.7-1.7,17.3-4.5c-2.1-12.1-8.7-30-9.3-31.7
			c-0.3-0.4-1.2-1.3-4.7-1.3c-1.2,0-2.6,0.1-4.2,0.3c-5.5,0.7-8.5,2.4-8.7,5.1c0,0,0,0.1,0,0.1C40.1,120.9,41.4,138.5,42.4,140.7z"
			/>
	</g>
	<g>
		<path class="st0" d="M43.5,105.5c-1.1,0.8-1.7,1.9-1.9,3c-3.6,11.2-4.8,24.9-5.6,28.9c0,0-1.6,15.4-1.3,21.2
			c0.8,0.8,3.1,2.2,7.8,2.3C41.9,151.7,41.1,119,43.5,105.5"/>
	</g>
	<g>
		<path class="st2" d="M42.5,162C42.5,162,42.5,162,42.5,162c-5.4-0.1-7.8-1.9-8.6-2.6c-0.2-0.2-0.3-0.5-0.4-0.8
			c-0.3-5.8,1.2-20.7,1.3-21.3c0,0,0-0.1,0-0.1c0.2-1,0.4-2.6,0.7-4.7c0.8-5.9,2.2-15.8,4.9-24.3c0.3-1.4,1.1-2.7,2.3-3.6
			c0.4-0.3,0.9-0.3,1.3-0.1c0.4,0.2,0.6,0.7,0.5,1.2c-2.3,13.1-1.6,45.1-1,55.1c0,0.3-0.1,0.6-0.3,0.9C43.1,161.9,42.8,162,42.5,162
			z M35.8,158c0.7,0.5,2.3,1.4,5.4,1.6c-0.5-9.3-1-31.5,0.1-46.1c-1.8,7.1-2.8,14.5-3.5,19.3c-0.3,2.1-0.5,3.7-0.7,4.8
			C37,138.5,35.7,152.2,35.8,158z"/>
	</g>
	<g>
		<path class="st2" d="M41.9,135.1c-0.1,0-0.1,0-0.2,0l-0.3-0.1c-0.3-0.1-0.6-0.3-0.7-0.6c-0.1-0.3-2.3-7.4-3.2-12.5
			c0-0.1,0-0.2,0-0.3c0.9-5.2,2-9.5,3.2-13.3c0.3-1.4,1-2.6,2.2-3.5c0.3-0.2,0.7-0.3,1-0.1c0.3,0.2,0.5,0.6,0.4,0.9
			c-1.3,7.1-1.6,19.4-1.6,28.5c0,0.3-0.1,0.5-0.3,0.7C42.3,135,42.1,135.1,41.9,135.1z M39.3,121.8c0.4,2.2,1.1,4.8,1.7,7.1
			c0.1-6,0.3-12.7,0.9-18.1C40.9,113.9,40.1,117.6,39.3,121.8z"/>
	</g>
	<g>
		<path class="st0" d="M39.1,138.1c0,0-3.8-0.8-4.6-2.1c-1,6.8-1,12.5-0.2,12.8c2,0.8,3.9,1.5,3.9,1.5
			C38.9,148.4,39.1,138.1,39.1,138.1"/>
	</g>
	<g>
		<path class="st2" d="M38.2,151.5c-0.1,0-0.3,0-0.4-0.1c0,0-1.9-0.7-3.9-1.5c-0.9-0.4-1.4-1.3-1.3-5.1c0-2.5,0.3-5.7,0.8-9
			c0.1-0.5,0.4-0.9,0.9-1c0.5-0.1,1,0.1,1.2,0.5c0.3,0.5,2.3,1.3,3.8,1.6c0.5,0.1,0.9,0.6,0.9,1.2c0,1.1-0.3,10.5-1,12.5
			c-0.1,0.3-0.3,0.6-0.6,0.7C38.5,151.5,38.4,151.5,38.2,151.5z M35.1,147.9c0.8,0.3,1.6,0.6,2.3,0.9c0.3-2.2,0.5-6.6,0.6-9.7
			c-0.7-0.2-1.7-0.5-2.5-0.9C34.7,143.4,34.8,146.9,35.1,147.9z"/>
	</g>
	<g>
		<path class="st1" d="M39.1,142.4c-0.1,0-0.1,0-0.2,0c-5-1.9-5.3-2.6-5.3-2.9c-0.1-0.3,0.1-0.6,0.4-0.7c0.3-0.1,0.6,0,0.7,0.3
			c0.4,0.4,2.7,1.5,4.7,2.2c0.3,0.1,0.4,0.5,0.3,0.8C39.5,142.3,39.3,142.4,39.1,142.4z"/>
	</g>
	<g>
		<path class="st0" d="M56.7,103.5c3.3,0.4,4.6,1.4,5.1,2.4c0,0,7.5,17.6,9.8,28.7c2.2,5.3,9.3,19.2,8.2,21.5
			c-5.2,4.4-15.7,5.1-22.2,4.8C53.8,145.3,50.5,121.3,56.7,103.5"/>
	</g>
	<g>
		<path class="st2" d="M60.2,162.1c-0.9,0-1.8,0-2.7-0.1c-0.5,0-1-0.4-1.1-0.9c-2.6-10.7-7.9-37.9-0.9-58.1c0.2-0.5,0.7-0.8,1.2-0.8
			c3.2,0.4,5.1,1.3,6,3c0,0,0,0.1,0,0.1c0.3,0.7,7.6,17.7,9.9,28.8c0.6,1.4,1.5,3.4,2.5,5.6c4.7,10.3,6.5,14.9,5.6,16.7
			c-0.1,0.1-0.2,0.3-0.3,0.4C75.3,161.4,65.5,162.1,60.2,162.1z M58.5,159.7c0.6,0,1.1,0,1.7,0c4,0,13.6-0.4,18.6-4.4
			c0.1-1.9-3.6-10.1-5.7-14.6c-1.1-2.3-2-4.3-2.6-5.8c0-0.1,0-0.1-0.1-0.2c-2.2-10.6-9.3-27.4-9.7-28.4c-0.2-0.3-0.7-1.2-3.3-1.6
			C51.2,123.8,55.9,148.9,58.5,159.7z"/>
	</g>
	<g>
		<path class="st2" d="M53.5,136.3C53.5,136.3,53.5,136.3,53.5,136.3c-0.5,0-0.9-0.4-0.9-0.8c-0.9-12.7,0.2-23.6,3.2-32.3
			c0.1-0.4,0.5-0.6,1-0.6c1.6,0.2,2.9,0.5,3.8,1c0.3,0.2,0.5,0.5,0.5,0.8c0.1,4.9,0.5,8.4,0.8,10.9c0.2,1.5,0.3,2.7,0.3,3.7
			c0,0.2-0.1,0.4-0.2,0.5c-2.7,3.7-5.8,8.6-7.6,16C54.3,136,53.9,136.3,53.5,136.3z M57.3,104.5c-2.4,7.1-3.4,15.7-3.1,25.7
			c1.8-4.9,4.1-8.5,6.2-11.4c0-0.9-0.2-1.9-0.3-3.3c-0.3-2.5-0.7-5.8-0.8-10.5C58.7,104.8,58.1,104.6,57.3,104.5z"/>
	</g>
	<g>
		<path class="st0" d="M60,138.4c1.8-0.5,12.2-2.2,13.5-2.7c1.8,6.4,2.7,12,2.6,12.4c-5.2,1.8-12.4,2.8-13.1,2.2
			C61.5,145.4,60,138.4,60,138.4"/>
	</g>
	<g>
		<path class="st2" d="M64.1,151.6c-0.9,0-1.5-0.1-1.9-0.5c-0.2-0.1-0.3-0.3-0.4-0.5c-1.5-4.9-3-11.9-3-12c-0.1-0.6,0.2-1.2,0.8-1.4
			c0.8-0.2,3-0.6,5.5-1.1c3-0.6,7.2-1.3,7.8-1.6c0.3-0.1,0.6-0.1,0.9,0c0.3,0.1,0.5,0.4,0.6,0.7c1.4,4.9,2.9,12,2.6,13
			c-0.1,0.4-0.4,0.6-0.7,0.7C72.3,150.6,66.7,151.6,64.1,151.6z M63.9,149.3c0.1,0,0.1,0,0.2,0c1.9,0,6.7-0.7,10.8-2.1
			c-0.2-1.6-0.9-5.5-2.2-10.1c-1.4,0.3-3.8,0.8-7,1.4c-1.6,0.3-3.2,0.6-4.3,0.8C61.8,141.3,62.8,145.7,63.9,149.3z"/>
	</g>
	<g>
		<path class="st2" d="M61.8,142.4c-0.3,0-0.5-0.2-0.6-0.5c-0.1-0.3,0.2-0.6,0.5-0.7c0.1,0,6.7-1.1,8.7-1.5c0.3-0.1,0.6,0.1,0.7,0.4
			c0.1,0.3-0.1,0.6-0.4,0.7C68.7,141.3,62.2,142.3,61.8,142.4C61.9,142.4,61.8,142.4,61.8,142.4z"/>
	</g>
	<g>
		<path class="st3" d="M14.4,74.5c-2.1-6.9-12.3-5-13,2.5c-0.7,7.5,8.8,13.7,13.6,9.6"/>
	</g>
	<g>
		<path class="st2" d="M11.3,89.3c-1.4,0-3-0.4-4.5-1.2C3.2,86.3-0.4,82,0,76.9c0.5-5,4.4-7.7,7.9-8c3.7-0.4,6.8,1.7,7.8,5.2
			c0.2,0.7-0.2,1.5-0.9,1.7c-0.7,0.2-1.5-0.2-1.7-0.9c-1-3.4-4-3.3-4.9-3.3c-2.4,0.2-5.1,2.1-5.4,5.5C2.5,81,5.3,84.3,8,85.7
			c2.3,1.2,4.6,1.1,6.1-0.1c0.6-0.5,1.5-0.4,2,0.1c0.5,0.6,0.4,1.5-0.1,2C14.6,88.7,13,89.3,11.3,89.3z"/>
	</g>
	<g>
		<path class="st3" d="M87.4,79.1c0.7-1.8,1.3-3.6,1.7-5.3c3.2-14.1-0.8-32.2-12.3-41.5c-6.2-5-16-8.3-24-9.7
			c-20-3.5-41.9,10.3-44.6,31.9c-1.6,12.9-2.1,24.2,3.2,35C14.7,96,20.5,100,28,102.9c9.9,3.8,25.3,4.4,35.4,0.8
			c5-1.8,9.9-5.3,14-9.6c4.1,4.1,13.8,0.4,14.9-6.6C93,83.3,90.4,80.1,87.4,79.1"/>
	</g>
	<g>
		<path class="st5" d="M56.9,71.3c2.6-1,6.9-0.2,9.1,1.5C65.4,69.9,60,66.9,56.9,71.3"/>
	</g>
	<g>
		<path class="st5" d="M24.3,70.3c-2.4-1.5-6.8-1.4-9.2-0.1C16.1,67.5,22,65.5,24.3,70.3"/>
	</g>
	<g>
		<path class="st2" d="M47.2,100.1c-0.2,0-0.3,0-0.4,0c-2-0.1-4.2-1.1-4.3-2.8c0-0.5,0.3-0.9,0.8-0.9c0.5,0,0.9,0.3,0.9,0.8
			c0,0.4,1.1,1.1,2.7,1.2c1.1,0.1,3.8-0.1,4.5-3.3c0.1-0.5,0.5-0.8,1-0.6c0.5,0.1,0.7,0.5,0.7,1C52.3,98.9,49.6,100.1,47.2,100.1z"
			/>
	</g>
	<g>
		<path class="st12" d="M69.5,92.4c-0.3,2.5-2.5,4.3-5,4c-2.5-0.3-4.3-2.5-4-5c0.3-2.5,2.5-4.3,5-4C68,87.6,69.8,89.9,69.5,92.4"/>
	</g>
	<g>
		<path class="st12" d="M14.5,81.7c-2.3-0.3-4.4,1.3-4.9,3.5c0.5,1.4,1.1,2.9,1.8,4.3c0.1,0.2,0.2,0.4,0.3,0.6
			c0.5,0.3,1.1,0.5,1.8,0.6c2.5,0.3,4.7-1.5,5-4C18.8,84.2,17,82,14.5,81.7"/>
	</g>
	<g>
		<path class="st2" d="M47.4,107.2c-7.2,0-14.4-1.2-19.8-3.3c-8.7-3.3-14.2-7.8-17.2-14C4.7,78.4,5.6,66,7,54.3
			c2.3-18.8,19.7-33.4,39.5-33.4c2.2,0,4.3,0.2,6.5,0.5c9.7,1.7,18.9,5.4,24.5,10C90,41.5,93.4,60.5,90.2,74.1
			c-0.3,1.4-0.8,2.9-1.4,4.4c3,1.5,5.3,4.8,4.6,9.1c-0.9,5.7-6.7,9.3-11.5,9.3l0,0c-1.7,0-3.2-0.4-4.5-1.3c-4.3,4.2-9,7.4-13.7,9.1
			C59.3,106.4,53.6,107.2,47.4,107.2z M46.6,23.2c-16.4,0-34.8,11.7-37.2,31.4c-1.8,14.2-1.8,24.3,3.1,34.3c2.8,5.7,7.9,9.7,16,12.8
			c5.2,2,12.1,3.1,19,3.1c6,0,11.3-0.8,15.6-2.4c4.6-1.7,9.4-4.9,13.6-9.3c0.2-0.2,0.5-0.4,0.8-0.4c0,0,0,0,0,0
			c0.3,0,0.6,0.1,0.8,0.3c1.1,1.1,2.6,1.4,3.7,1.4c3.9,0,8.5-3,9.2-7.3c0.6-3.5-1.7-6.2-4.2-7c-0.3-0.1-0.6-0.3-0.7-0.6
			c-0.1-0.3-0.1-0.6,0-0.9c0.7-1.8,1.3-3.5,1.7-5.1c3-12.9-0.2-30.9-11.9-40.4c-6.3-5.1-16.2-8.2-23.4-9.5
			C50.6,23.4,48.6,23.2,46.6,23.2z"/>
	</g>
	<g>
		<path class="st1" d="M64.9,85.2c-0.4,3.3-1.9,5.8-3.5,5.6c-1.6-0.2-2.6-3-2.2-6.2c0.4-3.3,1.9-5.8,3.5-5.6
			C64.3,79.1,65.3,81.9,64.9,85.2"/>
	</g>
	<g>
		<path class="st0" d="M62.1,81.4c-0.1,0.5-0.5,0.8-1,0.8c-0.5-0.1-0.8-0.5-0.8-1c0.1-0.5,0.5-0.8,1-0.8
			C61.8,80.5,62.1,80.9,62.1,81.4"/>
	</g>
	<g>
		<path class="st1" d="M22.7,83.3c-0.3,3.3-1.8,5.8-3.4,5.7c-1.6-0.1-2.6-2.9-2.3-6.2c0.3-3.3,1.8-5.8,3.4-5.7
			C21.9,77.2,23,80,22.7,83.3"/>
	</g>
	<g>
		<path class="st0" d="M19.8,79.5c0,0.5-0.5,0.8-0.9,0.8c-0.5,0-0.8-0.5-0.8-0.9c0-0.5,0.5-0.8,0.9-0.8C19.5,78.6,19.9,79,19.8,79.5
			"/>
	</g>
	<g>
		<path class="st4" d="M88.2,79.4c-16.9,0-23.3-8.6-28.5-18.7c2.6,13.7-11.2,9.1-15.5-0.1c0,0,5.5,9.4-0.6,9.5
			c-6.1,0.1-11-4-9.8-14.4C29.5,69,11.8,72.9,5.8,69.6C0.7,61.2,5.8,12,56.3,21C103,29.2,93.9,65.3,88.2,79.4"/>
	</g>
	<g>
		<g>
			<path class="st5" d="M13.5,41.5c1-2,2.4-4.1,4-5.6c1.8-1.7,5.1-3.2,7.3-1.4c4.2,3.4,2.9,8.8,0.2,12.7c-2.1,2.9-6.1,6.6-9.9,6.7
				c-4.1,0.1-4.2-3.8-3.4-7.4C12.2,44.5,13,42.6,13.5,41.5z"/>
		</g>
		<g>
			<path class="st5" d="M75,50.6c-0.9-1.7-1.6-3.4-0.4-5.2c0.3-0.4,0.7-0.5,1.1-0.3c1.6,0.8,3,2.1,4.4,3.2c1.2,1,2.8,2.5,4.5,2.6
				c-0.5-1.7-1.4-3.2-2.2-4.8c-0.5-0.9,0.9-1.8,1.4-0.8c1,2,2.2,3.9,2.6,6.1c0.1,0.4-0.1,0.9-0.6,1c-4,0.8-7-3.4-10.2-5.5
				c-0.4,1.7,1.1,3.4,1.8,4.9c0.3,0.7-0.2,1.4-0.9,1.2c-1.4-0.3-7.8-5.3-8.5-3.1c-0.3,1-1.9,0.6-1.6-0.4
				C67.8,45.7,72.1,48.8,75,50.6z"/>
		</g>
		<g>
			<path class="st5" d="M56.6,47.2c0.4-0.1,0.9,0.1,1,0.6l0.3,1.3c0.1,0.4-0.1,0.9-0.6,1c-0.4,0.1-0.9-0.1-1-0.6L56,48.2
				C55.9,47.8,56.1,47.3,56.6,47.2z"/>
		</g>
		<g>
			<path class="st5" d="M52.1,47.2c0.4,0.1,0.7,0.6,0.6,1l-0.3,1.1c-0.1,0.4-0.6,0.7-1,0.6c-0.4-0.1-0.7-0.6-0.6-1l0.3-1.1
				C51.2,47.4,51.7,47.1,52.1,47.2z"/>
		</g>
		<g>
			<path class="st5" d="M31.6,43.3c0.3-0.1,0.6-0.1,1,0c1.1,0.2,1.1,1.2,1,2.2c0.4-0.2,0.8-0.5,1.2-0.7c0.9-0.5,1.7,0.9,0.8,1.4
				c-0.9,0.6-1.8,1.1-2.9,1.2c-0.5,0-0.8-0.4-0.8-0.8c-0.1-0.4,0-0.9,0.1-1.3c0-0.1,0-0.3,0-0.4c0,0,0,0.1,0,0.1
				c-0.2,0.1-0.4,0.3-0.6,0.5c-0.6,0.6-1.2,1.3-2,1.6c-0.6,0.3-1.1-0.5-1-1c0.3-1.2,1.1-2.2,1.7-3.2C30.5,42.1,31.6,42.6,31.6,43.3z
				"/>
		</g>
	</g>
	<g>
		<path class="st5" d="M4.7,54.9c-1,6.7-0.3,12.3,1.1,14.7c3.6,2,11.5,1.4,18.1-2.4C16.4,64.2,9.9,59.9,4.7,54.9"/>
	</g>
	<g>
		<path class="st5" d="M88.2,79.4c2.2-5.4,4.9-14.1,4.7-23.1c-6.4,6.9-15.7,12-26.6,14.5C70.9,75.9,77.4,79.4,88.2,79.4"/>
	</g>
	<g>
		<path class="st2" d="M88.2,80.5L88.2,80.5c-15.4,0-22.3-6.9-27.2-15c-0.2,1.3-0.6,2.3-1.3,3.1c-1,1.2-2.4,1.8-4.1,1.8l0,0
			c-2.5,0-5.4-1.3-7.9-3.5c0,1-0.2,1.9-0.6,2.6c-0.5,0.8-1.4,1.7-3.5,1.7h-0.3c-3.3,0-6-1.1-8-3.3c-1.6-1.8-2.6-4.2-2.9-7.1
			c-4.8,7.2-13.8,11-21.3,11c-2.4,0-4.5-0.4-6-1.3c-0.2-0.1-0.3-0.2-0.4-0.4C2,65.5,2.1,50.9,9,38.5c5-9.1,15.3-19.8,35.7-19.8
			c3.7,0,7.7,0.4,11.9,1.1c16.5,2.9,27.7,9.5,33.3,19.7c7.9,14.2,3,31.3-0.6,40.3C89.1,80.3,88.7,80.5,88.2,80.5z M59.7,59.5
			c0.4,0,0.8,0.2,1,0.6c4.6,9,10.5,17.7,26.7,18c2.9-7.4,7.9-24.2,0.4-37.6c-5.3-9.5-16-15.8-31.7-18.6c-4-0.7-7.9-1.1-11.5-1.1
			C25.4,21,15.8,31.2,11,39.7c-6.7,12-6.4,25.2-4.3,29c1.1,0.5,2.8,0.8,4.6,0.8c6.5,0,18-3.9,21.4-14.2c0.2-0.6,0.8-0.9,1.3-0.8
			c0.6,0.1,1,0.7,0.9,1.3c-0.5,4.7,0.2,8.4,2.2,10.6c1.5,1.6,3.6,2.5,6.2,2.5h0.2c1.2,0,1.4-0.4,1.5-0.6c0.6-0.9,0.1-3.1-1.2-5.8
			c-0.3-0.5-0.5-1-0.8-1.5c-0.3-0.6,0-1.2,0.5-1.5c0.5-0.3,1.2-0.1,1.5,0.4c0,0,0.3,0.6,0.8,1.4c2.5,4.2,6.9,6.7,9.6,6.7
			c1,0,1.8-0.3,2.3-1c0.7-0.8,1.3-2.6,0.6-6.3c-0.1-0.6,0.2-1.1,0.8-1.3C59.4,59.6,59.5,59.5,59.7,59.5z"/>
	</g>
	<polygon class="st14" points="28.5,138.3 19.8,141.7 19.8,119.7 28.5,116.3 	"/>
	<path class="st2" d="M19.8,142.5c-0.2,0-0.3-0.1-0.5-0.2c-0.2-0.2-0.4-0.4-0.4-0.7v-22c0-0.3,0.2-0.7,0.5-0.8l8.7-3.4
		c0.3-0.1,0.6-0.1,0.8,0.1c0.2,0.2,0.4,0.4,0.4,0.7v22c0,0.3-0.2,0.7-0.5,0.8l-8.7,3.4C20,142.5,19.9,142.5,19.8,142.5z M20.7,120.3
		v20.1l7-2.7v-20.1L20.7,120.3z"/>
	<rect x="28.5" y="116.3" class="st15" width="28.5" height="22"/>
	<path class="st2" d="M57,139.1H28.5c-0.5,0-0.9-0.4-0.9-0.8v-22c0-0.5,0.4-0.9,0.9-0.9H57c0.5,0,0.9,0.4,0.9,0.9v22
		C57.8,138.8,57.4,139.1,57,139.1z M29.3,137.4h26.8v-20.2H29.3V137.4z"/>
	<g>
		<path class="st16" d="M28.8,109.1v22.6c0,1.3,1.3,2.3,2.8,2.3c1.6,0,2.8-1,2.8-2.3v-22.6H28.8z"/>
	</g>
	<g>
		<path class="st17" d="M34.5,114.4v17.3c0,1.3-1.3,2.3-2.8,2.3c-1.6,0-2.8-1-2.8-2.3v-17.3H34.5z"/>
	</g>
	<g>
		<path class="st18" d="M31.7,128.3c0,0.2,0.1,0.3,0.3,0.3c0.2,0,0.3-0.1,0.3-0.3c0-0.2-0.1-0.3-0.3-0.3
			C31.8,128,31.7,128.1,31.7,128.3"/>
	</g>
	<g>
		<path class="st19" d="M32,123.6c0,0.3,0.2,0.5,0.5,0.5c0.3,0,0.5-0.2,0.5-0.5c0-0.3-0.2-0.5-0.5-0.5C32.3,123.1,32,123.4,32,123.6
			"/>
	</g>
	<g>
		<path class="st18" d="M29.5,116.3c0,0.4,0.4,0.8,0.8,0.8s0.8-0.4,0.8-0.8c0-0.4-0.4-0.8-0.8-0.8S29.5,115.8,29.5,116.3"/>
	</g>
	<g>
		<path class="st19" d="M31.4,117.2c0,0.2,0.1,0.3,0.3,0.3c0.2,0,0.3-0.1,0.3-0.3s-0.1-0.3-0.3-0.3C31.5,116.9,31.4,117,31.4,117.2"
			/>
	</g>
	<g>
		<path class="st2" d="M31.7,134.5c-1.9,0-3.4-1.3-3.4-2.9v-22.6c0-0.3,0.3-0.6,0.6-0.6h5.7c0.3,0,0.6,0.3,0.6,0.6v22.6
			C35.1,133.2,33.6,134.5,31.7,134.5z M29.4,109.6v22c0,1,1,1.7,2.3,1.7c1.3,0,2.3-0.8,2.3-1.7v-22H29.4z"/>
	</g>
	<g>
		<path class="st16" d="M28.8,108.8c0,0.4,1.3,0.8,2.8,0.8c1.6,0,2.8-0.3,2.8-0.8c0-0.4-1.3-0.8-2.8-0.8
			C30.1,108,28.8,108.4,28.8,108.8"/>
	</g>
	<g>
		<path class="st2" d="M31.7,110.1c-0.8,0-3.4-0.1-3.4-1.3c0-1.2,2.6-1.3,3.4-1.3c0.8,0,3.4,0.1,3.4,1.3
			C35.1,110,32.5,110.1,31.7,110.1z M29.9,108.8c0.4,0.1,1,0.2,1.8,0.2c0.8,0,1.4-0.1,1.8-0.2c-0.4-0.1-1-0.2-1.8-0.2
			C30.9,108.6,30.3,108.7,29.9,108.8z"/>
	</g>
	<g>
		<path class="st16" d="M35,109.1v22.6c0,1.3,1.3,2.3,2.8,2.3c1.6,0,2.8-1,2.8-2.3v-22.6H35z"/>
	</g>
	<g>
		<path class="st20" d="M40.7,114.4v17.3c0,1.3-1.3,2.3-2.8,2.3c-1.6,0-2.8-1-2.8-2.3v-17.3H40.7z"/>
	</g>
	<g>
		<path class="st21" d="M37.7,116.3c0,0.5,0.4,0.9,0.9,0.9c0.5,0,0.9-0.4,0.9-0.9c0-0.5-0.4-0.9-0.9-0.9
			C38.1,115.4,37.7,115.8,37.7,116.3"/>
	</g>
	<g>
		<path class="st22" d="M36.5,118.4c0,0.3,0.3,0.6,0.6,0.6c0.3,0,0.6-0.3,0.6-0.6c0-0.3-0.3-0.6-0.6-0.6
			C36.7,117.7,36.5,118,36.5,118.4"/>
	</g>
	<g>
		<path class="st21" d="M36.7,127.9c0,0.5,0.4,1,1,1c0.5,0,1-0.4,1-1c0-0.5-0.4-1-1-1C37.1,127,36.7,127.4,36.7,127.9"/>
	</g>
	<g>
		<path class="st21" d="M36.4,125.3c0,0.2,0.1,0.3,0.3,0.3c0.2,0,0.3-0.1,0.3-0.3c0-0.2-0.1-0.3-0.3-0.3
			C36.6,125,36.4,125.1,36.4,125.3"/>
	</g>
	<g>
		<path class="st2" d="M37.9,134.5c-1.9,0-3.4-1.3-3.4-2.9v-22.6c0-0.3,0.3-0.6,0.6-0.6h5.7c0.3,0,0.6,0.3,0.6,0.6v22.6
			C41.3,133.2,39.8,134.5,37.9,134.5z M35.6,109.6v22c0,1,1,1.7,2.3,1.7c1.3,0,2.3-0.8,2.3-1.7v-22H35.6z"/>
	</g>
	<g>
		<path class="st16" d="M35,108.8c0,0.4,1.3,0.8,2.8,0.8c1.6,0,2.8-0.3,2.8-0.8c0-0.4-1.3-0.8-2.8-0.8C36.3,108,35,108.4,35,108.8"
			/>
	</g>
	<g>
		<path class="st2" d="M37.9,110.1c-0.8,0-3.4-0.1-3.4-1.3c0-1.2,2.6-1.3,3.4-1.3c0.8,0,3.4,0.1,3.4,1.3
			C41.3,110,38.7,110.1,37.9,110.1z M36.1,108.8c0.4,0.1,1,0.2,1.8,0.2c0.8,0,1.4-0.1,1.8-0.2c-0.4-0.1-1-0.2-1.8-0.2
			C37.1,108.6,36.5,108.7,36.1,108.8z"/>
	</g>
	<g>
		<path class="st16" d="M41.3,109.1v22.6c0,1.3,1.3,2.3,2.8,2.3s2.8-1,2.8-2.3v-22.6H41.3z"/>
	</g>
	<g>
		<path class="st23" d="M47,114.4v17.3c0,1.3-1.3,2.3-2.8,2.3s-2.8-1-2.8-2.3v-17.3H47z"/>
	</g>
	<g>
		<path class="st24" d="M43,127.4c0,0.2,0.2,0.4,0.4,0.4c0.2,0,0.4-0.2,0.4-0.4c0-0.2-0.2-0.4-0.4-0.4C43.2,127,43,127.2,43,127.4"
			/>
	</g>
	<g>
		<path class="st25" d="M43.5,121.6c0,0.6,0.5,1.2,1.2,1.2c0.6,0,1.2-0.5,1.2-1.2c0-0.6-0.5-1.2-1.2-1.2
			C44,120.4,43.5,121,43.5,121.6"/>
	</g>
	<g>
		<path class="st24" d="M43.6,119.1c0,0.2,0.1,0.3,0.3,0.3c0.2,0,0.3-0.1,0.3-0.3c0-0.1-0.1-0.3-0.3-0.3
			C43.7,118.8,43.6,118.9,43.6,119.1"/>
	</g>
	<g>
		<path class="st25" d="M42.8,116.3c0,0.3,0.2,0.6,0.6,0.6c0.3,0,0.6-0.2,0.6-0.6c0-0.3-0.2-0.6-0.6-0.6
			C43,115.8,42.8,116,42.8,116.3"/>
	</g>
	<g>
		<path class="st24" d="M44.9,115.7c0,0.2,0.1,0.3,0.3,0.3c0.2,0,0.3-0.1,0.3-0.3c0-0.2-0.1-0.3-0.3-0.3
			C45,115.4,44.9,115.6,44.9,115.7"/>
	</g>
	<g>
		<path class="st2" d="M44.1,134.5c-1.9,0-3.4-1.3-3.4-2.9v-22.6c0-0.3,0.3-0.6,0.6-0.6H47c0.3,0,0.6,0.3,0.6,0.6v22.6
			C47.6,133.2,46,134.5,44.1,134.5z M41.9,109.6v22c0,1,1,1.7,2.3,1.7c1.2,0,2.3-0.8,2.3-1.7v-22H41.9z"/>
	</g>
	<g>
		<path class="st16" d="M41.3,108.8c0,0.4,1.3,0.8,2.8,0.8s2.8-0.3,2.8-0.8c0-0.4-1.3-0.8-2.8-0.8S41.3,108.4,41.3,108.8"/>
	</g>
	<g>
		<path class="st2" d="M44.1,110.1c-0.8,0-3.4-0.1-3.4-1.3c0-1.2,2.6-1.3,3.4-1.3c0.8,0,3.4,0.1,3.4,1.3
			C47.6,110,44.9,110.1,44.1,110.1z M42.3,108.8c0.4,0.1,1,0.2,1.8,0.2c0.8,0,1.4-0.1,1.8-0.2c-0.4-0.1-1-0.2-1.8-0.2
			C43.4,108.6,42.7,108.7,42.3,108.8z"/>
	</g>
	<g>
		<path class="st16" d="M47.6,109.1v22.6c0,1.3,1.3,2.3,2.8,2.3s2.8-1,2.8-2.3v-22.6H47.6z"/>
	</g>
	<g>
		<path class="st26" d="M53.2,114.4v17.3c0,1.3-1.3,2.3-2.8,2.3s-2.8-1-2.8-2.3v-17.3H53.2z"/>
	</g>
	<g>
		<path class="st27" d="M48.8,129.6c0,0.5,0.4,1,1,1c0.5,0,1-0.4,1-1c0-0.5-0.4-1-1-1C49.2,128.7,48.8,129.1,48.8,129.6"/>
	</g>
	<g>
		<path class="st28" d="M50.5,127.3c0,0.2,0.1,0.3,0.3,0.3c0.2,0,0.3-0.1,0.3-0.3c0-0.2-0.1-0.3-0.3-0.3
			C50.6,127,50.5,127.1,50.5,127.3"/>
	</g>
	<g>
		<path class="st27" d="M48.4,119.1c0.5,0,0.9,0.4,0.9,0.9c0,0.5-0.4,0.9-0.9,0.9c-0.5,0-0.9-0.4-0.9-0.9
			C47.6,119.5,48,119.1,48.4,119.1"/>
	</g>
	<g>
		<path class="st27" d="M50.4,117.7c0,0.3,0.2,0.5,0.5,0.5c0.3,0,0.5-0.2,0.5-0.5c0-0.3-0.2-0.5-0.5-0.5
			C50.7,117.2,50.4,117.4,50.4,117.7"/>
	</g>
	<g>
		<path class="st28" d="M51.3,116c0,0.1,0.1,0.3,0.3,0.3c0.1,0,0.3-0.1,0.3-0.3c0-0.1-0.1-0.3-0.3-0.3
			C51.4,115.7,51.3,115.9,51.3,116"/>
	</g>
	<g>
		<path class="st28" d="M50.4,122.8c0,0.6,0.5,1.2,1.2,1.2c0.6,0,1.2-0.5,1.2-1.2c0-0.6-0.5-1.2-1.2-1.2
			C50.9,121.6,50.4,122.1,50.4,122.8"/>
	</g>
	<path class="st2" d="M50.4,134.5c-1.9,0-3.4-1.3-3.4-2.9v-22.6c0-0.3,0.3-0.6,0.6-0.6h5.7c0.3,0,0.6,0.3,0.6,0.6v22.6
		C53.8,133.2,52.3,134.5,50.4,134.5z M48.1,109.6v22c0,1,1,1.7,2.3,1.7c1.3,0,2.3-0.8,2.3-1.7v-22H48.1z"/>
	<g>
		<path class="st16" d="M47.6,108.8c0,0.4,1.3,0.8,2.8,0.8s2.8-0.3,2.8-0.8c0-0.4-1.3-0.8-2.8-0.8S47.6,108.4,47.6,108.8"/>
	</g>
	<g>
		<path class="st2" d="M50.4,110.1c-0.8,0-3.4-0.1-3.4-1.3c0-1.2,2.6-1.3,3.4-1.3c0.8,0,3.4,0.1,3.4,1.3
			C53.8,110,51.2,110.1,50.4,110.1z M48.6,108.8c0.4,0.1,1,0.2,1.8,0.2c0.8,0,1.4-0.1,1.8-0.2c-0.4-0.1-1-0.2-1.8-0.2
			C49.6,108.6,49,108.7,48.6,108.8z"/>
	</g>
	<g>
		<path class="st16" d="M48,111.9v22.6c0,1.3-1.3,2.3-2.8,2.3s-2.8-1-2.8-2.3v-22.6H48z"/>
	</g>
	<g>
		<path class="st17" d="M42.3,117.2v17.3c0,1.3,1.3,2.3,2.8,2.3s2.8-1,2.8-2.3v-17.3H42.3z"/>
	</g>
	<g>
		<path class="st18" d="M45.2,131.1c0,0.2-0.1,0.3-0.3,0.3c-0.2,0-0.3-0.1-0.3-0.3c0-0.2,0.1-0.3,0.3-0.3
			C45,130.8,45.2,131,45.2,131.1"/>
	</g>
	<g>
		<path class="st19" d="M44.8,126.5c0,0.3-0.2,0.5-0.5,0.5s-0.5-0.2-0.5-0.5c0-0.3,0.2-0.5,0.5-0.5S44.8,126.2,44.8,126.5"/>
	</g>
	<g>
		<path class="st18" d="M47.3,119.1c0,0.4-0.4,0.8-0.8,0.8c-0.4,0-0.8-0.4-0.8-0.8c0-0.4,0.4-0.8,0.8-0.8
			C46.9,118.3,47.3,118.6,47.3,119.1"/>
	</g>
	<g>
		<path class="st19" d="M45.4,120c0,0.2-0.1,0.3-0.3,0.3c-0.2,0-0.3-0.1-0.3-0.3c0-0.2,0.1-0.3,0.3-0.3
			C45.3,119.7,45.4,119.9,45.4,120"/>
	</g>
	<g>
		<path class="st2" d="M45.1,137.3c-1.9,0-3.4-1.3-3.4-2.9v-22.6c0-0.3,0.3-0.6,0.6-0.6H48c0.3,0,0.6,0.3,0.6,0.6v22.6
			C48.5,136,47,137.3,45.1,137.3z M42.9,112.5v22c0,1,1,1.7,2.3,1.7s2.3-0.8,2.3-1.7v-22H42.9z"/>
	</g>
	<g>
		<path class="st16" d="M48,111.6c0,0.4-1.3,0.8-2.8,0.8s-2.8-0.3-2.8-0.8c0-0.4,1.3-0.8,2.8-0.8S48,111.2,48,111.6"/>
	</g>
	<g>
		<path class="st2" d="M45.1,112.9c-0.8,0-3.4-0.1-3.4-1.3c0-1.2,2.6-1.3,3.4-1.3c0.8,0,3.4,0.1,3.4,1.3
			C48.5,112.8,45.9,112.9,45.1,112.9z M43.3,111.6c0.4,0.1,1,0.2,1.8,0.2s1.4-0.1,1.8-0.2c-0.4-0.1-1-0.2-1.8-0.2
			S43.7,111.5,43.3,111.6z"/>
	</g>
	<g>
		<path class="st16" d="M41.8,111.9v22.6c0,1.3-1.3,2.3-2.8,2.3c-1.6,0-2.8-1-2.8-2.3v-22.6H41.8z"/>
	</g>
	<g>
		<path class="st29" d="M36.1,117.2v17.3c0,1.3,1.3,2.3,2.8,2.3c1.6,0,2.8-1,2.8-2.3v-17.3H36.1z"/>
	</g>
	<g>
		<path class="st30" d="M39.1,119.1c0,0.5-0.4,0.9-0.9,0.9c-0.5,0-0.9-0.4-0.9-0.9c0-0.5,0.4-0.9,0.9-0.9
			C38.7,118.3,39.1,118.7,39.1,119.1"/>
	</g>
	<g>
		<path class="st22" d="M40.4,121.2c0,0.3-0.3,0.6-0.6,0.6c-0.3,0-0.6-0.3-0.6-0.6c0-0.3,0.3-0.6,0.6-0.6
			C40.1,120.6,40.4,120.8,40.4,121.2"/>
	</g>
	<g>
		<path class="st21" d="M40.1,130.7c0,0.5-0.4,1-1,1c-0.5,0-1-0.4-1-1c0-0.5,0.4-1,1-1C39.7,129.8,40.1,130.2,40.1,130.7"/>
	</g>
	<g>
		<path class="st21" d="M40.4,128.1c0,0.2-0.1,0.3-0.3,0.3c-0.2,0-0.3-0.1-0.3-0.3c0-0.2,0.1-0.3,0.3-0.3
			C40.2,127.8,40.4,127.9,40.4,128.1"/>
	</g>
	<g>
		<path class="st2" d="M38.9,137.3c-1.9,0-3.4-1.3-3.4-2.9v-22.6c0-0.3,0.3-0.6,0.6-0.6h5.7c0.3,0,0.6,0.3,0.6,0.6v22.6
			C42.3,136,40.8,137.3,38.9,137.3z M36.7,112.5v22c0,1,1,1.7,2.3,1.7s2.3-0.8,2.3-1.7v-22H36.7z"/>
	</g>
	<g>
		<path class="st16" d="M41.8,111.6c0,0.4-1.3,0.8-2.8,0.8c-1.6,0-2.8-0.3-2.8-0.8c0-0.4,1.3-0.8,2.8-0.8
			C40.5,110.8,41.8,111.2,41.8,111.6"/>
	</g>
	<g>
		<path class="st2" d="M38.9,112.9c-0.8,0-3.4-0.1-3.4-1.3c0-1.2,2.6-1.3,3.4-1.3c0.8,0,3.4,0.1,3.4,1.3
			C42.3,112.8,39.7,112.9,38.9,112.9z M37.1,111.6c0.4,0.1,1,0.2,1.8,0.2c0.8,0,1.4-0.1,1.8-0.2c-0.4-0.1-1-0.2-1.8-0.2
			C38.1,111.4,37.5,111.5,37.1,111.6z"/>
	</g>
	<g>
		<path class="st16" d="M35.5,111.9v22.6c0,1.3-1.3,2.3-2.8,2.3c-1.6,0-2.8-1-2.8-2.3v-22.6H35.5z"/>
	</g>
	<g>
		<path class="st31" d="M29.8,117.2v17.3c0,1.3,1.3,2.3,2.8,2.3c1.6,0,2.8-1,2.8-2.3v-17.3H29.8z"/>
	</g>
	<g>
		<path class="st24" d="M33.8,130.2c0,0.2-0.2,0.4-0.4,0.4c-0.2,0-0.4-0.2-0.4-0.4c0-0.2,0.2-0.4,0.4-0.4
			C33.6,129.8,33.8,130,33.8,130.2"/>
	</g>
	<g>
		<path class="st25" d="M33.3,124.4c0,0.6-0.5,1.2-1.2,1.2c-0.6,0-1.2-0.5-1.2-1.2c0-0.6,0.5-1.2,1.2-1.2
			C32.8,123.3,33.3,123.8,33.3,124.4"/>
	</g>
	<g>
		<path class="st24" d="M33.2,121.9c0,0.1-0.1,0.3-0.3,0.3c-0.2,0-0.3-0.1-0.3-0.3c0-0.2,0.1-0.3,0.3-0.3
			C33.1,121.6,33.2,121.7,33.2,121.9"/>
	</g>
	<g>
		<path class="st25" d="M34,119.1c0,0.3-0.2,0.6-0.6,0.6c-0.3,0-0.6-0.2-0.6-0.6c0-0.3,0.2-0.6,0.6-0.6
			C33.8,118.6,34,118.8,34,119.1"/>
	</g>
	<g>
		<path class="st24" d="M31.9,118.6c0,0.2-0.1,0.3-0.3,0.3c-0.2,0-0.3-0.1-0.3-0.3c0-0.2,0.1-0.3,0.3-0.3
			C31.8,118.3,31.9,118.4,31.9,118.6"/>
	</g>
	<g>
		<path class="st2" d="M32.7,137.3c-1.9,0-3.4-1.3-3.4-2.9v-22.6c0-0.3,0.3-0.6,0.6-0.6h5.7c0.3,0,0.6,0.3,0.6,0.6v22.6
			C36.1,136,34.6,137.3,32.7,137.3z M30.4,112.5v22c0,1,1,1.7,2.3,1.7c1.2,0,2.3-0.8,2.3-1.7v-22H30.4z"/>
	</g>
	<g>
		<path class="st16" d="M35.5,111.6c0,0.4-1.3,0.8-2.8,0.8c-1.6,0-2.8-0.3-2.8-0.8c0-0.4,1.3-0.8,2.8-0.8
			C34.2,110.8,35.5,111.2,35.5,111.6"/>
	</g>
	<g>
		<path class="st2" d="M32.7,112.9c-0.8,0-3.4-0.1-3.4-1.3c0-1.2,2.6-1.3,3.4-1.3c0.8,0,3.4,0.1,3.4,1.3
			C36.1,112.8,33.5,112.9,32.7,112.9z M30.9,111.6c0.4,0.1,1,0.2,1.8,0.2c0.8,0,1.4-0.1,1.8-0.2c-0.4-0.1-1-0.2-1.8-0.2
			C31.9,111.4,31.3,111.5,30.9,111.6z"/>
	</g>
	<g>
		<path class="st16" d="M29.3,111.9v22.6c0,1.3-1.3,2.3-2.8,2.3c-1.6,0-2.8-1-2.8-2.3v-22.6H29.3z"/>
	</g>
	<g>
		<path class="st32" d="M23.6,117.2v17.3c0,1.3,1.3,2.3,2.8,2.3c1.6,0,2.8-1,2.8-2.3v-17.3H23.6z"/>
	</g>
	<g>
		<path class="st27" d="M28,132.4c0,0.5-0.4,1-1,1c-0.5,0-1-0.4-1-1c0-0.5,0.4-1,1-1C27.6,131.5,28,131.9,28,132.4"/>
	</g>
	<g>
		<path class="st28" d="M26.3,130.1c0,0.2-0.1,0.3-0.3,0.3c-0.2,0-0.3-0.1-0.3-0.3c0-0.2,0.1-0.3,0.3-0.3
			C26.2,129.8,26.3,129.9,26.3,130.1"/>
	</g>
	<g>
		<path class="st27" d="M28.4,121.9c-0.5,0-0.9,0.4-0.9,0.9s0.4,0.9,0.9,0.9c0.5,0,0.9-0.4,0.9-0.9S28.9,121.9,28.4,121.9"/>
	</g>
	<g>
		<path class="st27" d="M26.4,120.5c0,0.3-0.2,0.5-0.5,0.5c-0.3,0-0.5-0.2-0.5-0.5c0-0.3,0.2-0.5,0.5-0.5
			C26.1,120,26.4,120.2,26.4,120.5"/>
	</g>
	<g>
		<path class="st28" d="M25.5,118.8c0,0.1-0.1,0.3-0.3,0.3c-0.1,0-0.3-0.1-0.3-0.3c0-0.1,0.1-0.3,0.3-0.3
			C25.4,118.6,25.5,118.7,25.5,118.8"/>
	</g>
	<g>
		<path class="st28" d="M26.4,125.6c0,0.6-0.5,1.2-1.2,1.2c-0.6,0-1.2-0.5-1.2-1.2c0-0.6,0.5-1.2,1.2-1.2
			C25.9,124.4,26.4,125,26.4,125.6"/>
	</g>
	<g>
		<path class="st2" d="M26.4,137.3c-1.9,0-3.4-1.3-3.4-2.9v-22.6c0-0.3,0.3-0.6,0.6-0.6h5.7c0.3,0,0.6,0.3,0.6,0.6v22.6
			C29.8,136,28.3,137.3,26.4,137.3z M24.1,112.5v22c0,1,1,1.7,2.3,1.7c1.2,0,2.3-0.8,2.3-1.7v-22H24.1z"/>
	</g>
	<g>
		<path class="st16" d="M29.3,111.6c0,0.4-1.3,0.8-2.8,0.8c-1.6,0-2.8-0.3-2.8-0.8c0-0.4,1.3-0.8,2.8-0.8
			C28,110.8,29.3,111.2,29.3,111.6"/>
	</g>
	<g>
		<path class="st2" d="M26.4,112.9c-0.8,0-3.4-0.1-3.4-1.3c0-1.2,2.6-1.3,3.4-1.3c0.8,0,3.4,0.1,3.4,1.3
			C29.8,112.8,27.2,112.9,26.4,112.9z M24.6,111.6c0.4,0.1,1,0.2,1.8,0.2c0.8,0,1.4-0.1,1.8-0.2c-0.4-0.1-1-0.2-1.8-0.2
			C25.6,111.4,25,111.5,24.6,111.6z"/>
	</g>
	<polygon class="st14" points="57,138.3 48.3,141.7 48.3,119.7 57,116.3 	"/>
	<path class="st2" d="M48.3,142.5c-0.2,0-0.3-0.1-0.5-0.2c-0.2-0.2-0.4-0.4-0.4-0.7v-22c0-0.3,0.2-0.7,0.5-0.8l8.7-3.4
		c0.3-0.1,0.6-0.1,0.8,0.1c0.2,0.2,0.4,0.4,0.4,0.7v22c0,0.3-0.2,0.7-0.5,0.8l-8.7,3.4C48.5,142.5,48.4,142.5,48.3,142.5z
		 M49.2,120.3v20.1l7-2.7v-20.1L49.2,120.3z"/>
	<rect x="19.8" y="119.7" class="st14" width="28.5" height="22"/>
	<path class="st2" d="M48.3,142.5H19.8c-0.5,0-0.9-0.4-0.9-0.9v-22c0-0.5,0.4-0.8,0.9-0.8h28.5c0.5,0,0.9,0.4,0.9,0.8v22
		C49.2,142.2,48.8,142.5,48.3,142.5z M20.7,140.8h26.8v-20.2H20.7V140.8z"/>
	<g>
		<path class="st0" d="M62.1,126.2c-1.9-7-4.7-13.1-4.7-13.1c-1.8-7.3,7.4-12,10.4-5.9c1.7,3.6,3.5,14.1,4.7,23.3
			c0.3,2.4-1.9,3.9-3.8,4.7c-6.5,2.8-14.7,3.5-21.4,2.1c-1.3-0.3-2.7-3-2.9-4.5c-0.2-1.8,1.4-4.5,3.3-4.7
			C50.4,127.7,60.6,126.1,62.1,126.2"/>
	</g>
	<g>
		<path class="st2" d="M57.6,138.4c-0.2,0-0.4-0.1-0.5-0.3c-0.1-0.3,0-0.6,0.2-0.7c1.5-0.7,2.5-1.8,2.8-3.2c0.4-1.6-0.2-3.3-0.9-4.2
			c-0.2-0.2-0.2-0.5,0.1-0.7c0.2-0.2,0.5-0.2,0.7,0.1c0.9,1,1.5,3.1,1.1,5c-0.3,1.2-1.1,2.9-3.4,3.9
			C57.8,138.4,57.7,138.4,57.6,138.4z"/>
	</g>
	<g>
		<path class="st2" d="M54.4,139.1c-2.6,0-5.1-0.3-7.4-0.8c-1.9-0.4-3.5-3.7-3.7-5.4c-0.2-1.3,0.3-2.8,1.3-4
			c0.8-1.1,1.9-1.7,2.9-1.8c0.8-0.1,2.3-0.3,3.9-0.5c3.3-0.5,7.2-1,9.3-1.2c-1.9-6.3-4.3-11.7-4.3-11.7c0-0.1,0-0.1-0.1-0.2
			c-0.6-2.5-0.1-5,1.4-7c1.4-1.8,3.6-3,5.7-3c2.2,0,4.1,1.2,5.1,3.4c2.2,4.5,4,18,4.7,23.6c0.2,1.7-0.4,4-4.4,5.8
			C64.7,138,59.5,139.1,54.4,139.1z M61.9,127.2c-1.3,0-6.5,0.7-10.2,1.3c-1.7,0.2-3.1,0.5-4,0.6c-0.5,0.1-1.1,0.5-1.6,1.1
			c-0.6,0.8-0.9,1.8-0.8,2.5c0.2,1.4,1.5,3.5,2.1,3.7c2.2,0.5,4.5,0.7,7,0.7c4.8,0,9.7-1,13.8-2.7c2.3-1,3.4-2.3,3.2-3.7
			c-1.1-8.8-2.9-19.5-4.6-23c-0.9-1.9-2.3-2.2-3.3-2.2c-1.5,0-3,0.8-4.1,2.2c-1.1,1.5-1.5,3.3-1.1,5.2c0.4,0.8,2.9,6.7,4.7,13.2
			c0.1,0.3,0,0.7-0.2,0.9C62.6,127.1,62.3,127.2,61.9,127.2L61.9,127.2z"/>
	</g>
	<g>
		<path class="st3" d="M52.2,128.5c-3.5-3.6-9.2-6.8-5.2-0.3c-9.7-2.4-13.5,0.8-5.2,3.1c-6.9,0.7-7.4,1.9,1.3,3
			c-5.2,1.5-4.4,3.8,0.9,2.9c-2.2,2.7,0.2,3.2,7.2,0.4C53.8,136.2,53.4,130,52.2,128.5z"/>
	</g>
	<g>
		<path class="st2" d="M44.5,140.3L44.5,140.3c-1,0-1.7-0.3-1.9-0.9c-0.2-0.4-0.2-0.8-0.1-1.1c-0.2,0-0.4,0-0.6,0
			c-2.5,0-2.9-1-3-1.5c-0.1-0.7,0.4-1.4,1.3-2c-4-0.7-4.3-1.4-4.3-2.1c0-0.7,0.5-1.2,2.7-1.7c-1.5-0.8-2.2-1.6-2.1-2.5
			c0.2-1.2,1.7-1.9,4.4-1.9c1.3,0,2.9,0.2,4.6,0.5c-0.6-1.3-0.7-2.1-0.4-2.7c0.2-0.4,0.7-0.7,1.2-0.7c1.6,0,4.6,2.2,6.6,4.3
			c0,0,0,0.1,0.1,0.1c0.9,1.3,1.3,4.6,0.8,7.1c-0.4,1.6-1.1,2.7-2.1,3.3c0,0-0.1,0-0.1,0C48.3,139.7,45.9,140.3,44.5,140.3z
			 M44,138.7c0.1,0,0.2,0,0.4,0l0,0c0.7,0,2.5-0.2,6.4-1.8c0.7-0.4,1.1-1.4,1.3-2.2c0.5-2.2,0.1-4.9-0.5-5.7c-2-2.1-4.2-3.5-5.1-3.7
			c0.1,0.4,0.3,1.1,1.2,2.5c0.2,0.3,0.2,0.6,0,0.9c-0.2,0.3-0.5,0.4-0.9,0.3c-2.2-0.5-4.3-0.8-6-0.8c-1.8,0-2.6,0.3-2.8,0.5
			c0.2,0.3,1.2,1.1,4,1.9c0.4,0.1,0.6,0.5,0.6,0.9c0,0.4-0.3,0.7-0.7,0.7c-1.8,0.2-2.9,0.4-3.6,0.5c0.8,0.2,2.3,0.5,4.9,0.9
			c0.4,0,0.7,0.4,0.7,0.7c0,0.4-0.2,0.7-0.6,0.8c-1.7,0.5-2.5,1-2.8,1.3c0.2,0.1,0.6,0.2,1.3,0.2c0.6,0,1.3-0.1,2-0.2
			c0.3-0.1,0.7,0.1,0.9,0.4c0.2,0.3,0.1,0.7-0.1,0.9C44.2,138.2,44.1,138.5,44,138.7z"/>
	</g>
</g>
</svg>
