<?xml version="1.0" encoding="utf-8"?>
<!-- Generator: Adobe Illustrator 21.0.2, SVG Export Plug-In . SVG Version: 6.00 Build 0)  -->
<svg version="1.1" id="Layer_1" xmlns="http://www.w3.org/2000/svg" xmlns:xlink="http://www.w3.org/1999/xlink" x="0px" y="0px"
	 viewBox="0 0 28 24.3" style="enable-background:new 0 0 28 24.3;" xml:space="preserve">
<style type="text/css">
	.st0{fill:#E5E5E5;}
	.st1{fill:#480148;}
	.st2{fill:#00FEF0;}
</style>
<g>
	<polygon class="st0" points="9.4,3.2 5.4,8.4 1,1.1 	"/>
	<path class="st1" d="M5.4,9.5C5.4,9.5,5.4,9.5,5.4,9.5C5,9.5,4.7,9.3,4.5,9L0.1,1.6C-0.1,1.2,0,0.8,0.2,0.4C0.5,0.1,0.9-0.1,1.3,0
		l8.3,2.1c0.3,0.1,0.6,0.3,0.7,0.7c0.1,0.3,0.1,0.7-0.2,1l-4,5.3C6.1,9.3,5.7,9.5,5.4,9.5z M3.2,2.7l2.3,3.9l2.1-2.8L3.2,2.7z"/>
	<path class="st2" d="M22.6,3.4C27.4,7,28.4,14,24.8,18.8c-3.6,4.9-10.6,5.9-15.4,2.2C4.5,17.4,3.5,10.5,7.1,5.6S17.7-0.3,22.6,3.4"
		/>
	<path class="st1" d="M16,24.3c-2.6,0-5.1-0.8-7.2-2.4c-2.6-1.9-4.3-4.8-4.7-7.9c-0.5-3.2,0.4-6.4,2.3-9c2.3-3.1,5.8-4.8,9.7-4.8
		c2.6,0,5.1,0.8,7.2,2.4c5.3,4,6.4,11.6,2.4,16.9C23.3,22.5,19.8,24.3,16,24.3z M16,2.2c-3.2,0-6.1,1.5-8,4C6.4,8.4,5.7,11,6.1,13.6
		c0.4,2.6,1.8,5,3.9,6.6c1.7,1.3,3.8,2,6,2c3.2,0,6.1-1.5,8-4c3.3-4.4,2.4-10.7-2-14C20.2,2.9,18.1,2.2,16,2.2z"/>
</g>
</svg>
