<?xml version="1.0" encoding="utf-8"?>
<!-- Generator: Adobe Illustrator 21.0.2, SVG Export Plug-In . SVG Version: 6.00 Build 0)  -->
<svg version="1.1" id="Layer_1" xmlns="http://www.w3.org/2000/svg" xmlns:xlink="http://www.w3.org/1999/xlink" x="0px" y="0px"
	 viewBox="0 0 57.1 73.1" style="enable-background:new 0 0 57.1 73.1;" xml:space="preserve">
<style type="text/css">
	.st0{fill:#F06BE9;}
	.st1{fill:#FFFFFF;}
	.st2{fill:#8F028F;}
	.st3{fill:#FFFF33;}
</style>
<g>
	<g>
		<rect x="2.7" y="2.7" class="st0" width="51.6" height="67.7"/>
	</g>
	<g>
		<rect x="9.1" y="10.1" class="st1" width="38.9" height="12.7"/>
	</g>
	<g>
		<path class="st2" d="M54.4,73.1H2.7c-1.5,0-2.7-1.2-2.7-2.7V2.7C0,1.2,1.2,0,2.7,0h51.6c1.5,0,2.7,1.2,2.7,2.7v67.7
			C57.1,71.9,55.9,73.1,54.4,73.1z M5.5,67.7h46.2V5.5H5.5V67.7z"/>
	</g>
	<rect x="38.5" y="29.7" class="st3" width="8.9" height="8.9"/>
	<path class="st2" d="M47.4,39.2h-8.9c-0.4,0-0.7-0.3-0.7-0.7v-8.9c0-0.4,0.3-0.7,0.7-0.7h8.9c0.4,0,0.7,0.3,0.7,0.7v8.9
		C48,38.9,47.7,39.2,47.4,39.2z M39.1,37.9h7.5v-7.5h-7.5V37.9z"/>
	<rect x="24.1" y="29.7" class="st3" width="8.9" height="8.9"/>
	<path class="st2" d="M33,39.2h-8.9c-0.4,0-0.7-0.3-0.7-0.7v-8.9c0-0.4,0.3-0.7,0.7-0.7H33c0.4,0,0.7,0.3,0.7,0.7v8.9
		C33.7,38.9,33.4,39.2,33,39.2z M24.8,37.9h7.5v-7.5h-7.5V37.9z"/>
	<rect x="9.7" y="29.7" class="st3" width="8.9" height="8.9"/>
	<path class="st2" d="M18.6,39.2H9.7c-0.4,0-0.7-0.3-0.7-0.7v-8.9c0-0.4,0.3-0.7,0.7-0.7h8.9c0.4,0,0.7,0.3,0.7,0.7v8.9
		C19.3,38.9,19,39.2,18.6,39.2z M10.4,37.9h7.5v-7.5h-7.5V37.9z"/>
	<rect x="38.5" y="42.2" class="st3" width="8.9" height="8.9"/>
	<path class="st2" d="M47.4,51.8h-8.9c-0.4,0-0.7-0.3-0.7-0.7v-8.9c0-0.4,0.3-0.7,0.7-0.7h8.9c0.4,0,0.7,0.3,0.7,0.7v8.9
		C48,51.4,47.7,51.8,47.4,51.8z M39.1,50.4h7.5v-7.5h-7.5V50.4z"/>
	<rect x="24.1" y="42.2" class="st3" width="8.9" height="8.9"/>
	<path class="st2" d="M33,51.8h-8.9c-0.4,0-0.7-0.3-0.7-0.7v-8.9c0-0.4,0.3-0.7,0.7-0.7H33c0.4,0,0.7,0.3,0.7,0.7v8.9
		C33.7,51.4,33.4,51.8,33,51.8z M24.8,50.4h7.5v-7.5h-7.5V50.4z"/>
	<rect x="9.7" y="42.2" class="st3" width="8.9" height="8.9"/>
	<path class="st2" d="M18.6,51.8H9.7c-0.4,0-0.7-0.3-0.7-0.7v-8.9c0-0.4,0.3-0.7,0.7-0.7h8.9c0.4,0,0.7,0.3,0.7,0.7v8.9
		C19.3,51.4,19,51.8,18.6,51.8z M10.4,50.4h7.5v-7.5h-7.5V50.4z"/>
	<rect x="38.5" y="54.7" class="st3" width="8.9" height="8.9"/>
	<path class="st2" d="M47.4,64.3h-8.9c-0.4,0-0.7-0.3-0.7-0.7v-8.9c0-0.4,0.3-0.7,0.7-0.7h8.9c0.4,0,0.7,0.3,0.7,0.7v8.9
		C48,64,47.7,64.3,47.4,64.3z M39.1,62.9h7.5v-7.5h-7.5V62.9z"/>
	<rect x="24.1" y="54.7" class="st3" width="8.9" height="8.9"/>
	<path class="st2" d="M33,64.3h-8.9c-0.4,0-0.7-0.3-0.7-0.7v-8.9c0-0.4,0.3-0.7,0.7-0.7H33c0.4,0,0.7,0.3,0.7,0.7v8.9
		C33.7,64,33.4,64.3,33,64.3z M24.8,62.9h7.5v-7.5h-7.5V62.9z"/>
	<rect x="9.7" y="54.7" class="st3" width="8.9" height="8.9"/>
	<path class="st2" d="M18.6,64.3H9.7c-0.4,0-0.7-0.3-0.7-0.7v-8.9c0-0.4,0.3-0.7,0.7-0.7h8.9c0.4,0,0.7,0.3,0.7,0.7v8.9
		C19.3,64,19,64.3,18.6,64.3z M10.4,62.9h7.5v-7.5h-7.5V62.9z"/>
</g>
</svg>
