<?xml version="1.0" encoding="utf-8"?>
<!-- Generator: Adobe Illustrator 21.0.2, SVG Export Plug-In . SVG Version: 6.00 Build 0)  -->
<svg version="1.1" id="Layer_1" xmlns="http://www.w3.org/2000/svg" xmlns:xlink="http://www.w3.org/1999/xlink" x="0px" y="0px"
	 viewBox="0 0 63.3 64.7" style="enable-background:new 0 0 63.3 64.7;" xml:space="preserve">
<style type="text/css">
	.st0{fill:#FFFFFF;}
	.st1{fill:#00FEF0;}
	.st2{fill:#A535A5;}
	.st3{fill:#FF9C9C;}
	.st4{fill:#480148;}
	.st5{fill:#D7FFFF;}
	.st6{fill:#BC67BC;}
	.st7{fill:#FF99E0;}
	.st8{fill:#D130A0;}
	.st9{fill:#FFFF5C;}
	.st10{fill:#A9A9FF;}
	.st11{fill:#8F028F;}
	.st12{fill:#4C4CBF;}
</style>
<g>
	<path class="st0" d="M61.9,3.9v54c0,3-3,5.5-6.8,5.5c-3.8,0-6.8-2.5-6.8-5.5v-54H61.9z"/>
	<g>
		<path class="st1" d="M48.3,16.5v41.3c0,3,3,5.5,6.8,5.5c3.7,0,6.8-2.5,6.8-5.5V16.5H48.3z"/>
	</g>
	<g>
		<path class="st2" d="M55.5,21.2c0,1.2-0.9,2.1-2.1,2.1c-1.2,0-2.1-0.9-2.1-2.1c0-1.2,0.9-2.1,2.1-2.1C54.6,19.1,55.5,20,55.5,21.2
			"/>
	</g>
	<g>
		<path class="st3" d="M58.5,26.1c0,0.8-0.7,1.5-1.5,1.5c-0.8,0-1.5-0.7-1.5-1.5c0-0.8,0.7-1.5,1.5-1.5
			C57.9,24.6,58.5,25.3,58.5,26.1"/>
	</g>
	<g>
		<path class="st2" d="M58,48.9c0,1.3-1,2.3-2.3,2.3c-1.3,0-2.3-1-2.3-2.3c0-1.3,1-2.3,2.3-2.3C57,46.6,58,47.7,58,48.9"/>
	</g>
	<g>
		<path class="st2" d="M58.6,42.6c0,0.4-0.3,0.8-0.8,0.8c-0.4,0-0.8-0.3-0.8-0.8c0-0.4,0.3-0.8,0.8-0.8
			C58.2,41.9,58.6,42.2,58.6,42.6"/>
	</g>
	<g>
		<path class="st4" d="M55.1,64.7c-4.5,0-8.2-3.1-8.2-6.9v-54c0-0.8,0.6-1.4,1.4-1.4h13.6c0.8,0,1.4,0.6,1.4,1.4v54
			C63.3,61.6,59.6,64.7,55.1,64.7z M49.7,5.2v52.6c0,2.3,2.4,4.1,5.4,4.1c3,0,5.4-1.9,5.4-4.1V5.2H49.7z"/>
	</g>
	<g>
		<path class="st5" d="M61.9,3.2c0,1-3,1.8-6.8,1.8c-3.8,0-6.8-0.8-6.8-1.8s3-1.8,6.8-1.8C58.9,1.4,61.9,2.2,61.9,3.2"/>
	</g>
	<g>
		<path class="st4" d="M55.1,6.3c-1.9,0-8.2-0.2-8.2-3.2C47,0.2,53.2,0,55.1,0c1.9,0,8.2,0.2,8.2,3.2C63.3,6.1,57.1,6.3,55.1,6.3z
			 M50.8,3.2c1,0.2,2.4,0.4,4.3,0.4c1.9,0,3.4-0.2,4.3-0.4c-1-0.2-2.4-0.5-4.3-0.5C53.3,2.7,51.8,2.9,50.8,3.2z"/>
	</g>
	<g>
		<path class="st0" d="M38.4,3.9v54c0,3-3,5.5-6.8,5.5c-3.8,0-6.8-2.5-6.8-5.5v-54H38.4z"/>
	</g>
	<g>
		<path class="st6" d="M24.9,16.5v41.3c0,3,3,5.5,6.8,5.5c3.8,0,6.8-2.5,6.8-5.5V16.5H24.9z"/>
	</g>
	<g>
		<path class="st7" d="M34.3,47.6c0,0.5-0.4,0.9-0.9,0.9s-0.9-0.4-0.9-0.9c0-0.5,0.4-0.9,0.9-0.9S34.3,47.1,34.3,47.6"/>
	</g>
	<g>
		<path class="st8" d="M33.2,33.8c0,1.5-1.2,2.8-2.8,2.8c-1.5,0-2.8-1.2-2.8-2.8c0-1.5,1.2-2.8,2.8-2.8C32,31,33.2,32.3,33.2,33.8"
			/>
	</g>
	<g>
		<path class="st7" d="M32.9,27.7c0,0.4-0.3,0.6-0.6,0.6c-0.4,0-0.6-0.3-0.6-0.6s0.3-0.6,0.6-0.6C32.6,27.1,32.9,27.4,32.9,27.7"/>
	</g>
	<g>
		<path class="st8" d="M35,21.2c0,0.7-0.6,1.3-1.3,1.3s-1.3-0.6-1.3-1.3c0-0.7,0.6-1.3,1.3-1.3S35,20.4,35,21.2"/>
	</g>
	<g>
		<path class="st7" d="M29.9,19.8c0,0.4-0.3,0.7-0.7,0.7c-0.4,0-0.7-0.3-0.7-0.7c0-0.4,0.3-0.7,0.7-0.7
			C29.6,19.1,29.9,19.4,29.9,19.8"/>
	</g>
	<g>
		<path class="st4" d="M31.6,64.7c-4.5,0-8.2-3.1-8.2-6.9v-54c0-0.8,0.6-1.4,1.4-1.4h13.6c0.8,0,1.4,0.6,1.4,1.4v54
			C39.8,61.6,36.1,64.7,31.6,64.7z M26.2,5.2v52.6c0,2.3,2.4,4.1,5.4,4.1c3,0,5.4-1.9,5.4-4.1V5.2H26.2z"/>
	</g>
	<g>
		<path class="st5" d="M38.4,3.2c0,1-3,1.8-6.8,1.8c-3.8,0-6.8-0.8-6.8-1.8s3-1.8,6.8-1.8C35.4,1.4,38.4,2.2,38.4,3.2"/>
	</g>
	<g>
		<path class="st4" d="M31.6,6.3c-1.9,0-8.2-0.2-8.2-3.2c0-2.9,6.2-3.2,8.2-3.2c1.9,0,8.2,0.2,8.2,3.2C39.8,6.1,33.6,6.3,31.6,6.3z
			 M27.3,3.2c1,0.2,2.4,0.4,4.3,0.4c1.9,0,3.4-0.2,4.3-0.4c-1-0.2-2.4-0.5-4.3-0.5C29.8,2.7,28.3,2.9,27.3,3.2z"/>
	</g>
	<path class="st0" d="M15,3.9v54c0,3-3,5.5-6.8,5.5c-3.8,0-6.8-2.5-6.8-5.5v-54H15z"/>
	<g>
		<path class="st9" d="M1.4,16.5v41.3c0,3,3,5.5,6.8,5.5c3.7,0,6.8-2.5,6.8-5.5V16.5H1.4z"/>
	</g>
	<g>
		<path class="st2" d="M12,53c0,1.3-1,2.3-2.3,2.3c-1.3,0-2.3-1-2.3-2.3c0-1.3,1-2.3,2.3-2.3C11,50.7,12,51.7,12,53"/>
	</g>
	<g>
		<path class="st10" d="M7.9,47.3c0,0.4-0.3,0.7-0.7,0.7c-0.4,0-0.7-0.3-0.7-0.7c0-0.4,0.3-0.7,0.7-0.7C7.6,46.6,7.9,46.9,7.9,47.3"
			/>
	</g>
	<g>
		<path class="st11" d="M12.8,27.7c-1.2,0-2.1,0.9-2.1,2.1c0,1.2,0.9,2.1,2.1,2.1c1.2,0,2.1-0.9,2.1-2.1
			C14.9,28.7,14,27.7,12.8,27.7"/>
	</g>
	<g>
		<path class="st12" d="M8,24.4c0,0.6-0.5,1.2-1.2,1.2s-1.2-0.5-1.2-1.2c0-0.6,0.5-1.2,1.2-1.2S8,23.8,8,24.4"/>
	</g>
	<g>
		<path class="st10" d="M6.1,20.4c0,0.3-0.3,0.6-0.6,0.6c-0.3,0-0.6-0.3-0.6-0.6c0-0.3,0.3-0.6,0.6-0.6C5.8,19.8,6.1,20.1,6.1,20.4"
			/>
	</g>
	<g>
		<path class="st2" d="M8.2,36.6c0,1.5-1.3,2.8-2.8,2.8c-1.5,0-2.8-1.3-2.8-2.8c0-1.5,1.3-2.8,2.8-2.8C6.9,33.8,8.2,35.1,8.2,36.6"
			/>
	</g>
	<g>
		<path class="st4" d="M8.2,64.7c-4.5,0-8.2-3.1-8.2-6.9v-54c0-0.8,0.6-1.4,1.4-1.4H15c0.8,0,1.4,0.6,1.4,1.4v54
			C16.3,61.6,12.7,64.7,8.2,64.7z M2.7,5.2v52.6c0,2.3,2.4,4.1,5.4,4.1c3,0,5.4-1.9,5.4-4.1V5.2H2.7z"/>
	</g>
	<g>
		<path class="st5" d="M15,3.2c0,1-3,1.8-6.8,1.8C4.4,5,1.4,4.2,1.4,3.2s3-1.8,6.8-1.8C11.9,1.4,15,2.2,15,3.2"/>
	</g>
	<g>
		<path class="st4" d="M8.2,6.3C6.2,6.3,0,6.1,0,3.2C0,0.2,6.2,0,8.2,0c1.9,0,8.2,0.2,8.2,3.2C16.3,6.1,10.1,6.3,8.2,6.3z M3.8,3.2
			c1,0.2,2.4,0.4,4.3,0.4s3.3-0.2,4.3-0.4c-1-0.2-2.4-0.5-4.3-0.5S4.8,2.9,3.8,3.2z"/>
	</g>
</g>
</svg>
