<?xml version="1.0" encoding="utf-8"?>
<!-- Generator: Adobe Illustrator 21.0.2, SVG Export Plug-In . SVG Version: 6.00 Build 0)  -->
<svg version="1.1" id="Layer_1" xmlns="http://www.w3.org/2000/svg" xmlns:xlink="http://www.w3.org/1999/xlink" x="0px" y="0px"
	 viewBox="0 0 88.9 138.4" style="enable-background:new 0 0 88.9 138.4;" xml:space="preserve">
<style type="text/css">
	.st0{fill:#FFFFFF;}
	.st1{fill:#D29AD2;}
	.st2{fill:#8FE2E2;}
	.st3{fill:#828282;}
	.st4{fill:#480148;}
	.st5{fill:#EF4DB5;}
	.st6{fill:#FFFA50;}
</style>
<g>
	<path class="st0" d="M87.6,53.2v70.2c0,7-5.7,12.8-12.8,12.8h-45c-7,0-12.8-5.7-12.8-12.8V69.5L6,53.2H87.6z"/>
	<g>
		<path class="st1" d="M40.5,94.6L40.5,94.6c3.9-1.7,5.8-5.5,11.7-7c6.4-1.6,25.8-2,31.6,4.7v31c0,7-5.7,12.8-12.8,12.8h-45
			c-7,0-12.8-5.7-12.8-12.8V89.1c3.2,0.6,6.6,2.1,10.3,3.5C28.3,95.2,37.1,96.8,40.5,94.6"/>
	</g>
	<path class="st0" d="M82,1.8c-3.8-1.1-7.6,0.5-8.5,3.6L49.8,88.3c-0.9,3.1,1.5,6.5,5.3,7.5c3.8,1.1,7.6-0.5,8.5-3.6L87.2,9.3
		C88.1,6.3,85.7,2.9,82,1.8"/>
	<g>
		<path class="st2" d="M55.1,95.9c3.8,1.1,7.6-0.5,8.5-3.6l11.4-40c-4.8-2.4-11.7-0.6-17.6,9.5l-7.6,26.6
			C49,91.4,51.3,94.8,55.1,95.9"/>
	</g>
	<g>
		<path class="st0" d="M79.6,3.9c0.6,0,1.1,0.1,1.7,0.2c2.5,0.7,4.1,2.8,3.6,4.5L61.2,91.6c-0.4,1.3-1.9,2.2-3.7,2.2
			c-0.6,0-1.1-0.1-1.7-0.2c-2.5-0.7-4.1-2.8-3.6-4.5L75.8,6.1C76.2,4.8,77.7,3.9,79.6,3.9L79.6,3.9 M79.6,1.5
			c-2.9,0-5.4,1.5-6.1,3.9L49.8,88.3c-0.9,3.1,1.5,6.5,5.3,7.5c0.8,0.2,1.6,0.3,2.4,0.3c2.9,0,5.4-1.5,6.1-3.9L87.2,9.3
			c0.9-3.1-1.5-6.4-5.3-7.5C81.2,1.6,80.4,1.5,79.6,1.5"/>
	</g>
	<g>
		<path class="st3" d="M55.1,95.9c-1.6-0.5-3-1.4-4-2.5l-4.8,16.9c-0.6,1.9,0.9,4.1,3.3,4.8c2.4,0.7,4.8-0.3,5.4-2.3l4.8-16.9
			C58.4,96.3,56.8,96.3,55.1,95.9"/>
	</g>
	<g>
		<path class="st4" d="M51.1,116.7c-0.6,0-1.3-0.1-1.9-0.3c-3.2-0.9-5.1-3.9-4.3-6.6L49.7,93c0.2-0.5,0.6-0.9,1.1-1
			c0.5-0.1,1.1,0.1,1.4,0.5c0.8,0.9,2,1.7,3.3,2c1.3,0.4,2.7,0.4,3.9,0c0.5-0.2,1.1,0,1.5,0.3c0.4,0.4,0.5,0.9,0.4,1.5l-4.8,16.9
			C55.8,115.3,53.7,116.7,51.1,116.7z M51.9,96l-4.2,14.7c-0.3,1.1,0.7,2.5,2.3,3c0.4,0.1,0.7,0.2,1.1,0.2c1.2,0,2.2-0.6,2.4-1.4
			l4.2-14.7c-1,0-2.1-0.1-3.1-0.4C53.7,97,52.7,96.5,51.9,96z"/>
	</g>
	<g>
		<path class="st5" d="M69.7,44.9c-1.8-0.5-3.5,0.2-3.9,1.7L54,87.8c-0.4,1.4,0.7,3,2.5,3.5c1.8,0.5,3.5-0.2,3.9-1.7l11.8-41.2
			C72.5,46.9,71.4,45.4,69.7,44.9"/>
	</g>
	<path class="st4" d="M57.5,97.7L57.5,97.7c-0.9,0-1.9-0.1-2.8-0.4c-2.2-0.6-4-1.9-5.2-3.6c-1.3-1.8-1.6-3.8-1.1-5.8L72.1,5
		c0.9-3,3.9-5,7.5-5c0.9,0,1.9,0.1,2.8,0.4c2.2,0.6,4,1.9,5.2,3.6c1.3,1.8,1.6,3.8,1.1,5.8L65,92.7C64.1,95.6,61.1,97.7,57.5,97.7z
		 M79.6,2.9c-2.3,0-4.2,1.2-4.7,2.9L51.2,88.7c-0.3,1.1-0.1,2.2,0.7,3.3c0.8,1.2,2.1,2,3.6,2.4c0.7,0.2,1.3,0.3,2,0.3
		c2.3,0,4.2-1.2,4.7-2.9L85.8,8.9c0.3-1.1,0.1-2.2-0.7-3.3c-0.8-1.1-2.1-2-3.6-2.5C80.9,3,80.2,2.9,79.6,2.9z"/>
	<g>
		<path class="st6" d="M27.4,120.8c0,2.9,2.3,5.2,5.2,5.2c2.9,0,5.2-2.3,5.2-5.2c0-2.9-2.3-5.2-5.2-5.2
			C29.7,115.6,27.4,117.9,27.4,120.8"/>
	</g>
	<g>
		<path class="st6" d="M53.7,118.1c0,1.4,1.1,2.5,2.5,2.5c1.4,0,2.6-1.1,2.6-2.5c0-1.4-1.1-2.6-2.6-2.6
			C54.9,115.6,53.7,116.7,53.7,118.1"/>
	</g>
	<g>
		<path class="st0" d="M25.2,103.4c0,1.1,0.9,1.9,1.9,1.9c1.1,0,1.9-0.9,1.9-1.9c0-1.1-0.9-1.9-1.9-1.9
			C26.1,101.5,25.2,102.3,25.2,103.4"/>
	</g>
	<g>
		<path class="st0" d="M65.8,115.6c0,1.9,1.6,3.5,3.5,3.5c1.9,0,3.5-1.6,3.5-3.5c0-2-1.6-3.5-3.5-3.5
			C67.3,112,65.8,113.6,65.8,115.6"/>
	</g>
	<g>
		<path class="st6" d="M65.9,107.1c0,0.9,0.8,1.7,1.7,1.7c0.9,0,1.7-0.8,1.7-1.7c0-0.9-0.8-1.7-1.7-1.7
			C66.6,105.4,65.9,106.2,65.9,107.1"/>
	</g>
	<g>
		<path class="st0" d="M13.3,59H78v64.3c0,3.8-3.1,6.9-6.9,6.9h-45c-3.8,0-6.9-3.1-6.9-6.9V69.5c0-1.2-0.4-2.3-1-3.3L13.3,59
			 M2.3,53.2L2.3,53.2L2.3,53.2z M13.4,69.5v53.8c0,7,5.7,12.8,12.8,12.8h45c7,0,12.8-5.7,12.8-12.8V53.2H2.3L13.4,69.5z"/>
	</g>
	<g>
		<path class="st4" d="M71.1,138.4h-45c-8.3,0-15-6.7-15-15V70.2L0.4,54.4c-0.5-0.7-0.5-1.6-0.1-2.3c0.4-0.7,1.2-1.2,2-1.2h81.6
			c1.3,0,2.3,1,2.3,2.3v70.2C86.2,131.6,79.4,138.4,71.1,138.4z M6.6,55.4l8.7,12.8c0.3,0.4,0.4,0.8,0.4,1.3v53.8
			c0,5.8,4.7,10.5,10.5,10.5h45c5.8,0,10.5-4.7,10.5-10.5V55.4H6.6z"/>
	</g>
</g>
</svg>
