<svg width="24" height="24" viewBox="0 0 24 24" fill="none" xmlns="http://www.w3.org/2000/svg">
<path fill-rule="evenodd" clip-rule="evenodd" d="M6.04546 12C2.67727 12 0 9.34281 0 6C0 2.65719 2.67727 0 6.04546 0C7.68639 0 9.0682 0.59999 10.1045 1.62859L8.46361 3.17143C8.0318 2.74288 7.25454 2.22858 6.04541 2.22858C3.97273 2.22858 2.3318 3.94286 2.3318 6C2.3318 8.05714 3.97273 9.77142 6.04541 9.77142C8.46361 9.77142 9.32722 8.05714 9.49995 7.19998H6.04541V5.14283H11.7454C11.8318 5.4857 11.8318 5.74282 11.8318 6.17143C11.8319 9.59999 9.5 12 6.04546 12ZM19 6.85716H17.2727V8.57144H15.5454V6.85716H13.8181V5.14289H15.5454V3.42861H17.2727V5.14289H19V6.85716Z" transform="translate(3 6)" fill="white"/>
</svg>
