<svg width="24" height="24" viewBox="0 0 24 24" fill="none" xmlns="http://www.w3.org/2000/svg">
<path fill-rule="evenodd" clip-rule="evenodd" d="M0.788299 4.0403C0.774871 6.25661 2.66354 8.09096 4.96677 8.09853C7.29318 8.10622 9.19479 6.31355 9.20676 4.10182C9.21848 1.83778 7.34787 0.00605822 5.0173 1.57369e-05C2.69138 -0.00614881 0.801727 1.79958 0.788299 4.0403ZM5.00046 2.06819C6.14377 2.06917 7.05588 2.94527 7.05978 4.04567C7.06369 5.14595 6.15402 6.02773 5.0112 6.03157C3.86496 6.0356 2.94479 5.16573 2.93625 4.06947C2.92746 2.959 3.84787 2.06703 5.00046 2.06819ZM0.728485 10.086C1.72507 10.8349 2.88913 11.1404 4.18014 11.2697L4.08932 11.3643C4.0444 11.4113 4.00705 11.4506 3.96799 11.4884L3.38034 12.0545C2.62961 12.7778 1.87863 13.5014 1.12595 14.2235C0.929657 14.4117 0.789032 14.6215 0.775116 14.8961C0.754852 15.3021 1.01706 15.7062 1.42892 15.898C1.81662 16.0788 2.21408 16.0219 2.54831 15.7053C3.29269 15.0004 4.03244 14.2914 4.76047 13.5713C4.9426 13.3914 5.04172 13.3521 5.24826 13.5594C5.72433 14.0382 6.21335 14.5051 6.70236 14.9721C6.94138 15.2005 7.18063 15.4288 7.41818 15.6586C7.6069 15.8414 7.81955 15.9718 8.09225 15.9899C8.52243 16.0182 8.9614 15.7536 9.15744 15.3514C9.33664 14.9834 9.26852 14.5911 8.94308 14.2748C8.3342 13.6832 7.72214 13.0944 7.11032 12.5056C6.76169 12.1701 6.41305 11.8347 6.06515 11.4988C6.01486 11.4503 5.97385 11.4072 5.9111 11.3411L5.84177 11.2683C6.54782 11.1872 7.26144 11.065 7.91281 10.8223C8.60178 10.5656 9.22189 10.1978 9.73752 9.68941C10.0735 9.35774 10.0771 8.94087 9.80417 8.51375C9.5654 8.13973 9.1506 7.98268 8.70554 8.09242C8.47678 8.14906 8.27927 8.26003 8.0947 8.39607C6.23019 9.60091 3.67868 9.56709 1.8215 8.34096C1.73044 8.28029 1.63522 8.22383 1.53561 8.17861C1.02023 7.94515 0.524627 8.05391 0.229217 8.4604C-0.115754 8.9355 -0.0718083 9.3965 0.364227 9.79897C0.454315 9.88197 0.553924 9.95589 0.653045 10.0297L0.728485 10.086Z" transform="translate(7 4)" fill="white"/>
</svg>
