<svg width="24" height="24" viewBox="0 0 24 24" fill="none" xmlns="http://www.w3.org/2000/svg">
<path d="M17.9045 9.0311C17.8827 8.98536 17.8624 8.94742 17.8435 8.91702C17.5312 8.36934 16.9345 7.69709 16.0535 6.9001L16.0349 6.88185L16.0256 6.8729L16.0162 6.86373H16.0067C15.6069 6.49261 15.3537 6.24307 15.2477 6.11532C15.0537 5.87195 15.0102 5.62561 15.1163 5.37601C15.1912 5.18743 15.4726 4.78918 15.9597 4.1807C16.216 3.85823 16.419 3.59977 16.5688 3.40506C17.6498 2.00572 18.1185 1.11153 17.9747 0.722125L17.9188 0.631127C17.8813 0.576343 17.7845 0.526225 17.6285 0.480518C17.4721 0.434907 17.2722 0.427364 17.0285 0.45776L14.3295 0.475915C14.2858 0.460829 14.2233 0.462235 14.142 0.480518C14.0607 0.4988 14.0201 0.507974 14.0201 0.507974L13.9731 0.530827L13.9358 0.558283C13.9046 0.576438 13.8702 0.608369 13.8327 0.654012C13.7954 0.699496 13.7642 0.752873 13.7392 0.813699C13.4454 1.54984 13.1113 2.23426 12.7363 2.86693C12.5051 3.24419 12.2928 3.57114 12.0989 3.84797C11.9053 4.1247 11.7428 4.32859 11.6117 4.45929C11.4804 4.59011 11.3619 4.69492 11.2555 4.77409C11.1492 4.85329 11.0681 4.88676 11.012 4.87452C10.9557 4.86228 10.9027 4.85013 10.8525 4.83798C10.7651 4.7832 10.6947 4.70869 10.6417 4.6144C10.5885 4.52011 10.5526 4.40143 10.5339 4.25846C10.5153 4.1154 10.5042 3.99234 10.5011 3.88888C10.4982 3.78554 10.4995 3.63938 10.5058 3.4508C10.5123 3.26212 10.5153 3.13446 10.5153 3.06753C10.5153 2.83631 10.5199 2.58537 10.5292 2.31464C10.5386 2.04392 10.5463 1.82941 10.5527 1.67139C10.559 1.51321 10.562 1.34585 10.562 1.16941C10.562 0.992979 10.551 0.854611 10.5292 0.754184C10.5076 0.653884 10.4746 0.556526 10.431 0.462139C10.3872 0.367849 10.3231 0.294909 10.2389 0.24313C10.1546 0.191414 10.0497 0.150373 9.92496 0.119881C9.59379 0.0469095 9.17208 0.00743537 8.65965 0.0012985C7.4976 -0.0108474 6.75093 0.0622196 6.41979 0.220404C6.28859 0.287238 6.16986 0.378556 6.0637 0.49407C5.95121 0.627962 5.93552 0.70103 6.01673 0.713048C6.39166 0.767736 6.65708 0.89856 6.8133 1.10539L6.86959 1.21499C6.91338 1.29407 6.9571 1.43407 7.00086 1.63479C7.04455 1.83552 7.07275 2.05757 7.08516 2.3008C7.11634 2.74499 7.11634 3.12522 7.08516 3.44153C7.05387 3.75796 7.02433 4.0043 6.99613 4.18073C6.96794 4.35717 6.92579 4.50014 6.86959 4.60961C6.8133 4.71911 6.77584 4.78604 6.75707 4.81034C6.73832 4.83463 6.7227 4.84994 6.71029 4.85595C6.62908 4.88625 6.54462 4.90169 6.45721 4.90169C6.36966 4.90169 6.26351 4.85905 6.13857 4.77383C6.01367 4.68862 5.88405 4.57157 5.74969 4.4225C5.61534 4.27339 5.46382 4.06503 5.29507 3.79737C5.12644 3.52971 4.95148 3.21338 4.77029 2.84836L4.62038 2.58364C4.52666 2.41334 4.39864 2.16538 4.23619 1.83996C4.07364 1.51442 3.92996 1.19952 3.80506 0.895332C3.75514 0.767576 3.68013 0.670314 3.58018 0.603383L3.53327 0.575927C3.50209 0.551635 3.45203 0.525841 3.38336 0.498353C3.31459 0.470897 3.24283 0.451208 3.1678 0.439094L0.599913 0.457249C0.337509 0.457249 0.159465 0.515133 0.0657161 0.630743L0.0281968 0.685432C0.00945366 0.715892 0 0.76454 0 0.831502C0 0.898432 0.0187432 0.980577 0.0562624 1.07784C0.431126 1.93572 0.838782 2.76308 1.27923 3.56004C1.71968 4.35701 2.10242 4.99898 2.42723 5.48539C2.7521 5.97215 3.08324 6.43156 3.42065 6.86338C3.75806 7.29535 3.9814 7.57218 4.09068 7.6938C4.20008 7.81565 4.28602 7.90674 4.34849 7.96756L4.58282 8.18654C4.73277 8.33258 4.95296 8.50748 5.2435 8.71124C5.5341 8.91514 5.85582 9.11586 6.20882 9.31374C6.56189 9.51131 6.97263 9.67253 7.44128 9.79722C7.90986 9.92203 8.36593 9.97212 8.80956 9.94795H9.88734C10.1059 9.92957 10.2715 9.86264 10.3841 9.74713L10.4214 9.70139C10.4465 9.66508 10.4699 9.60867 10.4916 9.53275C10.5135 9.45671 10.5244 9.37294 10.5244 9.28181C10.518 9.02026 10.5385 8.78454 10.5852 8.57467C10.6319 8.36486 10.6852 8.20668 10.7447 8.10015C10.8042 7.99371 10.8714 7.90389 10.9461 7.83108C11.021 7.75811 11.0744 7.71391 11.1057 7.69869C11.1368 7.68338 11.1617 7.673 11.1804 7.66676C11.3304 7.61811 11.5068 7.66523 11.7101 7.80833C11.9132 7.95129 12.1037 8.12783 12.2818 8.33763C12.4599 8.54763 12.6739 8.78323 12.9237 9.04478C13.1738 9.30643 13.3924 9.50092 13.5798 9.62887L13.7671 9.73837C13.8922 9.81144 14.0547 9.87837 14.2547 9.93919C14.4543 9.99999 14.6292 10.0152 14.7793 9.98481L17.1784 9.94837C17.4157 9.94837 17.6004 9.91011 17.7314 9.8342C17.8626 9.75816 17.9405 9.67438 17.9657 9.58326C17.9908 9.49203 17.9921 9.38854 17.9705 9.27283C17.9482 9.15741 17.9263 9.07671 17.9045 9.0311Z" transform="translate(3 7)" fill="white"/>
</svg>
