<svg width="24" height="24" viewBox="0 0 24 24" fill="none" xmlns="http://www.w3.org/2000/svg">
<path d="M16 1.5381C15.4111 1.79911 14.7792 1.97613 14.1153 2.05516C14.7932 1.64911 15.3121 1.00508 15.5581 0.240011C14.9222 0.616032 14.2203 0.889071 13.4724 1.03708C12.8736 0.398039 12.0217 4.94794e-08 11.0769 4.94794e-08C9.26422 4.94794e-08 7.7945 1.47011 7.7945 3.28225C7.7945 3.53926 7.82349 3.79028 7.87949 4.03032C5.15201 3.89329 2.73347 2.5862 1.11477 0.600027C0.831818 1.08408 0.670851 1.64809 0.670851 2.25016C0.670851 3.38926 1.25075 4.39433 2.13059 4.98236C1.59268 4.96437 1.08677 4.81635 0.64387 4.57033V4.61133C0.64387 6.20145 1.77566 7.52854 3.27637 7.83059C3.00142 7.90459 2.71148 7.9456 2.41153 7.9456C2.19959 7.9456 1.99462 7.9246 1.79365 7.88459C2.21156 9.18969 3.42335 10.1387 4.85909 10.1648C3.73629 11.0448 2.32055 11.5679 0.782851 11.5679C0.517909 11.5679 0.256942 11.5519 0 11.5229C1.45273 12.456 3.17742 13 5.03107 13C11.0689 13 14.3693 7.99761 14.3693 3.65929L14.3583 3.23426C15.0032 2.77419 15.5611 2.19616 16 1.5381Z" transform="translate(4 5)" fill="white"/>
</svg>
