<svg width="24" height="24" viewBox="0 0 24 24" fill="none" xmlns="http://www.w3.org/2000/svg">
<path d="M8.66109 0.00332907L6.5024 0C4.07718 0 2.5099 1.54552 2.5099 3.93762V5.75313H0.339433C0.151879 5.75313 -5.81354e-08 5.89927 -5.81354e-08 6.07954V8.71001C-5.81354e-08 8.89028 0.152052 9.03625 0.339433 9.03625H2.5099V15.6738C2.5099 15.854 2.66178 16 2.84933 16H5.68118C5.86873 16 6.02061 15.8539 6.02061 15.6738V9.03625H8.55839C8.74594 9.03625 8.89782 8.89028 8.89782 8.71001L8.89886 6.07954C8.89886 5.99299 8.86301 5.91009 8.79946 5.84884C8.7359 5.78758 8.64931 5.75313 8.55926 5.75313H6.02061V4.2141C6.02061 3.47438 6.20401 3.09886 7.20655 3.09886L8.66074 3.09836C8.84812 3.09836 9 2.95222 9 2.77211V0.329578C9 0.149642 8.84829 0.00366197 8.66109 0.00332907Z" transform="translate(8 3)" fill="white"/>
</svg>
