<svg width="170" height="79" viewBox="0 0 170 79" fill="none" xmlns="http://www.w3.org/2000/svg">
<path fill-rule="evenodd" clip-rule="evenodd" d="M26.0085 50.3535C35.0864 50.3535 42.0747 46.6313 47.262 40.8667V21.5278H24.0632V32.5474H34.8701V36.3418C33.1411 37.8013 29.5388 39.2612 26.0085 39.2612C18.1555 39.2612 12.6079 33.1309 12.6079 25.1768C12.6079 17.2222 18.1555 11.0923 26.0085 11.0923C30.6914 11.0923 34.366 14.0845 36.167 17.2954L46.5415 11.8223C43.2275 5.76514 36.7434 0 26.0085 0C11.6714 0 0 9.70557 0 25.1768C0 40.6475 11.6714 50.3535 26.0085 50.3535ZM116.257 49.4775V0.802734H99.0383L88.9519 27.2202L78.9375 0.802734H61.7185V49.4775H74.1104V17.8062L86.2141 49.4775H91.6897L103.865 17.8062V49.4775H116.257ZM170 34.0796C170 43.8584 162.867 50.3535 149.971 50.3535C140.245 50.3535 133.473 47.2886 128.646 42.6177L135.202 33.2041C138.66 36.707 143.991 39.626 150.548 39.626C154.798 39.626 157.392 37.9473 157.392 35.6123C157.392 33.1348 153.602 32.3228 148.849 31.3052C140.863 29.5947 130.159 27.3022 130.159 15.5439C130.159 7.37061 137.003 0.0727539 149.323 0.0727539C157.032 0.0727539 163.732 2.4082 168.847 6.85986L162.075 15.8359C158.041 12.479 152.781 10.8003 148.026 10.8003C144.424 10.8003 142.839 12.2598 142.839 14.3032C142.839 16.5938 146.542 17.4219 151.215 18.4658C159.195 20.2495 170 22.6646 170 34.0796ZM13.3274 79C16.2524 79 18.5974 77.7739 20.2617 75.9092V69.5239H12.2935V72.1548H17.3115V74.811C16.5549 75.5264 15.042 76.3433 13.3274 76.3433C9.99878 76.3433 7.52759 73.7383 7.52759 70.1626C7.52759 66.5864 9.99878 64.0068 13.3274 64.0068C15.2185 64.0068 16.8071 65.0029 17.6897 66.2803L20.1104 64.9009C18.7488 62.9341 16.6055 61.3506 13.3274 61.3506C8.46069 61.3506 4.50171 64.8242 4.50171 70.1626C4.50171 75.5005 8.46069 79 13.3274 79ZM55.5085 78.668L51.3984 71.9761C53.4158 71.644 55.3826 70.0093 55.3826 66.9697C55.3826 63.8281 53.2139 61.6313 49.8855 61.6313H42.4971V78.668H45.4475V72.3081H48.3726L52.1045 78.668H55.5085ZM49.4819 69.6772H45.4475V64.2622H49.4819C51.1462 64.2622 52.3567 65.335 52.3567 66.9697C52.3567 68.6045 51.1462 69.6772 49.4819 69.6772ZM93.936 70.1626C93.936 75.2451 90.3806 78.9741 85.3374 78.9741C80.2942 78.9741 76.7388 75.2451 76.7388 70.1626C76.7388 65.0796 80.2942 61.3506 85.3374 61.3506C90.3806 61.3506 93.936 65.0796 93.936 70.1626ZM79.7646 70.1626C79.7646 73.6616 81.9333 76.3179 85.3374 76.3179C88.7163 76.3179 90.9102 73.6616 90.9102 70.1626C90.9102 66.6377 88.7163 64.0068 85.3374 64.0068C81.9333 64.0068 79.7646 66.6377 79.7646 70.1626ZM123.228 78.9741C128.095 78.9741 130.49 76.1646 130.49 71.9248V61.6313H127.515V71.8481C127.515 74.5557 126.027 76.3179 123.228 76.3179C120.404 76.3179 118.916 74.5557 118.916 71.8481V61.6313H115.941V71.9502C115.941 76.1392 118.336 78.9741 123.228 78.9741ZM156.179 72.3081V78.668H153.229V61.6313H160.617C164.148 61.6313 166.115 64.0835 166.115 66.9697C166.115 69.856 164.122 72.3081 160.617 72.3081H156.179ZM156.179 69.6772H160.214C161.878 69.6772 163.089 68.6045 163.089 66.9697C163.089 65.335 161.878 64.2622 160.214 64.2622H156.179V69.6772Z" fill="white"/>
</svg>
