<svg width="65" height="30" viewBox="0 0 65 30" fill="none" xmlns="http://www.w3.org/2000/svg">
<path fill-rule="evenodd" clip-rule="evenodd" d="M9.94446 19.1215C13.4154 19.1215 16.0874 17.7082 18.0708 15.5189V8.17514H9.20068V12.3597H13.3328V13.8008C12.6716 14.355 11.2942 14.9092 9.94446 14.9092C6.94177 14.9092 4.82068 12.5814 4.82068 9.56076C4.82068 6.54012 6.94177 4.21228 9.94446 4.21228C11.735 4.21228 13.1399 5.34848 13.8286 6.56783L17.7953 4.4894C16.5282 2.18928 14.049 0 9.94446 0C4.46265 0 0 3.68574 0 9.56076C0 15.4358 4.46265 19.1215 9.94446 19.1215ZM44.4513 18.789V0.304834H37.8676L34.011 10.3367L30.182 0.304834H23.5983V18.789H28.3363V6.76181L32.9642 18.789H35.0577L39.7133 6.76181V18.789H44.4513ZM65 12.9417C65 16.6551 62.2728 19.1215 57.3419 19.1215C53.6232 19.1215 51.0337 17.9576 49.1881 16.184L51.6948 12.6091C53.0171 13.9393 55.0555 15.0478 57.5624 15.0478C59.1876 15.0478 60.1793 14.4104 60.1793 13.5236C60.1793 12.5828 58.7301 12.2746 56.9131 11.888C53.8594 11.2384 49.7666 10.3678 49.7666 5.90273C49.7666 2.79895 52.3835 0.0277119 57.094 0.0277119C60.0415 0.0277119 62.6034 0.914507 64.5592 2.60496L61.9698 6.01358C60.4272 4.73881 58.4163 4.10143 56.5981 4.10143C55.2208 4.10143 54.6147 4.65568 54.6147 5.43162C54.6147 6.30143 56.0308 6.61578 57.8171 7.01232C60.8684 7.68966 65 8.60681 65 12.9417ZM5.09583 30C6.21423 30 7.11084 29.5344 7.74719 28.8264V26.4016H4.70056V27.4006H6.61914V28.4093C6.32996 28.6809 5.75146 28.9913 5.09583 28.9913C3.82312 28.9913 2.8783 28.0019 2.8783 26.644C2.8783 25.2861 3.82312 24.3065 5.09583 24.3065C5.81897 24.3065 6.42627 24.6848 6.76379 25.1697L7.68933 24.646C7.1687 23.8991 6.34924 23.2978 5.09583 23.2978C3.23499 23.2978 1.72131 24.6169 1.72131 26.644C1.72131 28.6712 3.23499 30 5.09583 30ZM21.224 29.8739L19.6525 27.3327C20.4237 27.2066 21.1758 26.5858 21.1758 25.4316C21.1758 24.2386 20.3466 23.4045 19.074 23.4045H16.249V29.8739H17.3771V27.4588H18.4955L19.9224 29.8739H21.224ZM18.9197 26.4597H17.3771V24.4035H18.9197C19.556 24.4035 20.0188 24.8109 20.0188 25.4316C20.0188 26.0524 19.556 26.4597 18.9197 26.4597ZM35.9169 26.644C35.9169 28.5742 34.5574 29.9903 32.6292 29.9903C30.7008 29.9903 29.3413 28.5742 29.3413 26.644C29.3413 24.7139 30.7008 23.2978 32.6292 23.2978C34.5574 23.2978 35.9169 24.7139 35.9169 26.644ZM30.4983 26.644C30.4983 27.9728 31.3275 28.9816 32.6292 28.9816C33.921 28.9816 34.7599 27.9728 34.7599 26.644C34.7599 25.3055 33.921 24.3065 32.6292 24.3065C31.3275 24.3065 30.4983 25.3055 30.4983 26.644ZM47.1168 29.9903C48.9775 29.9903 49.8936 28.9234 49.8936 27.3133V23.4045H48.7559V27.2842C48.7559 28.3123 48.187 28.9816 47.1168 28.9816C46.037 28.9816 45.4681 28.3123 45.4681 27.2842V23.4045H44.3304V27.323C44.3304 28.9137 45.2463 29.9903 47.1168 29.9903ZM59.7157 27.4588V29.8739H58.5876V23.4045H61.4126C62.7625 23.4045 63.5144 24.3356 63.5144 25.4316C63.5144 26.5276 62.7528 27.4588 61.4126 27.4588H59.7157ZM59.7157 26.4597H61.2583C61.8947 26.4597 62.3574 26.0524 62.3574 25.4316C62.3574 24.8109 61.8947 24.4035 61.2583 24.4035H59.7157V26.4597Z" fill="white"/>
</svg>
